<svg class="map-svg" width="569" height="392" fill="#ececec"  stroke="black" stroke-linecap="round"
                stroke-linejoin="round" stroke-width=".2"  viewBox="0 0 569 392" version="1.1" xmlns="http://www.w3.org/2000/svg">
    <metadata id="game-metadata">
        {
    "title": {
        "es": "Provincias de España",
        "ca": "Províncies d'Espanya"
    },
    "category": {
        "es": "Geográficos",
        "ca": "Geogràfics"
    },
    "translations": {
        "La_Coruna": {
            "es": "La Coruña",
            "ca": "La Corunya"
        },
        "Alava": {
            "es": "Álava",
            "ca": "Àlaba"
        },
        "Albacete": {
            "es": "Albacete",
            "ca": "Albacete"
        },
        "Alicante": {
            "es": "Alicante",
            "ca": "Alacant"
        },
        "Almeria": {
            "es": "Almería",
            "ca": "Almeria"
        },
        "Asturias": {
            "es": "Asturias",
            "ca": "Astúries"
        },
        "Avila": {
            "es": "Ávila",
            "ca": "Àvila"
        },
        "Badajoz": {
            "es": "Badajoz",
            "ca": "Badajoz"
        },
        "Baleares": {
            "es": "Baleares",
            "ca": "Baleares"
        },
        "Barcelona": {
            "es": "Barcelona",
            "ca": "Barcelona"
        },
        "Burgos": {
            "es": "Burgos",
            "ca": "Burgos"
        },
        "Caceres": {
            "es": "Cáceres",
            "ca": "Càceres"
        },
        "Cadiz": {
            "es": "Cádiz",
            "ca": "Cadis"
        },
        "Cantabria": {
            "es": "Cantabria",
            "ca": "Cantàbria"
        },
        "Castellon": {
            "es": "Castellón",
            "ca": "Castelló"
        },
        "Ciudad_Real": {
            "es": "Ciudad Real",
            "ca": "Ciudad Real"
        },
        "Cordoba": {
            "es": "Córdoba",
            "ca": "Còrdova"
        },
        "Cuenca": {
            "es": "Cuenca",
            "ca": "Conca"
        },
        "Guipuzcoa": {
            "es": "Guipúzcoa",
            "ca": "Guipúscoa"
        },
        "Gerona": {
            "es": "Gerona",
            "ca": "Girona"
        },
        "Granada": {
            "es": "Granada",
            "ca": "Granada"
        },
        "Guadalajara": {
            "es": "Guadalajara",
            "ca": "Guadalajara"
        },
        "Huelva": {
            "es": "Huelva",
            "ca": "Huelva"
        },
        "Huesca": {
            "es": "Huesca",
            "ca": "Osca"
        },
        "Jaen": {
            "es": "Jaén",
            "ca": "Jaén"
        },
        "La_Rioja": {
            "es": "La Rioja",
            "ca": "La Rioja"
        },
        "Las_Palmas": {
            "es": "Las Palmas",
            "ca": "Las Palmas"
        },
        "Leon": {
            "es": "León",
            "ca": "Lleó"
        },
        "Lerida": {
            "es": "Lérida",
            "ca": "Lleida"
        },
        "Lugo": {
            "es": "Lugo",
            "ca": "Lugo"
        },
        "Madrid": {
            "es": "Madrid",
            "ca": "Madrid"
        },
        "Malaga": {
            "es": "Málaga",
            "ca": "Màlaga"
        },
        "Murcia": {
            "es": "Murcia",
            "ca": "Múrcia"
        },
        "Navarra": {
            "es": "Navarra",
            "ca": "Navarra"
        },
        "Orense": {
            "es": "Orense",
            "ca": "Ourense"
        },
        "Palencia": {
            "es": "Palencia",
            "ca": "Palència"
        },
        "Pontevedra": {
            "es": "Pontevedra",
            "ca": "Pontevedra"
        },
        "Salamanca": {
            "es": "Salamanca",
            "ca": "Salamanca"
        },
        "Santa_Cruz_de_Tenerife": {
            "es": "Santa Cruz de Tenerife",
            "ca": "Santa Cruz de Tenerife"
        },
        "Segovia": {
            "es": "Segovia",
            "ca": "Segòvia"
        },
        "Sevilla": {
            "es": "Sevilla",
            "ca": "Sevilla"
        },
        "Soria": {
            "es": "Soria",
            "ca": "Sòria"
        },
        "Tarragona": {
            "es": "Tarragona",
            "ca": "Tarragona"
        },
        "Teruel": {
            "es": "Teruel",
            "ca": "Terol"
        },
        "Toledo": {
            "es": "Toledo",
            "ca": "Toledo"
        },
        "Valencia": {
            "es": "Valencia",
            "ca": "València"
        },
        "Valladolid": {
            "es": "Valladolid",
            "ca": "Valladolid"
        },
        "Vizcaya": {
            "es": "Vizcaya",
            "ca": "Biscaia"
        },
        "Zamora": {
            "es": "Zamora",
            "ca": "Zamora"
        },
        "Zaragoza": {
            "es": "Zaragoza",
            "ca": "Saragossa"
        },
        "Ceuta": {
            "es": "Ceuta",
            "ca": "Ceuta"
        },
        "Melilla": {
            "es": "Melilla",
            "ca": "Melilla"
        }
    }
}
    </metadata>
                    <g name="Leon">
                        <path
                            d="m218.62 71.671c2.4993-1.7002 2.0803-5.1512-1.2-6.0004 0.9948-1.7621 1.39-4.2913-2.16-4.5603-0.86639-0.58613-4.6777 1.2218-4.3199-0.96007 0.36784-1.4382 0.29531-3.3156 1.44-4.8003 0.16394-0.24065-0.98642-3.4281 1.68-3.6002 0.66399-0.08118 3.7222-1.9337 4.0799-3.6002 0.2015-1.249-0.86634-3.9507 2.16-2.6402 0.48032 0.7753 3.6168-1.9168 5.9999-0.48004 1.7884 0.11923 5.6333-0.67684 2.8799-2.4002 1.5814 0.33796 2.6158-2.7688 3.8399-2.8802 1.0294 1.1057 3.274 2.3816 4.5599 0.72005 1.0868 0.25272 3.2432 1.5594 3.3599-1.2001 2.2103 1.044 3.5126-0.09458 4.3199 2.8802 0.86189 1.0558 5.0124 3.4225 5.9999-0.48004 1.886-3.0529 6.1132 2.5997 7.9198-0.96006 2.9821 0.56171 2.8649-2.7524 5.5199-0.72005 2.4072-0.58607 3.3759-1.2151 5.5199-1.4401-0.21251-3.8344 3.2156-1.6882 4.7999-4.3203 3.6314-1.1758 2.4513 3.0449 2.8799 4.3203 1.2745 1.8395 4.9233 3.3991 1.2 5.2804-0.22134 4.1329-4.018 4.0836-3.1199 8.1606-3.1812 2.175 1.95 2.1191-0.23999 5.7604-1.0653 3.2938 0.83746 6.1033-0.71999 8.4006 1.1358 3.0977-2.1513 1.0837-2.16 3.8403 3.6141 0.89668-2.1122 1.6475-1.92 3.1202-0.86814-2.9382-3.1466-0.08307-5.0399-0.96006-1.954-0.186 0.47725 3.029-1.92 2.6402-0.28092 0.99927-2.7476-1.1853-3.3599 0.24002-0.34231 2.4439 1.2519 6.4856-1.2 6.9605-1.8486 0.35784-3.2161-5.2052-4.3199-0.96006-0.78349-0.77167-1.9068-0.95811-2.3999-3.3602-1.3943-0.36536-2.7209 1.5-4.0799-0.24002-1.798 2.4258-2.7424-1.4892-4.3199-0.24002-1.7598 0.91806-5.8424-2.5376-8.8798-0.72005-2.3221-2.9016-5.1619-2.5837-8.6398-1.6801-0.70593-2.0617-6.5828-0.37037-7.4398-2.8802zm44.639 0.72005c-3.7309 0.0532-0.0429 3.1502 0 0z" />
                    </g>
                    <g name="Jaen">
                        <path
                            d="m340.06 224.56c2.7531 1.8727 7.3486-0.65835 5.7599 4.0803 1.6488 0.93809 3.7752 1.8791 2.8799 4.3203 2.4299 2.3586 1.3989 5.6621-0.95997 8.1606-1.8313 2.2868-3.2371 1.4018-2.8799 4.8003-2.0914 1.5496-3.8433 1.3172-5.2799 2.8802-1.4353 3.6939-5.4249 7.1544-3.8399 10.321-2.6232 1.5572-2.9372 3.473-4.5599 2.4002-1.5261 1.1693-3.1385-0.50031-5.7599-1.2001-2.0158 0.0769-5.1976 5.5544-7.9198 1.6801-3.2951-0.52866-4.0435 3.2823-8.1598 3.8403-2.2008 0.7798-3.1886 0.95206-3.5999 4.0803-2.3871 2.1186-6.5109 0.34676-7.4398-2.8802-0.78024-1.1246-2.7325-2.8535-1.68-2.4002-1.1249-1.885-2.1911-3.2447-3.5999-4.0803 3.8549-2.5144-1.997-3.3548 0.47999-6.2404-5.3193-0.0417 0.20806-7.1817-1.92-9.6007 1.3767-1.0838 0.86741-2.4123 1.92-2.8802 0.71307-0.95771 2.7359-3.2454 0.47998-5.0404-0.113-2.16-0.87119-4.5002-1.44-5.0403-3.0389-3.4999 4.0392-1.2277 5.7599-1.4401 2.7778 0.74681 7.4272 1.3005 8.3998-1.6801 3.6027 1.4 6.996 0.28438 8.6398-0.24001 0.75289 2.6202 5.6236 0.82078 5.0399-1.6801 3.2153-0.80553 6.967 3.495 9.8398-0.24 2.9349 5.1657 1.1374 1.1759 4.0799 0.24 2.1408 1.863 3.9427-1.4545 5.7599-2.1601z" />
                    </g>
                    <g name="Badajoz">
                        <path
                            d="m279.58 186.88c1.2118 2.6325-2.599 4.6367-2.0154 6.8022 0.39624 2.4936 5.4162 6.311 0.0955 3.5186-4.3836-1.3736-4.1407 4.8809-3.3599 5.7604-2.0466 0.68962-5.5038-1.5845-2.4 3.6003 2.0468-0.45673 3.8496 2.4607 1.2 2.8802-3.7267 1.0579-2.4903 7.3738-7.1998 7.2005-3.8493-2.4367-1.6349 2.8603-3.5999 1.4401-0.69993 1.0743-3.6838 4.196-5.0399 3.3602-0.83339 2.0899-2.2421 2.7514-4.5599 5.0404-2.0842-1.1372-2.6111 3.2689-1.92 4.0803-0.29756 2.4138 2.3272 4.0728 0.47999 7.4405-1.1778 0.89734-4.2178 2.5467-6.2399 3.1202-0.42997-2.7925 2.3575-2.9617 1.44-3.8403-1.8534-0.78788-3.8898 0.0364-5.9999 0.96007-1.8968 1.5244-0.6015 3.1235-1.92 4.5603-0.97957 3.4849-6.4248 0.43661-7.9198 3.8402-1.64-1.9421-5.788-1.1156-5.7599-4.8003-3.242-1.2404-2.5058 1.0346-4.0799 1.6801-2.1907-1.4452-3.2753 0.18065-3.5999-3.3602-2.7622-1.1989-4.3567 0.29125-5.9999-1.4401 0.68702-1.8807-0.584-2.9882-3.5999-3.6002-1.8888-2.4322-5.9143 3.8454-6.7198-1.4401-1.1962-2.1956-3.7257-7.6861-5.9999-8.6406 1.8348-1.665-0.41049-1.4689 0.95998-3.6002 1.3289-2.756 2.0202-3.7959 1.44-7.2005 2.9771-3.2526 7.931-4.9545 7.9198-8.4006 3.778-2.2684 2.6942-9.847-2.16-7.2005-1.9744-0.88845 0.0525-4.1138-3.1199-3.8403-3.5337-2.4207 3.1051-4.1397 1.68-5.5204-1.3837-2.3178 5.7514-2.7003 2.16-0.96006 0.37906 4.1566 4.6876-2.0932 1.2-2.4002 1.9066-1.8608 5.3531 2.7237 8.1598 1.4401 1.4097 2.246 1.6533 4.3375 0 6.4804 0.52513 3.8797 6.7729-0.29715 6.7198 3.1202 1.9686-1.4734 5.3683 0.56591 8.1598-0.72006-0.70804 3.5261 3.1764 4.3869 5.2799 5.7604 0.61015 0.84227 4.8313-5.9938 4.3199-1.6801-0.40736 3.5121 2.9378-2.6118 2.6399 0.24001 3.7306-3.2166 5.664-0.13085 8.8798-0.48004 3.4924 0.77334 0.57818-3.0483 1.92-3.8403 2.4728-2.0144 3.5224 4.2346 6.7198 0.72006 1.4064-2.7016 0.0665-7.6692 4.5599-4.8003 4.2156-0.13903 3.7028-4.0829 6.9598-2.6402 1.9656-1.0012 2.5024-0.0655 4.5599 0.24001 0.71702-0.41357 1.889-0.80066 2.3999-0.96007" />
                    </g>
                    <g name="Teruel">
                        <path
                            d="m374.62 126.64c4.7321 1.1278 3.7347-2.606 6.2398-3.6003-0.19913-1.7822 1.9955-2.8097 2.16-0.96006 3.5821 1.8943 1.5729-5.4403 5.0399-2.8802 2.2406-1.9334 2.3291-1.6374 5.2799-0.48003 0.29313-2.0872 0.45805 5.3163 3.1199 0.48003-0.32775-2.7658 3.5441 3.5076 3.5999-0.96007 1.0537-2.9564 2.8738 4.025 4.3199-1.4401 0.64866-1.1086-1.6814-6.7378 1.68-5.0403 4.5213 5.3996-0.63381-1.3128 0.47999-2.4002 1.946 0.16943 4.7351 1.4438 4.0799 2.4002 2.8113 2.1906 4.1585 1.3658 6.4798 4.0803 3.6038 0.48997 6.7343 2.4986 8.1598 5.2804 1.7955-2.7656 6.4166-0.02 6.2398 0.24003 0.87126 0.48124 1.3301 1.8138 1.2 3.6002-2.3533 2.5197 1.3722 4.8369-1.44 7.4405-2.6111 0.77706-0.7524 1.8381-4.5599 2.1601-1.5002 1.293-2.949-0.74359-5.5199-0.96005-2.4581-3.9184-3.8936 0.71742-4.5599 2.6402-2.2484 1.3538-4.5665-0.62186-3.3599 2.8802 3.1317-0.59475 2.2957 1.8674 2.4 4.3203 2.6479 1.6468-4.2441 1.8262 0 4.3203 1.9939 1.4798-2.1069 2.6997-1.92 3.6003-0.86311-0.66865-0.30379 3.6421-3.5999 3.1202-3.4394-1.218-1.6342 4.3621-4.3199 5.5204 1.7153 2.759-4.5843 1.3964-4.5599 4.3203-2.3671 0.44327-2.5784 3.1106-0.47999 4.8003-3.7315 3.5277-3.2288-1.4443-3.8399-3.3602-1.9075-0.48452-5.8315-0.308-6.7198 0-3.3208-2.0458 5.2014-3.1264 0.23999-5.0404-1.8505-1.1638-4.28-0.33469-4.7999-2.8802-1.4219-4.458-0.79909 3.6628-3.8399 1.2001-1.6912-2.4885-3.5476-1.5474-6.4798-4.0803-1.6029-3.6044-5.0626-0.63285-2.8799-3.1202-2.4776-2.7934-4.5672-3.0462-1.2-6.0004 0.80052-4.7423 3.3324-3.832 5.2799-6.0004 0.68723-2.917 0.58341-5.9284 0-8.6406-2.1214-0.53-1.8298-3.0527-1.92-4.5603z" />
                    </g>
                    <g name="Caceres">
                        <path
                            d="m212.62 151.6c1.9346 2.8691 4.0649-0.54856 5.5199 1.2001 2.6577-0.70773 4.1781-1.584 5.5199-4.0803 3.4589-0.78701 5.158-3.4818 8.1598-4.3203 1.3349-1.8389 4.486 1.6698 3.8399 1.9201 4.0817 1.078-1.3063 2.6318 3.1199 3.6003 0.26434 1.9425 3.8582 3.4054 4.7999 0.48003 2.7476-2.5253 1.5145 2.2193 3.8399 1.6801 3.4941-0.50583 4.0024 5.7212 8.3998 3.6002 1.3257-2.5915 5.1717-2.8115 3.1199 0.48004 1.331 3.2791-0.58196 4.9954 0 8.6406-5.0542 5.7282 2.7895 2.4979 1.92 5.7604-2.5425 2.3366 1.2862 5.4368 2.6399 1.9201 2.2664 0.56262 1.77 3.4996 1.44 5.7604-3.334 2.3776 1.443 6.1534 3.5999 7.4405 2.1809 2.7694 3.2271 3.967-0.71998 4.5603-1.6809-2.913-3.7621 4.9241-7.6798 1.4401-2.3234-0.77502-1.3987 8.8898-5.5199 6.0004-0.93236-2.0895-4.4097-2.4875-3.8399 0 1.4647 2.4853-3.4803 4.8258-5.2799 0.96007-2.4542 0.22995-4.8689 2.2973-6.2398 1.4401-2.1334 4.0101-1.1771-1.8748-2.6399-0.96006-2.8435 3.7888-3.8246 3.2765-6.9598 0.72006-2.909 0.039-0.17748-5.6381-3.5999-2.8802-2.9155-1.3722-7.4184-1.7162-6.4798-0.72006-1.1139-2.0793-7.0849 1.2062-6.4798-3.1202 2.7408-1.5864 0.80965-5.915-1.44-5.7604-2.4004-0.0765-8.5774-3.9907-5.2799-0.24001-0.16876 3.9532-4.3815 2.0758-1.44 0.48004-1.8532-1.9405-4.4022 1.8554-3.1199 2.4002-2.5239 3.4447-6.1537-2.2676-4.3199-4.8003 0.83918-3.0078-3.1252-2.0315-2.8799-4.5603-1.9342-0.72444-3.8562-3.8791-3.8399-5.7604 5.2235 1.9517 9.3834 0.27992 14.64 1.2001 4.2974-1.2395 1.0628-6.506 4.5599-7.6805 1.1471-1.3627 1.5707-4.9532 1.92-6.4804-0.24194-2.9211-2.9359-4.2011-4.0799-5.0404-1.0721-3.9447 1.7612-4.4817 4.7999-5.2804z" />
                    </g>
                    <g name="Toledo">
                        <path
                            d="m259.9 159.52c3.6782 0.77408 5.9458 2.4394 8.1598-0.96007 2.038-1.6572 2.0347 2.9022 3.8399 0.48004 1.0266-2.1383 4.8866-3.0446 4.5599-5.5204 3.1877 0.34217 3.3437-0.69871 3.8399 2.8802 2.3517-0.41915 4.0842 0.79811 6.2399-0.96006 2.3649 0.14123 3.5526-6.555 4.0799-0.96007 0.94254 3.2539 3.7955-0.86825 4.5599-1.2001 1.0431-0.50223 2.2839 3.2123 4.0799 1.2001 1.5338 0.60232 3.2737 3.1922 4.3199 2.4002 2.4654 1.2006 3.6807 1.274 5.7599 2.6402 2.2348-0.98888 5.1195 1.7651 3.5999 3.1202-1.2845 1.2058-4.2007 3.1312-3.5999 3.8403-1.0415 0.49837-0.70643 0.20492-2.3999 0.72004-1.5385 0.66396-3.1712 1.3572 0.23999 2.4002 2.6636-3.1131 5.6289-3.0712 7.1998-5.2804 2.9649-0.56217 2.2178-1.9066 4.5599-0.72004 1.3876 0.86383 2.1986-3.6088 4.3199-0.48003 1.6928 0.69434 3.6045-2.7188 4.0799-0.72006-0.98556 3.1982 3.7116 3.7462 1.44 6.9605 0.26268 1.658 3.3239 4.3292 3.5999 7.2005 3.9272 2.5114 2.4122 7.1009 1.2 10.801-3.1898 1.2608-5.6887-3.3312-9.2398-0.98006-3.0489 0.74285-0.74364 3.9168-5.1599 2.9002-2.1936 3.5661-5.238 4.3759-8.3998 4.3203-2.1361 0.22561-4.8511 1.5527-7.1998 0.24001-1.9467-0.85854-2.7354-4.871-5.9999-2.4002-1.8932-0.2997-0.92141-3.8517 0.24-4.5603 1.977-0.23507 1.4985-2.7606 1.92-4.8003-4.6422-1.2459-3.2555 3.6834-7.1998 3.8403-2.8187-0.31745-5.9837-2.6379-6.4798-0.48003-0.90602-1.3238-0.41902-4.0782-1.68-2.1601-1.17 0.21297-1.8401 4.0067-5.0399 3.6002-4.5659 3.5526 0.65538-2.6956-3.5999-3.3602-4.184-3.9473-2.8528 9.5454-6.2399 3.8403-1.2281-2.5359-5.6098-4.4197-5.7599-7.2005 2.2366-2.5106 1.4866-5.4702 0.71999-7.6805-1.7831 1.5206-5.5191 2.6273-4.0799-1.4401 3.4483-3.7667-5.899-0.18076-2.16-4.5603 1.6589-1.8587-0.70181-5.8416 1.68-6.9605z" />
                    </g>
                    <g name="Cuenca">
                        <path
                            d="m378.46 156.64c3.0587 0.15185 1.4364 3.5953 4.0799 6.4804 1.3055 3.254 7.7121-0.8729 7.1998 2.8802-3.5067 0.97376 0.16095 6.5258-3.3599 8.4006 0.96147 5.1676-6.058 1.9726-6.4798 7.6805-2.0419 0.80488-0.22531 3.3928-1.2 5.5204 1.6228 1.4559-7.0868 3.5876-7.9198 6.2404-4.5674 0.49123-7.2642-2.2466-10.08-2.6402 1.6506 2.5761 1.4153 4.1733-2.6399 3.1202-2.7008 3.8324-4.0787-1.3511-5.7599 0.72006-1.7786 1.0618-4.9776-4.9342-8.3998-3.1202-1.9018 2.4418-9.0389-2.8022-5.2799-2.1602-1.074 2.7567-4.0398 1.3126-2.4-0.24001-1.8504-2.127-2.2678-3.4688-1.44-7.4405 0.92642-3.7919-3.8709-6.6561-4.7999-11.041-3.563-0.53521 1.76-5.3017-2.16-5.2804-3.3219-3.94 3.5483-2.8259 2.6399-5.2804-2.9274-2.6714 1.333-0.97504 1.44-2.4002-0.72741-3.7326 4.0259 3.8018 5.0399-1.2001 3.1517-1.1657-0.11998-6.248 1.44-7.9205 0.32049-3.484 1.6625 0.21609 2.6399-0.24002 1.3413 1.0757 0.16642-2.0134 1.68-1.2001 1.5229-1.9875 5.9393 2.5196 4.0799-1.4401-1.172-3.7271 0.73994-0.90294 2.8799-2.6402 3.1736 1.7175-0.84258-3.9164 2.16-2.6402 1.6733 3.6853 1.9978-1.6874 3.3599-1.2001 2.3509 0.86972 4.4748-2.8063 6.4798 0.72006 2.5944 1.2009 3.8244-0.57393 4.7999 3.1202 0.29806 2.8723 1.3731 4.2583 4.3199 6.7205 2.6364 0.9359-0.32495 4.5059 2.4 2.4002 1.3058 1.2698 3.6176 4.856 5.2799 4.0803z" />
                    </g>
                    <g name="Sevilla">
                        <path
                            d="m265.9 258.88c-2.3913-1.704 3.0297-3.6059 3.5999 0.48004-1.2571 2.3431 1.7442 1.322 0.47999 4.0803-0.13477 2.2441 1.4173 2.0084 1.68 4.5603 2.2608 0.51431 0.84631 1.9213 2.6399 3.8403 1.5557 1.0998 3.4283-1.1735 3.8399 0.72005 0.56965 1.1645-0.0782 0.61553 0.71998 2.6402-1.5579 0.42699-3.5988 0.33336-1.68 2.6402-2.6253 2.4932-3.3363 0.59046-4.3199-0.24002-0.8 1.4389-1.6117 1.6948-2.6399 0.96007-1.0677 0.37721 1.5129 3.1227-1.68 4.0803-2.7309 1.959-4.8257 1.1675-7.1998 4.0803-2.5602 3.0138-3.4796-5.5584-5.2799-1.2001-0.91742 1.2871-4.3356 3.3865-2.8799 0.24002 3.0499-3.3796-4.2049-2.8973-0.95998-0.24002-1.4792 1.3275-2.3581 3.4076-3.1199 3.3602-1.022-2.0185-3.2333-3.3707-5.0399-0.72004-3.9963-2.1646-4.7937 3.6162-7.1998 2.6402-4.7801 0.54283-9.4638-2.8703-13.44-3.1202 0.38942-1.5904-1.6748-7.2068 0.71999-8.1606-0.4332-2.4867 0.32312-5.094 0.23999-7.9205-1.483-1.2642 2.43-4.6568 1.2-4.3203 0.0129-2.553-3.1487-5.2959-2.3999-7.6805-3.2308-0.85801-5.7298 0.018-3.3599-2.4002 0.51784-2.7669 2.69-2.7265 6.7198-3.6002 1.848 0.34564 2.8271 2.0629 2.8799-1.2001 1.2047-0.71835 3.6542 1.6872 2.4-1.9201-1.5774-0.78096 1.7307-4.0081-0.95998-2.6402-0.68626-4.436 5.8507-2.131 7.6798-4.3203 1.4352-1.7847-0.68051-3.4826 1.92-4.5603 1.0466-2.4705 3.4689-1.2844 5.0399-2.1602 1.9431 0.85054 0.9227 0.81982 0 2.4002-1.9103 3.5095 2.3392 0.21131 4.5599 0.24003 2.5797 2.4972 2.1591 6.3589 5.0399 7.9205-0.22871 1.7331-0.74764 3.1374 2.4 4.3203-1.0488 1.6535 2.4853 5.2012 0 5.5204-0.67264 0.25893-3.4377-0.084-2.16 1.4401-1.4105 0.11539 1.0871 3.0741 1.92 2.6402 2.1384-2.7587 8.6643-3.4886 7.4398-3.1202-0.94262-2.4522 0.17802 0.40987 1.2 0.72005zm1.68 2.6402c-0.75884-2.9145-2.3737-2.1526-0.47999 0 0.27315-0.27314 0.59312 0.65944 0.47999 0z" />
                    </g>
                    <g name="Huesca">
                        <path
                            d="m399.09 46c-3.3714 1.1364-2.3929 4.53-3.5938 6.9375-2.3704 1.5571 0.4239 2.8282-0.25 3.625-0.90997 1.018-1.4556 4.2025 0 4.7812-2.6197 2.5179 0.70957 0.9172 0.5 3.8438-2.538 0.54998 3.6517 2.5009 1.1875 3.375-1.21 2.4233-2.9619 6.3164-0.46875 3.8438 3.5682 2.1891 1.6004-7.3242 3.3438-3.625 0.52539 3.3029-0.50321 7.5544 0 9.8438-0.014 3.6518-1.3861 0.84039-2.625 2.6562-1.1723 1.504-1.0974 3.1398 2.1562 3.8438 4.3242-0.83072 5.262 3.0293 7.6875 4.5625 1.2917 2.9141-0.39675 4.8619 2.375 5.0312 2.4071 0.17867 2.7601 3.4095 4.5625 4.0625 2.6569 2.1578 4.4748-0.64957 5.2812 3.375 0.93877 2.4059 3.8824 9.8134 3.5938 5.0312 1.5664 3.2008 4.8729 1.062 6-0.46875 1.1069-1.1219 5.0755 0.37286 5.5312-2.1562-1.3617-1.7189 4.3527-3.1186 1.9062-5.2812-0.97099-0.61453-4.9502-2.5829-2.1562-5.7812 1.2381-1.21 3.1171-2.2494 4.5625-4.0625 1.4204-1.057 3.6177-3.3258 1.4375-4.5625-1.1213-1.4944 3.7078-2.3622 2.1562-4.5625 2.3147-3.8343 0.65769-7.3239 2.9062-11.531-0.24554-0.81231-0.68148-2.7956-0.71875-2.1562 0.0848-1.3434-3.3106-4.9871-0.5-5.0312-1.0832-1.3812 2.6106-4.8856-1.4375-5.0312-0.12517-3.7988-4.836-2.6898-7.1875-2.4062-1.8462 0.24647-3.7213-1.8415-4.3125 0.71875-2.041-1.0242-3.7146-2.9895-6.25-0.96875-2.1503 1.033-5.1077 1.217-6.25-0.46875-1.4846-2.7609-4.4108-3.4742-6.4688-4.3125-1.6209 1.0251-3.8867 2.8365-5.75 0.71875-1.2889 3.7592-2.5078-0.12368-4.5625-1.6875-1.493-0.46523-1.9958-0.72146-2.6562-2.1562zm-3.5938 27.594c-0.12906 0.7678 0.7678-0.12906 0 0zm-6.25-9.5938c-2.7754 2.3729 4.0263 3.4517 0 0z" />
                    </g>
                    <g name="Lugo">
                        <path
                            d="m194.62 10.227c1.7668-0.84616 2.9161 0.63811 2.3999 2.6402 0.60735 1.3356 1.6356-3.4404 3.1199-1.9201 1.4924 0.71882 1.6737 1.4299 2.8799 1.9201 2.3932 0.87483 1.9211 3.0811 4.3199 4.8003-1.3264 1.1879 1.6717-0.14034 3.8399 0.96006 1.5518-0.8452 3.8378 0.08396 1.44 3.3602-0.83288 2.6741-4.1386 0.67673-3.3599 3.3602 2.1482-0.51676 0.66192 4.047 3.1199 3.6002-0.77422 4.1559 3.3389 2.8838 2.8799 6.4804 1.8908 0.98174 2.7479-3.8324 3.8399 0-0.54117 3.0023-4.9396 1.9048-4.5599 4.3203-1.4245 0.77417 0.83046 2.961 0.47999 0 2.2728 1.9957 3.6795 4.1475 3.5999 6.0004-0.85235 0.75182-0.40819 2.0287-1.44 4.0803-2.2058 1.8611-2.5177 1.5707-4.3199 2.4002-2.3822 1.216 1.5474 3.3973-1.44 3.8403 0.53771 2.6227-0.78158 3.5115-1.68 6.7205-2.5791 0.04655-3.1588 7.9899-4.0799 3.1202-1.8102-2.6236-5.0691-3.0656-8.1598-0.96007-2.8272-0.10215-4.5328-0.1427-6.2399-2.8802-3.0609-0.2045-1.4464-2.1043-1.44-1.4401-2.3658 0.0085-5.8734-1.5674-3.5999-2.6402-2.9596-1.9938 4.2473-7.1969-1.2-8.1606-1.2909-2.4971-0.39024-3.7696-0.95998-5.0403 3.3396-0.96349 1.9192-6.1383 2.3999-8.4006-1.3719-2.9406 0.21879-6.8297 0.24-8.8806 2.9423-1.476-0.18881-5.45 3.5999-3.8403 0.90862-1.6122 2.8308-5.2201 2.3999-6.2404 1.4747-1.288 0.069-2.9145 1.92-3.8403-1.1278-1.5762 0.0865-1.0746 0-3.3602z" />
                    </g>
                    <g name="Burgos">
                        <path
                            d="m324.47 35.906c-3.0093 3.2023-8.166 3.1709-11.531 0.71875-1.1528 3.1563-3.7235 3.8005-5.75 4.3125 0.81457 1.6725-6.2743 3.0291-3.8438 6.5 1.7102-0.30318 5.0914-2.4632 3.5938-0.25-1.6516 0.16812-2.2699 1.5534-0.96875 2.4062 0.34766-1.8785 2.1504-0.74434 1.9375 2.4062-2.6037-0.17434-3.677 2.0237-5.7812 1.1875-2.9857 0.69426-2.8408 0.30114-5.0312 1.1875-2.1228 2.6933-4.1496 0.49978-2.625 4.0938-0.82386 1.85-0.0746 2.1592-1.2188 3.125 1.3796 1.178 1.1682 2.2096 1.9375 4.0625-3.6702-1.2177-3.2958 3.6183-0.96875 3.125-0.0547 2.6206 1.1814 5.5545 2.1562 8.9062-0.932 2.307 4.8142 0.82861 3.5938 3.0938-2.5602 1.4261 1.3222 1.8564 2.6562 1.4375 0.59414 0.82092-3.4725 5.7029 0.96875 2.6562 4.1598-0.89466-0.48901 1.6922-1.4688 3.5938-3.7817 0.59516-2.5258 2.7494-1.1875 4.8125-2.4698 1.6004 1.2408 3.5049 0.25 6.4688 0.71518 0.18994 4.9333 3.3873 6.2188 5.2812 0.7976-0.2358 1.4431-3.7482 1.4688-0.25 1.2875 4.6858 1.3915-5.1254 5.0312-2.875 2.204-0.27225 1.9735-2.9029 4.3125-0.9375 1.0694-2.5322 2.2513-3.7023 3.8438-6.25 3.5584 0.50373-4e-3 -7.4344 2.875-4.8125 1.1888 3.228 3.5999 3.0882 4.3125-0.21875 0.6714-1.203 2.8643-0.26544 3.375-2.6562 1.6478-0.97376 3.6926-7.9232-0.96875-6.25-1.5502-2.3362-4.4364-3.7744-1.9062-6.4688-2.0813-2.7791 1.4848-4.3134-0.5-5.5312-0.0713-3.8901 1.7738 3.4293 1.2188-1.1875 0.37728-2.2538-1.2019-2.9808-0.71875-4.8125-3.3252 0.39428 2.6766-2.3631 0-4.3125 2.6689-0.74999 5.4961 1.6817 6.4688 0-0.97993-2.2261-1.8598-2.581-4.0938-3.3438-0.47383-1.5866-2.9502-1.7206-3.8125-1.6875-1.2361-2.0718 0.96395-3.1415 0.46875-5.0625-2.3679 1.4549-3.0864 4.0854-4.8125 0 1.8558-4.164 3.2026-1.185 6-0.46875 3.3436-0.03186 2.733-2.1971 1.2188-3.125-0.61893-1.8238-5.3035-0.75018-3.125-2.4062 0.34107-2.8214-1.3975-2.5265-0.46875-4.7812 1.2251-1.5117-3.1959 0.10466-3.125-1.6875zm-18.969 12.469c-0.0355-0.61329-0.88611 0.19139 0 0zm-0.375-0.125c-0.19552-0.20498-0.094 0.41079 0 0zm-0.0937-0.03125c0.0841-0.2458-0.68324 0.04922 0 0zm-0.25-1.0312c-0.72527 0.51384 0.21187 1.0635 0 0zm-7.4375 3.5938c-0.92465 0.76921 1.5668 0.48056 0 0zm1.9062 0c-0.38635 2.2178 1.7444 0.18662 0 0zm37.938 1.4375c-2.0854 2.9807 0.94674 3.5578 2.875 5.2812 2.1968-1.552 6.9348 3.4288 6.4687-0.9375-2.9275 1.6618-2.5912-1.3038-1.1875-2.6562-1.9345-0.13825-4.5216-2.4172-7.9375-1.1875v-0.5h-0.21875zm-42.5 1.9375c-0.53115 1.1277 1.3966-0.04607 0 0z" />
                    </g>
                    <g name="Soria">
                        <path
                            d="m366.7 85.592c0.26052 2.5811 1.811 4.9124 0.71998 7.2005 3.624 3.0076 0.29976 4.8235-2.3999 7.2005-3.5387-0.55015-1.0265 2.1654-1.68 4.8003 2.3898 2.3573 0.29534 4.7137-1.92 3.8403-1.5095-5.0881-1.9958 0.86101-3.5999 1.9201-0.91833 3.4904 0.96876 7.0156 3.3599 8.8806 0.60658 4.7459-1.625-0.89234-3.5999 1.6801-2.6478 0.64434-4.8473 0.43007-7.4398 1.2001-2.2271-0.67645-2.6312-4.7805-5.0399-3.3602-1.2234-2.4374-0.10633-2.5539-1.92-3.8403-2.7219-2.3336-4.3942 0.61257-6.7198-1.9201-0.66359-4.1065-4.7436 2.206-7.4398 0-3.3291-0.66672-6.9756-2.6413-7.1998-5.7604 1.3276-2.3657-2.9066-0.87461-2.8799-3.8403-1.8947 0.98775-4.6527-3.4535-2.4-3.3602 3.2 2.0485 2.1096-3.0983 4.7999-3.8403 0.1856-1.8224 3.6943-3.2991 2.4-4.0803-0.4549-2.5894 0.19248-4.3064 1.68-1.4401 2.2257 4.1582 3.4211-1.4208 4.5599-1.9201 2.7617 0.18559 2.8064-2.7617 4.7999-5.5204 3.3361 1.0297 3.2889-2.3478 4.5599-4.0803 4.2706-0.7888-2.2223 5.5208 1.92 4.3203 3.9038 2.6639 5.2893-2.7422 5.9999-3.8403 1.3694-0.40677 6.552-3.5845 6.9598 0.96006 1.1916-1.25 6.1089-0.97259 3.3599 1.2001 2.0033 1.6981 0.7058 4.7178 3.8399 4.3203 2.1591 1.7294 3.5205 0.52826 5.2799-0.72005z" />
                    </g>
                    <g name="Lerida">
                        <path
                            d="m442.28 47.188c-2.0222 1.2203-0.33047 3.5974-1.4375 4.5625 2.0076 1.1045-0.11305 3.7092 2.6562 5.2812 2.8342 0.29985-0.73024 3.7069 0.25 4.8125-2.5149 0.06724 1.6666 4.5854 0.46875 5.5 1.7433 0.25994 0.10649 1.4091 0.25 3.5938-1.0495 3.1627-0.92939 7.2969-1.9375 10.344-0.36361 1.601-4.3915 3.2622-1.6875 4.0625 1.0506 3.354-3.1584 3.2105-3.8125 6.5-2.3696-0.04467-5.2881 3.5117-2.9062 5.5 0.67213 1.2754 4.6432 2.2699 1.2188 5.5312-2.5987-0.7742-1.4156 9.7982-0.71875 6-0.2304 6.0374 3.9953-1.1037 3.3438 0.71875 1.4509 2.6022 2.8826-1.6528 4.5625 1.1875 2.5936-1.8519 4.6888-0.67578 6.7188-3.3438 1.8083 1.9825 4.3514-0.3392 4.8125-1.9375 1.7601-1.2236 2.2895-2.3667 0.96875-3.8125 2.3993 2.4057 4.7269 0.0404 4.0625-1.9375 1.1212-2.2519 5.7765-0.46083 6.4688-1.4375 0.13077-1.7095-1.8221-2.4723 1.2188-2.625 0.0566-1.9466-2.5485-2.4868-0.96875-4.3438-1.0526-2.9541 1.8274-2.3948 2.1562-1.4375 0.14268-0.91602 2.0166 1.2975 3.125-0.46875 0.0244-1.4726 2.5164-4.6844-0.96875-3.8438 2.0724-1.1175 2.115-2.9226 2.9062-4.5625 1.2947 2.2643 1.5465-2.8961 0.71875 0-2.4169-1.302-0.74373-0.3964 0-2.1562-1.7249-0.89526 1.6076-2.5019 0-4.0938 2.6674-2.1789-2.1193-2.2949-0.5-4.3125-2.086-2.235 1.7179-1.348 4.3125-2.625-0.64685-2.0725 0.73251-3.175-1.4375-2.9062 0.9865-2.9437-3.6556-1.5018-2.625-5.0312-1.6137 0.91672-2.1196 1.4828-4.0938 2.6562-0.77944-0.08985-4.4384 2.272-4.5625-1.2188 1.2658-1.7002-0.88381-2.4611-0.21875-4.3125-0.43624-2.856-2.6522-6.07-5.7812-5.0312-2.7606 1.5141-3.4617-1.1857-5.2812-2.1562-3.0063-0.37097-4.5717-0.19483-7.1875-1.4688-1.4609-0.43566-2.6602-0.69399-4.0938-1.1875zm30 28.562c2.4654-0.07237-0.13186 1.0614 0 0zm2.1875 8.875c0.71397 0.74042 0.26623 0.28996 0 0z"
                            fill-rule="evenodd" stroke-width=".48" />
                    </g>
                    <g name="Zaragoza">
                        <path
                            d="m366.7 85.352c-0.23835-3.8386 4.1708 1.9075 6.2398 0 2.8344 3.2489 8.4913 2.9116 8.8798-1.4401 3.8305-3.2867-1.7788-2.9999-1.44-6.2404-0.60674-2.9267 0.091-6.0128 1.92-8.6406-2.5543-1.0711 3.1042-4.8248 1.2-6.2404 1.0063-1.6434 3.9073-1.8568 3.1199-3.6002 0.46665-0.98362 4.7103-4.3169 4.0799-2.1602-0.68891-2.6637 3.5773-1.0117 3.3599-3.6002 0.55582 1.4155 2.0658 2.6342 0.23999 4.0803 0.0646 3.2121 0.66426 2.7454 0 5.0404-0.13426 0.34337 2.5896 2.0021 0.71999 2.8802 1.2796 2.2044 3.4041 1.7066 1.68 3.6002-1.3797 1.7607-1.9352 6.2148-0.95998 3.8403 1.3419-0.57036 4.393-1.0343 3.1199-4.8003 2.7028 0.06919-2e-3 7.6227 0.95997 9.1206-7e-3 2.1823-0.25104 5.4158-2.16 2.8802-1.3151 2.5667-2.2239 4.0785 1.68 5.0404 4.3193-0.83428 5.2545 3.0325 7.6798 4.5603 1.3286 2.9168-0.42649 4.8861 2.3999 5.0404 2.4234 0.22681 2.7486 3.423 4.5599 4.0803 2.6642 2.1716 4.4572-0.68001 5.2799 3.3602 0.92885 2.4387 3.8709 9.7849 3.5999 5.0403 1.8518 3.1557 4.4609 1.2229 5.9999-0.48002 2.0277-0.96577 5.6281-1.4492 5.9999 2.1602-0.55828 1.4249 1.7857 5.3411-1.44 5.0404 0.37665 3.9382-5.2926 3.1234-2.6399 6.2404-3.4405-1.4655-5.7838 2.6197-6.9598-0.96006-2.0603-3.0837-7.8966-2.8349-9.8398-6.0004-2.202 1.2228-3.0847-2.9603-4.7999-2.6402-2.4105-3.179-4.4202 0.54564-1.0168 2.7096-1.5443 0.74684-3.5437-4.7113-4.743 0.89063 3.9596 1.7456-1.7515 7.2449-2.3999 3.1202-1.0385 0.43069-1.9769 5.0554-4.0799 1.2001 0.57369-0.0993-3.6555 4.6399-3.3599 0.72004 2.4316-0.48948-4.2101-2.1207-3.5999-0.96007-2.8702 0.88993-4.6711 0.53951-5.2799 4.0803-2.4513 0.46512-2.3191-3.1785-3.5999 0-2.6761 1.1008-0.39204 3.8623-4.5599 4.5603-4.7727-0.35469-7.1172-7.5637-11.76-7.9205-1.7545-1.9727-7.9442 0.66564-6.9598-5.7604-0.97415-2.9541 2.1619-3.8117 1.68-6.7205 2.5624 1.1977 2.084 3.6611 5.0399 1.4401-0.76642-2.2141-1.881-6.3605-1.2-7.6805 2.24-0.0394 5.3784-2.8557 5.7599-4.8003-1.0321-1.5051-2.2902-3.1966-1.2-6.0004-1.017-0.23388-1.1108-2.9549-1.2-4.0803z" />
                    </g>
                    <g name="Albacete">
                        <path
                            d="m339.82 224.32c0.4002-1.7052-0.58431-4.2407 2.3999-4.0803 2.9036-3.1882 0.47281-5.4999-2.16-7.2005 1.6989-4.5484-7.0046-3.4326-2.6399-7.6805 2.6634-2.1092-2.1398-5.6955 1.92-8.4006 2.7368-2.4828 0.0392-5.3346 4.3199-4.5603 3.0724-2.7301 6.5896 3.1338 8.6398 2.8802 1.548-2.7578 2.7649 2.6911 5.7599-0.72004 1.8546-0.50393 4.9454 0.54308 3.3599-1.9202-1.6304-3.7693 4.5005 0.93992 3.3599 0.48005 5.4085 1.5854 8.5526-1.5408 13.44-4.3203 2.1266-1.4672 1.9701 0.92762 2.4 0.48003-0.0884 1.3239 0.89018 0.83858 1.68 0.72006 0.0674 0.77358 3.703 1.6472 5.2799 1.9201 3.6258-0.92476 1.9572 6.3485-0.47999 8.8806-0.76521 2.6946 2.6963 6.3326 5.0399 6.9605 4.5848-2.5173 6.1696 1.2335 5.5199 5.7604 0.37775 2.246-0.7183 7.6789-4.6 4.1513-2.9975-6.0313-7.283 0.90021-10.28-0.071-3.2439 3.6815-2.198 7.8759-2.16 12.721-1.941 2.1277-6.8536 4.3368-6.7198 0.48004-1.3855-0.2201-3.0103-0.94787-4.3199 1.4401-3.1905 3.1221-7.519-0.0482-9.8398 4.0803-4.3609 0.98272-3.974 9.8422-9.1198 8.1606-1.7206-1.4093-5.7441-1.4835-2.4-4.0803 2.2524-2.2389 2.5515-5.3674 0.47999-7.4405 0.89529-2.4412-1.2311-3.3822-2.8799-4.3203 1.098-3.1618-1.3142-3.9688-4.3199-3.1202-0.6778-0.27417-1.0704-0.92732-1.68-1.2001z" />
                    </g>
                    <g name="Murcia">
                        <path
                            d="m394.78 218.8c2.8843 5.0217-2.4641 7.3973-1.68 11.521 5.47 1.1189 3.1202 7.1641 1.92 11.041 2.2631 4.2226 5.9676 9.1945 9.3598 10.801 0.5736 3.1143-1.5673-1.2091-1.92 1.9201-4.2977 1.7527 3.0722 7.9762 2.8799 4.5603-0.8522-0.21644-0.69441-4.0687-0.71999-4.8003 0.68966 1.7567-0.0613 1.7298 0.71999 4.8003 3.1232 2.0817-3.4928 3.5268-4.0799 3.3602-1.113 0.72559-3.8657 1.4808-3.3599 0.24001-1.3057-0.76432-0.20219-0.94891-2.16 0.24002-1.8933-1.5838-3.505 1.5187-3.1199 1.4401-1.379 0.6093-2.6146-2.8886-4.7999-0.72005-2.5582-0.63897-5.6296 2.7288-6.7198 4.5603-0.0885 1.8601-3.6901 0.97847-4.5599 3.1202-3.6958-4.4711-7.3467-1.0534-9.3598-6.4804-3.1024-3.8648-4.0346-8.5651-2.16-13.441-2.6006-0.33387-4.3221-0.62194-6.7198-1.2001-2.9016-2.0946-7.313-6.0579-2.3999-8.6406 0.70642-3.8705 4.9008-5.8154 7.4398-7.4405 4.1149 1.9824 7.0409-3.4673 8.8798-3.3602 1.6587 0.43564 1.6237 0.62322 2.4 2.6402 4.8031 0.64517 7.8514-4.4397 5.2799-8.8806 0.97807-5.6885 3.6603-6.037 7.1998-8.1606 3.7141-3.0818 4.8295 1.5953 7.6798 2.8802z" />
                    </g>
                    <g name="Avila">
                        <path
                            d="m267.34 118.47c2.6721-0.49807 4.6606-1.3758 6.9598 0.96007 1.7191 3.0108 3.222-2.8899 5.5199-0.72006-1.1045 2.9586 2.4904 3.6238 3.5999 6.9605 1.6086 0.75459 1.5552 4.0979 1.44 4.5603 0.17986 1.46 2.4607 0.70806 2.6399 3.8403 1.4924 2.141 0.73012 7.3353 4.7999 4.3203 0.43251-0.10669 4.0339-3.377 3.8399-0.48005 1.6122 2.4432-2.153 3.3325-3.5999 1.4401 0.69854 2.2918-2.1723 4.9395-0.95998 7.2005-1.26 0.92052 0.92226 2.2668-2.8799 1.6801-1.2892 1.2028-1.5508 5.7244-3.5999 2.6402-0.71198 1.0573-0.5754 4.1108-1.68 5.0403-3.0623 2.5928-3.6538-1.9978-4.0799-2.4002-1.7901 0.2474-3.653 0.11252-3.3599 1.9201-2.8573 0.95281-3.5048 4.8919-5.9999 4.0803-0.94145-4.4459-4.767 4.0862-6.2399 0.48003-4.308 1.208-5.8977-3.8951-4.0799-6.4804-2.8936 0.41391-6.2456 4.6327-8.3998 0.96006-0.73186-2.0057-5.9656-2.562-1.68-4.5603-1.8409-2.7625 2.22-5.8374 3.8399-4.8003-1.2776 2.1994 2.1492 1.6833 1.68 0.48003 2.1457-0.0828 3.6546-6.6968-0.47999-3.3602-0.62194-3.343 2.2822-0.78385 3.5999-2.6402 1.6941-0.9954 0.0604-3.1071 2.3999-3.6002 2.1597-0.88871 6.0297-4.2392 5.5199-6.7205 2.3477-2.482 0.34241-2.1676 2.16-5.5204-1.4075-1.7724-2.5563-2.2971-0.95998-5.2804z" />
                    </g>
                    <g name="Cordoba">
                        <path
                            d="m267.82 215.92c1.2994 1.7377 3.3702 1.3751 5.2799 2.1602-0.68303 3.8474 4.9956 3.5021 6.2398 5.2804 2.4215 2.6508 4.9602 2.7176 6.9598 6.0004 2.5611 1.4356 6.1446 2.0118 6.7198 3.1202 0.52184 1.6563 1.1624 4.4263 2.16 7.2005-1.9352 2.102-2.3685 2.5216-2.6399 3.8403-1.7277 1.1566-0.1707 6.4351-1.44 10.081 3.2628 0.44531 1.6692 3.9178 3.1199 5.2804-3.3198 2.5926 1.82 2.4352 1.2 4.3203 1.4034 1.0999 1.9955 2.0899 2.4 2.8802-0.0827 1.1772 4.1216 4.5607 0 3.8403-1.8049 0.98565-3.6244 1.8697-5.5199 2.8802 0.76269 2.3501-2.6361 7.4309-3.3599 4.5603-1.5852-0.92035-1.2527-4.3815-3.8399-1.9201-0.0428 0.55405-3.2766 2.7077-4.3199 1.4401-0.58931-1.6404-3.6389-2.5072-1.92-3.3602-0.73229-0.68082-1.2376-2.3414-2.16-1.6801-2.9446 1.7156-3.6935-2.8458-4.0799-3.8403-1.9794-0.76468-1.7287-2.907-2.6399-3.6002 0.41839-1.6392 0.31099-4.154-0.95998-3.6002 1.7676-5.0765-5.3115-3.9718-3.5999-1.9201-1.6523-3.5872 0.025 0.88401-2.3999-0.48003-2.8666-0.90854-6.274 5.5485-7.4398 1.6801-0.99878-1.1426-0.73174-1.0551 0-2.8802 0.54805 0.5796 2.5806 0.14908 2.8799-0.96007-0.82357-2.4581-1.054-5.2095-3.1199-6.0004-0.76875-1.264 0.42853-3.405-2.4-5.0403 0.71905-1.7502-3.8672-5.4344-2.3999-6.4804 2.3331-1.8699 0.95988-5.9492 0-7.6805-0.16463-1.7581 0.0979-5.3532 2.6399-5.0403 2.547-2.1367 3.2356-2.9673 4.3199-4.8003 2.4037 1.1574 4.6418-3.996 5.5199-2.8802 0.85285-0.9268-0.39641-3.4178 2.8799-1.6801 0.45441-0.49095 1.6766-1.0201 1.92-0.72006z" />
                    </g>
                    <g name="Ciudad_Real">
                        <path
                            d="m296.12 182.09c-0.23818 6.1744-6.8096 2.9803-9.3438 2.1562-1.7273 3.6505-0.23647-2.3404-2.4062-1.6875-0.19195 1.3944-1.7394 2.4467-3.3438 4.3125-2.7813-0.77344-0.40771 5.3143-3.8438 5.0312-0.77705 3.0684 6.4608 8.3927 0.46875 5.2812-4.3324-1.3271-4.1845 4.8073-3.3438 5.7812-2.0499 0.67219-5.5196-1.6014-2.4062 3.5938 2.2416-0.64005 3.9273 3.0863 0.71875 2.875-2.3535 0.86577-3.2793 7.2339-4.3125 6.4688 0.77398 3.044 6.1197 0.043 5.0312 4.5625 4.3136 0.95449 6.2709 3.8278 9.3438 5.2812 2.1809 1.839 5.2313 5.3672 7.9375 5.2812 1.991 2.363 0.28256-4.1166 4.3125-0.9375 3.5947 0.2847 9.9897 2.0648 12-1.2188 5.2555 0.85708 8.5646 0.7307 8.4062-0.21875 1.1495 2.1861 5.5301 0.54382 5.0312-1.9375 3.2084-0.82632 6.9704 3.5178 9.8438-0.25 2.479 6.1625 2.0136-1.7937 5.5312 0.96875 1.5111-1.1489 3.6929-1.429 4.3125-4.0625-0.88732-2.9867 0.7021-2.068 2.4062-3.625 2.733-3.0759-0.12913-5.0116-2.4062-6.7188 1.6914-4.5331-6.9981-3.4388-2.6562-7.6562 2.6615-2.1309-2.118-5.7105 1.9375-8.4062 3.225-1.5719 0.34759-6.9595-0.71875-7.2188-1.0138 2.8406-4.0772 1.2578-2.4062-0.21875-1.4227-2.6751-1.5831-2.9781-4.3125-1.9375-2.7754-1.1852-6.6934-3.1541-9.125-0.21875-0.50124 3.0365-5.5722 1.0195-6.9688 5.25-2.1516 1.3274-4.5103 0.27277-6.7188 1.6875-2.1339-1.2191-5.7355 2.0004-7.1875-1.6875 0.27123-3.4345-4.7348-0.35715-5.2812-2.1562-0.46145-0.79171 0.67102-4.6088 2.4062-4.0625 0.15644-1.9104 2.1716-5.1756-2.4062-4.0938l-0.25-0.21875zm36 47.031c-0.34344 0.46129 0.82915 0.26011 0 0zm-58.062-46.562c-3.2014 3.2909-3.1424 9.6207 1.9062 6.4688 2.2775-0.55681 2.7026-5.8021-1.9062-6.4688z" />
                    </g>
                    <g name="Huelva">
                        <path
                            d="m230.62 246.64c0.0886 1.5842 2.8683 0.57029 0.47998 2.8802 1.8678 1.7395 0.87462 4.6413-0.95997 2.4002-0.97807 0.16627-1.2296 4.5797-2.16 1.6801-2.7299 0.0424-7.5966 0.90375-7.9198 2.6402-0.93273 0.94054-1.9706 3.6809-0.24 2.6402 1.1576 0.19422 4.3904 0.41713 3.8399 3.3602 0.11937 1.8869 4.0598 5.3177 0.47999 5.7604-0.86129 1.9676 0.6817 3.6205 0 5.5204-0.43104 3.4699 0.96061 5.1576-1.44 7.6805 0.5651 4.4783 1.3983 6.0767 0.71998 9.6007-0.14061 5.69-3.252-5.966-6.3248-6.5964-3.6226-3.7821-10.523-6.5962-12.875-7.8046-3.1196-2.2578-9.0227-1.7542-12.24-0.72005-3.38 1.2576-2.7105-4.8746-2.6399-7.2005-0.63148-3.0959-0.62875-5.3361-2.4-8.4006 1.4002-1.4896 2.7388-4.7916 3.8399-7.9205 2.9869-0.81844 5.9004-6.4537 5.7599-8.8806 1.945-0.33776 4.322 0.0646 4.3199-1.9201 1.3076 0.25361 4.3921 2.6198 4.0799-1.9201 2.24-1.8205-0.30406-2.95 2.3999-4.3203 2.239 0.97146 5.4895 0.6079 3.3599 3.8403 2.1685 0.50008 2.9704 0.94066 5.5199 0.72004 2.6326 1.0918 0.32706 4.1099 3.5999 3.1202 2.5338 2.605 1.1528-3.0781 4.3199-0.72006 1.1142 1.0304 3.0729 3.9658 5.7599 3.6002 0.32768 0.28821 0.26749 0.71348 0.71999 0.96006z" />
                    </g>
                    <g name="Granada">
                        <path
                            d="m353.26 244.72c1.6257 1.8085 6.1825 5.4455 1.68 5.7604 0.42791 3.8754-0.71699 6.2495-0.71998 9.8407-2.2691 0.40345-2.315 1.6934-1.44 4.0803 0.28903 1.593-3.1225-0.038-3.5999 2.4002-4.3663 0.96947-6.06 5.3465-5.9999 8.6406 1.041 3.2876-2.9752 1.4526-3.8399 0.72005-0.0684-1.9332-3.8912-0.80283-2.8799 1.2001-0.43368 1.9227-2.349 3.7609-3.1199 5.0404-3.8152-2.3343-0.83095 2.7874-0.24 4.8003-1.3101 1.6471-3.2999 2.0099-2.6399 3.6002 2.4275 2.0008-3.4965 6.5394-3.3599 5.5204-4.026-0.95573-6.5536 2.0695-10.56 2.1601-1.572-1.3891-3.7399-2.2567-6.2398-1.4401-2.2908 0.72297-4.2043-0.29003-2.8799-2.8802-2.5892-2.9206-3.9886-2.1194-6.9598-3.8403-2.6951-0.75294-5.2537-2.2903-7.6798-4.5603-2.8308-0.27981-1.6366-5.4282-3.1199-7.4405 3.7935-0.96602 1.1091-7.9311 5.5199-6.2404 1.8168-5.7608 9.8291 2.1858 11.04-3.6002 0.2222-2.7434 2.9662-2.1042 5.9999-3.6002 2.1153-1.2141 3.7428-4.9996 6.4798-1.6801 4.2929 1.3271 5.2727-5.6161 9.1198-1.9201 2.5303 1.6447 3.2859-0.72737 5.2799 0.48003 1.6131-2.1612 3.2748-3.1278 2.4-6.0004 2.5722-2.8002 3.2298-7.9084 6.9598-8.6406 3.7371 0.5276 1.3254-6.4772 5.0399-4.0803 1.9985 0.23009 3.4335 2.0834 5.7599 1.6801z" />
                    </g>
                    <g name="Zamora">
                        <path
                            d="m256.54 79.352c0.68085 1.896 1.4115 7.3816 2.3999 3.6002-0.55615-2.8124 5.4345 0.99591 4.7999 1.2001-3.0166 1.4267 0.30151 3.8034-1.68 6.0004 2.7961 0.48848-0.92676 2.0206-2.16 3.1202 1.4236 1.3863 1.7359 3.9326 2.4 5.7604 2.0699 0.69775-0.21964 2.5035 2.16 3.3602-1.423 1.424-4.5945 2.5639-2.6399 4.3203-0.82674 3.8421 1.6335 7.8182-0.71999 9.6007 2.2478-1.1352 0.89765 4.6078-0.71998 1.6801-1.2767-2.0786-4.4205-1.7428-4.0799-1.2001-0.55259-1.4726-4.1956-2.3462-5.7599-2.6402-2.5225 1.1805-5.5704-0.94514-7.4398 0.24002 0.84443 2.1632-1.1381 3.9718-1.92 1.6801-1.2036 2.0171-1.2972-3.943-4.0799-1.2001-3.5375-0.40388-5.8431-4.2885-9.8398-3.6002-2.0774-0.16621 2.3873-2.886 1.92-3.1202-0.12924-2.052 2.6586-0.12302 2.3999-2.4002 0.63908-2.8789 3.2905-3.5853 3.5999-6.7205-2.1594-3.3943-6.598-4.7616-9.3598-3.1202-1.8212-2.2285-1.3495-4.0531-0.24-6.2404 1.2048-2.8297-1.9674-3.3315-0.23999-4.8003-0.67617-3.028-6.5154 2.5506-6.9598-2.6402-1.0453 1.5327-4.5251 2.8927-6.2399 0.48003 1.4818-2.2609-0.79936-3.0729-0.71998-4.5603 1.3511-1.2224 2.5528-4.0077 5.0399-5.5204 3.3028 1.9593 0.66511-2.7075 3.8399 0 0.88566 1.5023 6.3431 0.47414 6.9598 2.1602 3.2284-1.2335 5.9864-0.7869 8.3998 1.6801 2.5043-1.3391 6.5673 0.65293 7.9198 0.96007 2.1992-2.0518 2.3996 1.9663 4.5599 0.48003 1.0639-0.79177 3.028 1.4764 3.8399-0.48003 1.5796 1.0298 1.6471 3.542 2.8799 3.1202 0.48987 1.7425 0.78778-2.5977 1.68-1.2001z" />
                    </g>
                    <g name="Asturias">
                        <path
                            d="m213.82 19.108c1.2698-0.97758 3.3637-1.2529 4.5599-0.72005 0.83641 0.31074 3.1887 0.08576 4.3199 0.48004 3.3024-0.73931 3.6634 0.69981 7.4398 0.72005 0.87807-1.0388 4.4094 0.80382 5.2799-0.72005 1.1662-0.1509 2.3654-0.98388 3.1199 0 0.69732 0.84715 2.9618 0.93768 5.0399 0 1.7903 0.82298 2.5484-1.0739 4.7999-2.4002 1.1138-0.95671 2.1544 1.0428 2.8799 2.1602 1.0831 1.3645 2.9398 0.80009 1.68 1.4401 0.5208 0.36578 0.30893 1.0999 2.4 0.24002 2.064 0.59787 6.7116-0.15966 7.6798 1.2001 2.7114-0.73949 4.1996 4.0035 6.7198 2.1602 2.8051 1.0272 7.6438 1.3915 8.6398 1.9201 2.3615 0.71333 6.0204 2.2713 9.1198 1.9201-0.82346 1.882 0.25241 2.4932-0.47998 5.0404-2.2225-2.2001-3.3826 0.72022-5.7599 0.48003 0.93933 3.9463-4.3857 3.6202-4.5599 0.96007-2.7533-0.33408-3.1037 3.0054-5.7599 1.9201-0.22819 2.5298-1.3905 3.0694-3.1199 3.1202-1.5132 1.2271-4.3395 0.33366-5.9999 0.48004-1.0541 2.0782-3.7665 1.5612-5.2799 2.4002-2.0073-1.0053-6.081-2.6116-6.2399 1.9201-4.0163 0.18429-4.8562-1.1377-6.4798-4.3203-1.8141 1.0333-2.9046-0.97637-3.8399 1.4401-1.7602-1.3902-2.9821 1.0144-4.5599 0-1.9657-0.78402-3.7916-2.0541-4.0799 0.96007-4.2735 0.04843 0.52896 1.6736-2.16 2.6402-2.3828 1.0486-7.3642-0.69473-8.8798 1.4401-2.4406-1.1889-1.9076-4.3405-4.7999-5.2804-1.0049-2.0897-0.53267 3.0218-1.68-0.72005 1.6198-0.62117 0.912-2.7258 3.8399-2.4002 2.9078-1.076 0.36381-5.6085-0.71998-2.6402-2.9815 2.841-1.444-3.8082-3.3599-2.4002-2.1822-1.4726-0.48497-4.0825-2.6399-4.3203-0.10513-2.3488-1.229-2.4855-1.68-3.6002-0.22126-1.8004 2.7494-0.1254 3.3599-2.6402 0.92771-0.45802 0.47746-1.8921 1.2-2.8802z" />
                    </g>
                    <g name="Cadiz">
                        <path
                            d="m263.26 285.53c2.1758 2.0698 1.2811 6.2362-1.92 6.9605-1.4583-3.6002-6.9287-1.3057-3.8399 1.6801-0.20284 3.0239-1.0685 6.2443-5.2799 6.7205-0.34653 4.311-3.8222 1.8074-5.0399 3.1202 1.4435 2.9215 3.9452-0.75615 5.9999 0.24002 0.96975 2.4462 3.3901 5.0192 3.3599 8.4006 4.4404-2.1032-1.1876 7.9723-1.92 6.2404-2.3043-2.1913-2.9014 3.41-1.92 1.2001-0.61942 0.97559 0.74209 3.238-2.4 3.8403-3.917 3.5866-3.6278-1.3851-7.1998-0.96006-2.9188-0.34983-4.6449-4.3973-6.7198-5.2804-3.9577 2.082-4.5847-3.7409-6.4798-4.8003-2.0525-2.5801-3.6591-7.2595-5.5199-9.6007 1.4019-1.0374 0.89607 1.4604 2.6399 2.4002 1.5585-0.65873 2.5534-2.3746-0.47999-1.6801 1.3285-1.2133 0.28707-3.2652-1.92-4.0803-2.5082 0.95812-4.6614-4.0502-3.5999-5.2804 2.7935-1.0875 2.3598-3.6737 3.3599-6.2404 4.213-0.60067 10.156 3.879 14.16 2.4002 0.33135-4.7797 6.6804-0.78789 7.4398-4.8003 2.0358 0.96622 3.478 4.3171 4.0799 1.9201 1.5414-1.1223 2.5309-2.6737 1.44-4.3203 4.0534-1.6626 1.0097 2.7029 1.44 3.8403 1.6234 0.35808 2.9076-2.1696 4.7999-3.6002 1.0551 3.9326 2.5114 4.4119 5.5199 1.6801z" />
                    </g>
                    <g name="Navarra">
                        <path
                            d="m369.82 31.589c3.1869-1.4837 4.0302 0.9269 3.8399 1.6801 1.2845-0.57418 1.7183-2.8111 4.0799-0.72005 4.5472 0.26973 1.5366 6.2775-0.23999 7.6805 3.381 5.2115 3.1403-1.0682 5.7599-1.6801-2.9069 3.8708 3.8702 2.0243 4.3199 4.5603 1.7701-1.3858 4.8973 2.6537 7.1998 1.6801 1.4929 0.46454 6.179-0.82012 4.3199 1.2001-3.3795 1.1455-2.3864 4.5293-3.5999 6.9605-1.4492 0.16636-2.2146 2.6838-4.7999 2.8802 1.6152 3.4301-4.5753 0.33768-3.5999 3.1202-0.43408-0.47961-0.64612 3.838-2.8799 2.4002-0.53596 3.0406-1.2516 3.7441-2.6399 7.2005 1.7483 1.1292-3.4515 5.841-0.95998 8.6406-1.5413 3.3603 4.8565 3.207 1.68 6.2404-1.0531 3.915-3.8151 4.6462-7.6798 3.6002-1.6504-2.6084-4.0058-0.4381-5.9999-2.6402-3.4487-0.16143-4.4423-3.1366-1.2-6.2404 1.0906-0.09435 5.1123 1.198 3.8399-1.2001 1.1927-1.9452-4.0392-1.6-4.5599-3.1202-0.45415-1.2474-3.0469-3.1624-3.8399-4.0803-2.87-0.14168-3.5595 1.0216-3.8399-2.4002-2.4874 0.76453-4.3249-0.7509-5.5199-1.6801-1.6742 0.05368-3.113 0.44423-3.8399-2.1602 1.67-0.25573 0.39096-6.1781-0.95998-2.1601-2.8378-0.98455-0.0312-4.256 2.16-3.3602-1.3931 1.8079 4.777-0.71131 1.68-1.2001-0.77991-2.9964 2.1043-1.5477 1.44-4.5603 1.7605-2.3957-0.22353-6.046 2.4-6.2404 1.7126 1.152 4.263-1.406 4.5599-2.4002-0.45866-4.265 4.9843-3.1278 3.3599-7.6805-0.0558-2.3521 1.7138 0.4523 0.95998-1.4401 1.3659 1.5983 1.8939-1.0917 3.8399-2.6402-0.40782 0.19105 0.82142 0.08529 0.71999-0.24002z" />
                    </g>
                    <g name="Valencia">
                        <path
                            d="m384.94 156.16c-0.42428 2.685-1.483 3.8335-4.5625 2.6562 1.0233 1.9287 1.7114 6.2837 5.75 5.75 2.769 0.81209 8.6833-2.6185 3.625-4.3125-3.2102 0.44619-3.7199-1.7924-4.8125-4.0938zm7.1875 9.125c-0.86498 0.63357-5.3639 0.42424-3.8125 4.5625-1.1049 2.8437-1.4776 7.3907-3.8438 7.9062-3.0928-0.86951-5.3118 5.916-5.5312 5.5312 0.70651 1.6688-1.2358 4.6049 0.71875 5.0312 0.89692 0.85798 0.71956 1.1993 1.4375 1.9375 1.0108-0.61224 1.0103-0.18449 3.5938 1.1875 1.4613 0.0494 3.4603 0.40023 5.2812 1.1875 0.67555 3.9868-3.961 7.5423-2.625 10.812 2.0459 3.3736 5.282 5.792 8.4062 3.375 3.4731 0.83939-0.1672 7.8638 4.0625 7.1875 1.7264 3.087 4.019-0.87036 5.5312 0.96875 1.8321 2.1104 3.273 2.4197 5.5-0.25 0.74376-0.76411-4.6754-0.61221-1.4375-2.4062 3.6938 0.64744 6.1196-2.8996 8.4062-2.875 3.2833 0.85025 3.9454-0.59209 6.4688-0.46875 4.5805 1.8214-1.4193-2.3574-2.1562-4.8125-1.3832-0.66057-1.4535-8.3625-2.625-7.6875-3.0726-6.1383-5.269-10.313-1.9375-15.844 1.6013-2.4935 3.6824-5.9872-0.21875-6.9375-2.0602-3.966-4.3699 0.05-5.7812 1.9062-1.3554-1.5876-3.1113-5.4917-4.0625-0.96875-2.7317-1.5399-2.5669-5.1192-4.8125-3.5938-1.261-4.2522-5.8281 2.2017-5.2812-2.625 0.5027-3.1502-2.1824-3.0583-5.2812-3.125zm24 20.406c-0.17714 0.66228 1.295 0.71008 0 0z" />
                    </g>
                    <g name="Madrid">
                        <path
                            d="m315.34 118c-4.2951 1.8206-5.9507 7.0136-10.562 8.1562-2.7317 2.3446-0.63033 8.81-5.5312 6.9688-1.4593 2.1718-3.5496 5.334-3.125 6.9375-4.4298-0.0754-2.3562-0.92006-4.5312 2.6562-0.58593 3.1363 1.0203 6.2618-3.125 5.75-0.89453 1.5203-1.5587 5.2227-3.5938 2.4062 0.60566 1.7869-2.4862 5.1235-0.5 5.75 2.8485-0.34558 4.2336-3.5059 6-4.3125-0.53462 5.2679 3.1078 2.7384 4.3125 1.6875 1.1375-2.8536 2.4072 2.938 4.5625 0.46875 1.5628 0.66283 3.3035 3.1983 4.3438 2.4062 2.4587 1.1958 3.6243 1.2585 5.75 2.6562 2.0491-1.107 5.1608 1.8378 3.5938 2.875-0.41637 1.5845-4.8285 2.8263-3.125 4.0625-2.0706 0.16307-0.53171 0.56886-2.875 0.5-1.0393 1.0536-3.3684 1.3123 0.25 2.625 2.6157-3.1015 5.657-3.0666 7.1875-5.2812 2.4283-0.12549 2.4864-2.0806 4.5625-0.71875 1.4019 0.88343 2.189-3.6368 4.3125-0.46875 1.836 0.42057 3.5117-2.9577 4.8125-0.5 5.1885-0.17469-0.0531-3.8707 2.1562-4.0625-0.54523-2.3373-1.057-6.7519-3.5938-3.375-0.67695-2.4629 3.3318-6.7292 0.21875-7.9062-0.97365-1.2201-1.053-5.0946-3.5938-3.8438 0.1733-1.894-1.5111-4.1593-1.6562-4.0938-0.90953-3.6089-2.6768 0.0996-3.375-2.625 1.6565-0.23788-1.4651-7.64-1.1875-3.8438 1.1581-2.1864 1.4903-3.9515 1.6562-5.0312 1.7534-2.3408 0.55882-4.2254 0.5-6-1.7089-0.64632-2.6171-2.8135-3.8438-3.8438zm-22.812 19.438c-3.5794 2.1028 3.8859 0.94813 0 0zm28.312 1.6875c0.938 0.61345-0.93503 1.3024 0 0z" />
                    </g>
                    <g name="Almeria">
                        <path
                            d="m376.54 270.89c-3.4044 2.7602-6.0854 6.6424-6.9598 10.801-0.90884 3.5331-1.4595 5.415-2.16 6.9605-2.3179 0.82662-2.7283 2.5897-3.1199 4.0803-2.3602 1.2461-1.091 2.655-3.3599 3.6002-2.6978 4.5801-5.9934-7.5168-10.08-2.4002-1.699-1.9937-2.5514-1.0938-5.3021 1.1135-0.37757 4.2185-6.3868 4.9946-7.1776 2.9668-2.5737-0.55374-5.1128-2.1326-8.1598-1.4401-6.9553-0.61871 4.2894-3.7521 0-6.0004-0.15479-1.6047 2.2782-1.6322 2.8799-4.0803-1.3026-1.5113-3.1284-6.522 0.24-4.0803 1.2427-1.5602 3.4738-4.5863 3.3599-6.4804 2.1866-2.7961 2.8182 2.2077 4.5599 0.96007 3.3248 2.413 1.0908-3.5982 2.6399-4.5603 0.15996-3.8086 5.7517-6.6652 7.6798-6.9605 3.7806-0.11088-2.4832-5.9119 2.6399-4.3203-0.2377-3.7435 1.2255-6.4989 0.71998-10.561 2.484-1.0961 4.5239-1.1679 6.2399 0.24 1.7232-0.28735 5.207-0.6066 3.1199 2.8802-1.4383 5.8794 2.4334 10.501 6.2399 14.881 0.6828-2.2957 4.9033 1.3504 5.9999 2.4002z" />
                    </g>
                    <g name="Salamanca">
                        <path
                            d="m262.3 116.31c2.6479-0.90106 2.0087 1.4841 4.3199 1.4401 1.5712 1.3518-1.5903 4.9174 1.44 5.2804-0.29205 3.2087-0.89064 3.3579-0.71998 4.8003-2.1339 1.5768-0.85988 5.1397-4.5599 6.7205-2.013 1.8095-4.2283 1.7039-3.8399 4.5603-1.1406 1.1301-3.4935 1.7116-4.0799 1.2001-2.5174 3.8564 4.2214-0.94782 2.16 2.4002-0.16038 3.0079-2.2948 2.2923-2.6399 4.3203-2.3576-1.1396-0.18426-3.5347-3.5999-1.4401-2.6407 1.8072-0.24038 5.169-4.0799 6.9605-1.1153-2.5291-0.84461-3.4446-3.5999-2.1601-1.2989 4.3519-3.983-0.49819-5.5199-0.96006-1.6364-1.1263 1.0257-2.1135-1.68-3.3602-0.54283-0.71597-3.4486-3.8212-5.2799-1.2001-2.886 1.998-4.9398 2.9385-8.3998 4.8003 0.73607 2.7996-4.0924 2.8997-4.7999 2.6402-1.1976-0.0872-4.6984 1.8785-4.5599-1.9201 3.8894-1.365 1.6129-3.1498 0.71998-6.2404 2.4074-2.4396 1.3162-3.7226 0.47999-5.5204 2.8063-3.2402-0.33919-7.1088 0.95998-10.081 1.6549-0.68595-1.242-3.8068-2.16-6.0004-2.6591-3.0528 4.5385-0.47969 4.5599-4.3203 0.0151-2.6272 2.6753-3.5979 3.5999-5.7604 2.485 0.43852 2.874-0.32728 5.2799-0.96007 0.0144-1.1632 4.8303 0.27719 6.4798 1.2001 1.7562 2.027 4.5676 2.6889 6.2398 1.6801 1.8354 2.457 1.3212 1.1661 3.1199 3.1202 1.765-0.61171 0.20202-5.3486 3.5999-3.1202 3.3864-0.35982 5.8841-0.16109 8.3998 0.48003 3.1077 1.4396 1.2 3.8375 4.3199 1.2001 0.52372 2.2874 4.5563 4.7256 3.8399 0.24002z" />
                    </g>
                    <g name="Malaga">
                        <path
                            d="m289.42 278.57c2.1424 2.0957 0.37014 6.9361 3.3599 7.2005 2.7541 2.3488 5.7925 4.5989 8.8798 4.8003 1.7889 2.0064 5.4469 0.95928 5.5199 4.5603 0.19291 2.5854-3.852 0.17415-6.2399 1.9201-3.9893-1.9218-8.0805 1.9504-12.96 0.24001-2.9221-0.34888-1.6139 0.86849-4.3199 4.0803-1.8476 1.9228-4.3912 1.9686-5.0399 4.3203-3.5187 2.0262-8.7515-1.9562-12.24 1.6801-3.8132-0.0735-6.9596 3.8193-7.9198 5.2804-3.2302 0.51347-2.0005-5.3878-4.7999-6.9605-0.17697-3.3822-3.1879-0.53589-4.7999-0.48003-3.1231-0.70652-0.47176-2.8686 1.2-1.2001 1.8421-3.0206 4.1246-3.5387 6.7198-5.5204-0.1724-1.6156 1.4381-4.4826-0.23999-6.2404 1.7753-5.4422 5.295 3.8143 7.1998-1.6801 1.9584-1.5447-0.8137-4.4919 0-6.2404 2.2876 0.73031 4.6983-2.1553 6.9598-3.3602-1.7151-2.6123-0.36154-2.7397 0.71998-1.9201 1.1646-0.88106 1.8084-2.5601 2.8799 0.48003 2.3742-1.0464 2.9225-2.4707 2.16-3.8403 1.8568-0.49408 4.2112-0.32409 4.5599 1.6801 3.8072 0.0573 2.7785-2.1841 5.7599-2.6402 1.4571-0.16976 0.89808 3.0706 2.6399 3.3602-0.79598 0.52288 0.32973-0.0566 0 0.48004z" />
                    </g>
                    <g name="Segovia">
                        <path
                            d="m315.82 101.43c0.58006 2.8974 4.0653 1.252 4.3199 4.0803 2.5586 0.21262 1.6709 1.5244 1.68 3.3602 2.059 1.8187 5.4661 3.673 2.6399 5.0404-0.68018 0.37358-4.5687 0.57709-4.5599 0.24001 0.0499 3.3034-3.4506 3.4733-6.2399 4.5603-2.7334 2.6326-5.0479 6.2647-8.8798 7.4405-2.7288 2.3318-0.65569 8.858-5.5199 6.9605-0.90871 3.126-3.3327 4.2092-6.7198 4.3203-1.8669 3.3647-5.3535 1.124-4.3199-2.8802-2.078-1.3394-0.84553-4.4045-3.3599-3.3602 0.56374-1.4147-0.31049-3.0648-0.71999-5.2804-1.1993-1.8926-4.058-3.9493-4.3199-5.2804-1.2525-2.1964 2.9947-6.069 2.6399-3.8403-2.0712-2.0917 3.8589-3.1496 0.95998-5.0403 1.3354-0.62584 5.858 1.7578 3.1199-1.2001-0.0985-2.1628-0.6527-3.0618 1.92-3.3602 3.8097-1.6306 8.4862-0.87538 13.2-3.6002 0.50103 0.43566 0.67174-4.7386 3.1199-1.4401 1.3042 1.3407 4.0609 4.9017 3.1199 1.2001 1.55-1.6736 1.0466 5.719 2.16 1.6801 0.43757-3.4524 4.428-3.5646 5.7599-3.6003z" />
                    </g>
                    <g name="Valladolid">
                        <path
                            d="m269.03 70.938c-1.6295 3.3957-4.9861-0.11014-3.8438 3.125-0.63807 0.97794-2.1293 1.2656-3.375 0.5-2.4776-0.52884-0.38273 4.6331-1.1875 5.75 0.46542 2.399 4.0987 4.0112 1.6875 5.5312 1.8748 2.1796-1.9934 4.6572 1.1875 5.0312-3.7586 1.7164-3.6941 3.2475-1.9062 5.2812-0.4511 4.5853 3.0035 0.89416 1.4375 4.0625-0.40567 1.3827 3.4405 2.8702-0.5 3.375-2.3888 1.8006-0.36974 2.9567-0.9375 6.4688 1.4533 2.8368 0.436 4.7621-0.5 6.25 1.3788 0.17659 3.376-1.2599 3.5938 1.1875 1.5961-0.63709 4.0455 2.3044 6.9688 0 1.8994 1.7705 4.7187 4.3983 6.25 0.75 1.6471-0.50309 5.6452-0.61189 4.0625-2.1875 0.74688-2.0232 3.1243-2.6518 1.6875-4.7812 1.9506 0.73841 5.3091 1.7757 2.875-0.96875-0.30538-2.0627-0.3922-2.8429 2.1562-3.125 3.2027-1.4169 9.1847-1.4936 12.969-3.3438 2.532-3.1293-1.3398-3.5508-0.46875-6.5-2.1649-2.1282 0.56932-4.2056-2.1562-4.0625-1.1425-2.1578-5.2244-1.7043-6.5 0.21875-2.1371-1.8822-6.9016 1.8353-5.0312-2.1562 1.513-1.1436-2.533-0.70279-2.625 0.25-1.5586-2.9753-3.605-5.1879-5.7812-0.71875-2.3634 0.73103-1.8264-6.2028-5.0312-3.8438-1.9204 0.24052-2.462-1.0291-1.1875-3.125 1.3017-2.1951 2.5706-3.7825 0.9375-6.4688-3.4496 1.3606-2.1029-2.6478-1.6875-5.5312-1.5764 1.9688-2.7232 0.18608-3.0938-0.96875zm32.625 28.812c0.46129 0.34344 0.26011-0.82915 0 0zm-39.594-27.344c-1.1967 3.2486 3.0825-0.15288 0 0zm-5.5312 6.9375c0.71107 1.8734 1.3883 7.411 2.4062 3.5938 3.9676 2.9169-1.5515-1.7746-2.4062-3.5938z" />
                    </g>
                    <g name="Guadalajara">
                        <path
                            d="m325.9 112.47c3.6436 1.4749 7.0654 0.97909 9.8398-0.96007 0.50377 2.5628 2.9808 3.6472 5.2799 2.1602 0.89856 2.8204 5.2576 1.1506 2.8799 3.6002 1.2299 2.1001 3.1428 0.64306 4.5599 3.8402 1.3447 1.7079 3.5514 0.19889 5.5199 0.72006 2.2908-0.37876 5.0524-2.7693 6.9598 0-1.1231-1.912 2.632-6.2194 3.8399-2.8802 3.8418 1.0401 7.7248 5.3056 10.08 8.8806-0.47147 2.9761 3.9865 4.2431 1.68 7.9206 1.854 2.779-0.41925 7.9954-3.5999 5.2804 0.41331 3.2239-2.6706 6.0089-3.8399 7.6805-3.1016-2.1486-1.4231-4.8935-4.3199-7.9205-0.81271 0.61996-3.6148-0.29223-5.0399-2.1602-1.6724 1.5698-5.8456-0.30285-5.5199 2.4002-0.60657 3.4001-4.4801-3.3011-3.3599 1.2001 1.0325 1.7692-2.2365 1.6982-3.5999 1.9201-2.4331-2.5424 1.6014 5.4829-0.95998 3.3602-2.2632-0.62729-5.4207-0.93476-4.5599 1.6801-2.1977-0.38935-0.59307-2.7707-2.8799-1.6801-2.1003 2.0358 0.7274 6.5339-1.44 9.3606-1.4001 3.7521-6.5776 0.54278-5.5199 0.24002 0.69369 3.0069-3.3398 1.5613-2.16-1.2001-0.22767-4.2581-2.2173-0.25317-3.5999-0.72004 0.86506-3.4977 3.6846-7.1919 0-8.1606 1.454-3.7281-2.4438-5.5477-2.6399-4.3203-1.441-0.9906-0.94835-4.2193-1.68-3.6002-0.87258-1.0706-3.4286-1.5907-2.6399-1.6801-1.8785 1.0769-0.0839-2.5889-0.47999-3.1202-2.9686-1.2842-0.79481-1.8774-0.95997-4.0803 1.6567-1.6987 0.16219-1.7497 1.68-4.5603 0.95574-1.357-2.1013-5.2726-1.2-4.5603-2.6756-1.5272-2.6128-3.6862 0-4.0803 2.9604-0.76813 0.28375-4.3574 3.1199-2.6402 2.5743-0.25205 2.7401-0.025 4.5599-1.9201z" />
                    </g>
                    <g name="Orense">
                        <path
                            d="m218.62 71.671c0.49194 2.3637-2.0179-0.06386-3.1199 1.9201-2.7026 2.165-2.8662 3.4421-4.5599 5.2804 4.3904 1.0549-0.63427 7.4094-2.8799 3.1202-3.7767-0.396 0.10155 4.6192-5.0399 5.0404-1.7226-0.15421-4.6096 1.2541-4.3199 1.2001-0.49878-2.2284-2.7466-2.6873-3.8399-0.72005-4.1778 0.5394 1.2814-3.1278-3.1199-2.1602-2.5559-3.6665-8.5046 4.2906-6.9598-2.1601-0.80655 1.8193-3.3515 2.1374-4.7999 3.8403-2.087 0.95248-3.8262 0.24636-4.0799-2.4002-2.5965-0.74899 1.4567-5.2651 3.3599-6.0004 1e-3 -3.576-4.9876-0.56518-2.8799-4.8003 0.54262-0.98417 0.28443-3.1204 0.71998-4.0803-4.2689 1.1994-1.7723-3.5168-4.3199-4.5603 0.74197-3.2348-2.1166-5.977 1.44-6.2404 2.2437-2.2744 4.8222-2.3543 7.9198-0.96006 0.83681-2.6676 6.1532 0.09172 2.8799 0.96006 0.87512 0.96964 3.7746 1.3805 5.2799 2.1602-3.3779 0.25994 3.1846 1.6774 3.5999 3.8403 2.0441-0.04624 5.3334-0.28285 7.1998-1.4401 2.3218-0.16376 5.1269 2.0926 5.2799 4.3203 0.91298-2.828 2.68-5.4374 5.0399-6.9605 2.1519 1.3517 3.4202-1.2335 5.9999 1.2001 2.1775 0.87002-1.7097 4.2855 1.92 4.8003 1.966 0.25229 0.55842 4.3672-0.71999 4.8003z" />
                    </g>
                    <g name="Palencia">
                        <path
                            d="m288.94 41.188c-2.8602 2.881-8.4562-0.86249-10.312 3.8438-0.41994 3.2615-3.397 3.4619-2.875 6.9688-2.6052 2.4292 2.1023 2.1446 0 6-0.70289 3.2005 0.19519 6.2081-0.5 8.4062 0.47095 3.0025-2.3685 0.78197-2.375 3.5938 3.5564 0.57062-2.5414 1.938-0.96875 4.3125-1.0747 2.7896-0.11487 3.5669 2.4062 3.5938 0.93684 3.1822-0.72009 5.1098-2.1875 7.4375-0.44923 3.8039 4.2462-1.1126 5.0625 3.375 0.49512 6.2385 5.4105-4.2517 6 0.96875 1.9725 3.5804 2.8847-0.33951 5.0312 1.4375-3.3677 1.069 0.95709 3.5917 2.1562 1.6562 3.2818 1.8706 3.8772-2.4557 7.2188-0.46875 1.3604 0.61835 5.2658 2.0573 1.6562-1.4375 0.12616-2.444 4.2841-2.0382 4.8125-5.0312 3.5132-1.3973-0.86195-1.2907-2.875 0.21875 1.0375-2.183 2.8368-5.0272-0.71875-3.5938-3.5031-0.55078 1.8017-2.3842-1.4375-3.125-1.1381-0.59364-4.0137 0.19276-2.4062-2.625-2.721-2.7234-1.3411-6.5899-3.125-8.4062-2.8289-0.0055 0.24423-3.8674 1.4375-2.875 0.0489-2.1466-1.5809-3.314-1.4375-4.3125 1.0687-0.73886 0.30312-1.7523 0.96875-3.625-2.0242-2.3544 2.4318-1.2178 3.5938-3.8438 1.8048 1.8636 3.0633-1.9849 0-1.4375-2.5235-1.9034 2.2763-1.7476 0-3.3438-3.6301 3.7317-0.87463-5.3671-4.8125-4.0938-2.2906-0.02317-1.7212-3.4425-4.3125-3.5938zm13.188 9.375c-1.2423 1.4262-0.72944 4.1988 0.5 1.6562-0.14166-0.51056 0.43097-1.7684-0.5-1.6562zm-7.4375 3.5938c1.402 0.18524-0.39787 1.0521 0 0zm5.2812 23.281c-2.8421 0.50284 0.87927 2.0223 0.25 0.25zm0.25 1.1875c-0.12906 0.7678 0.7678-0.12906 0 0zm0.96875 1.2188c-0.24208 0.56047 0.59415 0.7614 0 0zm0.21875 0.71875c-0.74658 0.90257 0.19225 0.33065 0 0z" />
                    </g>
                    <g name="Gerona">
                        <path
                            d="m510.22 58.719c-1.9315 1.3674-3.6675 0.84124-5.0312 3.125-2.7882-0.99401-3.8904 1.548-3.125 3.0938-2.8019-0.8934-5.6338 1.7423-7.2188-1.6562-3.1266-0.91192-5.9048-1.7902-7.4375-0.5-2.2878 0.07034-4.0154 5.1691-6.4688 1.6875-0.24341-3.4752-2.9572-2.4592-5.2812-3.8438-3.6446-1.1006-1.5345 3.189 0.46875 2.6562-0.51468 3.1236 2.6307 0.60849 0.96875 3.8438 1.8896 0.80516 5.0258-0.34027 7.1875 1.1875-3.2955 2.3972 1.7416 2.828-0.9375 5.0312-3.0365 0.01665 2.8428 0.90816 2.4062 1.2188 1.1879 0.11378 3.1657-1.3181 3.3438-0.71875 2.8628-0.87022 2.0575 2.301 4.5625 0.46875 1.3759 1.7959 1.7939 2.37 3.8438 1.9062 0.53774 1.6253 0.63587 3.6736-0.96875 4.0938-0.96551 0.7538 2.7784 2.7956-0.46875 3.125-1.9634 1.2373-3.8102-0.13654-2.1562 3.3438 2.555 0.42416 4.6387 0.77298 6.2188 3.625 3.6803-1.2495 3.6878-2.0476 6.9688-0.96875-1.2715 5.1184 1.8784 0.57063 4.3125 0.46875 1.4983-2.0517 3.6338-2.8275 4.3438-4.0625 1.2159-2.597 3.9892-2.7802 4.0625-5.0625 1.1889-1.5135-1.0033-2.2669-0.71875-5.5 0.30075-2.1079-2.1367-1.9128-2.875-3.375-1.1536-4.3281 1.1776-5.3647 3.125-4.0625 0.78342 9e-3 1.4472-0.95548 1.4375-1.9375 0.98467-1.108 0.84206-2.044-1.2188-2.1562-0.67733-0.43641-2.9701 0.49957-2.625-1.9062-0.3993-0.96886 0.82182-2.4991-1.9375-1.6875-1.2071 0.34852-2.6138-1.9392-4.7812-1.4375zm-27.844 14.156c-1.2757-1.9343-0.11034-0.36216 0 0zm-1.1875-12.969c-1.8297 2.7055 2.84 2.9002 0 0z" />
                    </g>
                    <g name="Barcelona">
                        <path
                            d="m477.58 67.831c2.0781-1.048 5.2932-0.32574 6.4798 0.48003-2.1304 2.3832-0.0239 1.862 0.24 4.3203-1.9747 1.9194-2.3212-2.0906-2.6399 0 0.90777 0.80023 2.1739 1.9921 4.0799 1.4401-0.0515 1.4284 3.8082 0.09344 3.3599-0.24002 2.8707-0.85803 2.0359 2.3166 4.5599 0.48004 1.3689 1.794 1.7868 2.3607 3.8399 1.9201 0.84653 2.0786 0.29191 3.1175-0.71998 4.3203-1.8151-0.04357 2.6944 2.4408-0.47999 2.8802-2.3038 0.90471-4.252 0.29913-1.92 3.6002 2.3827-0.13578 4.2437 0.94488 5.7599 3.3602 3.6622-1.2296 3.6805-2.0105 6.9598-0.96007 1.7459 3.6123-4.8116 5.7657-6.2398 6.4804-3.7042 2.7279-6.5648 3.9861-9.3598 6.7205-1.3176 2.0539-1.7889 1.2337-1.68 2.4002-0.50086 0.90527 0.11156 0.85411-1.92 3.6002-4.7328 1.3406-9.1141 2.698-11.28 3.6002 0.24435 0.16278-3.3628 0.64501-3.1199-0.24002-2.5524-1.0168-1.3565-1.1998-0.24-1.6801 0.42883-2.1548-1.3111-0.11204-2.16-3.1202 1.112-2.5242-4.0064-0.6167-2.3999-3.1202 0.36351-1.4626-0.91095-2.8081-2.8799-3.6002 2.1283-1.372 1.1226-2.5295 0-2.8802-2.5356-1.3665 1.1116-3.2169 0.95998-2.4002-1.2559-1.9752-1.5869-2.3546-0.95998-3.8403-1.0379-2.9618 1.8006-2.3908 2.16-1.4401-0.23441-1.3168 1.709 1.4306 2.8799-0.24002 0.32211-1.3371 2.7798-4.936-0.71999-4.0803 2.0169-1.1062 2.1619-2.9336 2.8799-4.5603 1.3068 2.2367 1.5464-2.8914 0.71998 0-2.1125-0.86905-1.2356-0.80774 0-1.6801-1.0548-0.78812-0.67232-1.7546 0.71998-2.8802-2.5646-0.95733 2.3429-4.0004-1.2-4.0803 0.34525-1.0074-0.79632-3.4241-0.23999-3.3602 0.9327-0.07877 3.21-0.75266 4.5599-1.2001zm-3.1199 17.041c0.93346 0.69544 0.21712-0.73908 0 0zm8.6398-9.3606c1.649-1.3613-1.3401-0.82858 0 0zm-9.5998 32.882c-0.85333 0 0.8533 0 0 0z" />
                    </g>
                    <g name="La_Coruna">
                        <path
                            d="m195.09 8.3125c-1.4005 1.9704-4.7312 2.221-4.3125 3.3438-1.7901-0.63618 0.41005 2.5143-2.4062 0.96875 1.571-0.0313 0.36059-1.9966 1.6875-1.9062 0.0596-2.7284-1.7386-1.9254-2.875-0.5-2.3973 0.48561-4.7194 1.2582-3.375 2.6562-0.36055 0.23565-1.5955-0.11931-3.3438 1.6875-0.64428-0.96888-2.6745 3.3146-4.5625 1.6562 1.2253 1.3865-1.1315 2.8631-0.71875 4.0938 1.6765 0.24223 2.7704-1.6009 3.125-0.5 1.3295 0.38421 3.2066-2.892 1.4374 0.5-2.926-0.03557-5.2069 0.49397-1.9375 1.6875 3.3514 0.01828 0.5496 0.15345 0.71875 2.375 0.49421 2.3767-0.77984 0.52379-1.9062-0.9375-2.8364-2.7363-1.2813 3.8755-3.5938 0.71875 0.83251-1.5273-0.46997-0.71429-1.6875-0.25-2.0992 2.5667-4.7228 1.235-7.9062 2.4062-2.0582 0.49698-3.3448-3.8408-4.0938-1.2188-1.7201-0.5719-1.5432 1.5608-3.8438 1.2188 2.554 1.5241-0.11633 3.1862-0.96875 1.9062-0.35682 2.0034-2.8537 1.5368-4.0625 1.4375-2.189 0.1537-2.0752 3.7517-0.5 1.6875 0.0544 2.9377-1.7404 1.1999-2.375 1.9375-1.5847 1.3473-1.5105 2.7444-0.96875 4.7812-2.016 1.555-0.94802 5.1442 0.46875 1.9375 0.78379-0.10265 1.6436 0.55755 1.6875-0.71875 1.7336 2.1874 0.48202 2.2548 1.1875 4.3125 2.1922 1.0727-2.0098 1.4796 0 3.125 2.2774 2.7707 1.3076-1.6675 3.375-0.96875 1.3611 1.5653 2.3836 0.09629 3.5938-0.71875 0.34363 2.3835-4.9919 2.5946-4.7812 6.9688-2.0262 2.5464-1.2691 2.1599-0.25 4.0625-0.29713 2.7717 2.4873-2.1446 3.3438-1.6875 0.0904-2.2659 1.7329-1.9927 2.1875-0.71875 0.75114-0.75985 0.0124-3.634 1.4375-1.9062 1.0632 3.008 3.8346-4.1983 6-1.9062 2.0193-2.7684 3.4973-0.38852 6.4688-1.2188 0.32225-1.2525 3.1364-1.4849 2.4062-3.125 0.57286-0.0069 1.5828 1.4058 2.875 0.25 0.74025 0.45322 1.5724-1.3949 3.3438-0.25 1.688 0.37778 3.7593 0.85644 5.0625-1.4375 2.4832-2.0306 0.95555-6.592 1.1875-8.875-0.62492-3.6422-0.27863-6.5937 1.6875-8.875-0.56793-3.5989 1.6324-2.0211 2.625-3.8438 2.8206-1.4807 1.2517-5.6738 3.125-6.25-0.80058-1.67 1.253-2.5454 0.71875-3.8438-0.47893-1.5044 1.7944-3.3775 0.71875-4.0625zm-38.406 45.125c-0.40363-0.30051-0.2276 0.7255 0 0zm-4.0625 3.3438c-0.23605 0.37068 0.86164 0.9427 0 0zm-6.7188-21.594c0.28993-1.7148-0.74929 0.09914 0 0zm2.625-4.3125c0.82915-0.26011-0.34344-0.46129 0 0zm21.844-6.5c0.90299-0.58475-0.80545 0.07175 0 0zm7.9375-4.5625c-0.68689-0.28452 0.28452 0.68689 0 0zm4.5625-7.1875c0.75658-0.27526-0.34331-0.43934 0 0z" />
                    </g>
                    <g name="Alicante">
                        <path
                            d="m427.42 209.44c3.6226 0.20986 3.182 0.86308 5.9999 2.4002-1.376 1.023 3.2398 2.9552 0 2.8802-0.80252 1.307-3.8973 2.6978-3.8399 3.8403-3.2086-0.69199-3.7233 2.4335-5.2799 4.8003-2.6469-0.87527-6.8612 2.0803-9.1198 4.0803 0.52857 2.9934-2.948 2.5119-2.8799 3.3602-2.1667 0.24438 1.0947 6.5074-2.4 6.4804-3.9529-0.59273-1.2305 9.5456-3.8399 8.8806-0.59761 1.1043-1.8762 3.8396-2.6399 5.0404-4.2749-1.6983-7.1984-7.1911-8.6398-11.521 4.95-4.3831-0.40017-8.0698-1.68-10.801 1.1219-2.2966 3.081-7.3749 2.16-10.081 5.3435 0.72638-0.71474-6.9768 3.8399-4.8003 2.6004 2.9681 4.6169-0.81568 6.2399 0.96007 1.8051 2.1248 3.3225 2.4055 5.5199-0.24001 0.69689-0.77252-4.691-0.62061-1.44-2.4002 3.6523 0.63887 6.1564-2.9316 8.3998-2.8802 3.2724 0.84396 3.9684-0.57768 6.4798-0.48004 2.4391 1.4687 0.61261-0.82986 3.1199 0.48004z" />
                    </g>
                    <g name="Castellon">
                        <path
                            d="m440.62 141.76c-1.0593 2.9691-1.141 2.3912-2.3999 4.5603-1.9342 5.9046-5.7841 7.3254-8.3998 13.201-0.099 0.8294-4.4454 3.9235-3.8399 5.0403 0.0186 2.7834-2.9423 4.4254-3.9583 6.7173-0.97678 4.4761-4.6221 3.6702-6.1214 0.72321-3.4029-0.77255-3.3443 6.0389-5.7599 1.9201-0.81862-4.6287-4.4317 4.2489-4.5599-1.4401-0.89387-4.6194-2.9571 1.7478-4.7999-3.3602-2.4268-2.1097-1.5653-4.288 0.95998-5.2804-0.22465-2.3025 5.9698-1.2837 4.0799-3.8403 2.6924-0.74865 0.78629-7.0669 4.0799-5.2804 2.7888 0.0917 4.0602-3.9955 3.5999-3.3602 0.0872 0.55959 2.2491-2.5904 2.8799-2.6402-3.4093-2.897-1.2726-3.1334-0.23999-4.5603-1.179-0.92775 0.39465-4.1073-1.2-5.0404-2.9083 1.0146-2.3316-4.4524 0.47999-2.1601 2.766-0.28587 1.6329-6.9913 4.7999-4.3203 1.1606 2.5189 5.038 0.64387 5.5199 2.8802 2.272-2.115 5.6451-1.9672 6.4798-0.72005 1.6363 1.4944-0.13547 4.3506 4.3199 3.8402 2.4909 0.4946 0.46135 3.0658 4.0799 3.1202z" />
                    </g>
                    <g name="Tarragona">
                        <path
                            d="m436.06 111.51c1.2306-1.5193 1.4817-3.142 3.5999-0.72005 1.5106-3.0008 2.8878 1.6602 4.7999-0.96006 1.4782-0.27935 4.0807-1.2479 4.7999-1.9202 3.9516 1.2507 5.1461-2.9898 6.7198-4.8003-3.2803-2.7183 4.812 1.8964 2.8799-2.8802-0.12837-1.3831 4.6742-2.2363 6.9598-1.6801 0.62788-2.0628 2.6988 1.3359 0 1.4401 0.90699 1.8027 3.9612 1.8447 2.6399 4.0803-0.49425 2.2354 1.8922 0.71963 3.1199 2.6402-0.90743 2.7372 2.3894 2.1509 1.68 3.1202-0.25032 1.6806-2.8476 0.42922 0 2.1601 3.1526 0.6289-4.7058 2.1131-6.4798 3.6002-2.0781 0.82319-6.0162 1.8289-5.0399 1.9201-0.64611-1.0582-1.6071 3.1281-3.5999 1.2001-6.4647 1.653-8.5041 8.3267-11.52 11.041-2.0752 2.5037 4.3557 1.9838 0.23999 1.2001 1.5929-1.021 3.9196 3.6165 4.7999 2.4002-2.2973 1.9098-5.7028 8.4621-8.6398 6.2404 1.2471-0.51487 3.5687-0.17511 4.5599-2.6402-0.99344-0.34141-5.0542 0.97031-5.0399 1.4401-0.65433 3.3868-4.6172 3.757-4.7999 1.2001-1.0243-1.7639-6.8838-0.61731-4.3199-4.0803-1.7217-1.2383-2.9454-1.2815-3.8399-2.4002 1.434-0.0421 4.0753-2.9937 2.3999-5.0404-0.4521-1.5263 1.7276-4.5308 0.24-6.0004-0.39664-0.68256-1.7208-0.62185-1.68-2.6402-1.9744-2.6868 3.6206-1.6935 2.8799-5.5204 2.2556-0.0426 1.0119-1.3595 2.6399-2.4002z" />
                    </g>
                    <g name="La_Rioja">
                        <path
                            d="m334.78 83.432c0.51422-4.3328-3.8734-1.1736-5.0399-4.5603-2.1105-2.4472 0.37336-3.6592-0.47999-6.9605-0.18517-1.9098 1.3864-2.0691 0-4.3203 1.4298 2.0002 1.1826 1.5265 1.44-1.6801-1.8761-1.4054 0.0345-3.4668-2.16-3.6002 3.5779-0.83889-0.58399-4.9683 3.1199-3.6002 1.6131-0.62668 3.8382 0.88866 5.2799 0.24002 1.3284 0.8445-0.61805 4.0871 1.92 1.9201 1.9553-5.2248 2.172 0.06823 3.1199 2.1602 0.39044 2.051 2.665 1.6499 2.6399 1.6801 2.8341-0.59582 1.321-1.0918 4.0799-0.48004 2.9209 2.2372 3.6434 0.69436 5.2799 1.9201 1.6114 1.1468 2.7212 1.5992 5.0399 1.2001 0.28038 3.4218 0.96994 2.2585 3.8399 2.4002 0.79303 0.91792 3.3858 2.8329 3.8399 4.0803 1.1224 1.3146 3.7541 1.3218 5.2799 2.6402-0.0243 2.3003-2.3828 2.0334-3.8399 1.6801-2.757 0.7058-3.8851 5.8786-1.2 5.5204 0.0796 3.6229-4.2832 4.125-5.9999 2.4002-2.9601 0.34672-1.9762-3.3074-3.1199-4.5603 2.2486-3.3418-5.3225 0.83374-4.0799-2.6402-3.1335-1.3561-5.6974 0.74504-6.9598 1.4401 0.0292 2.5668-2.9107 5.2859-6.2399 3.3602-2.461 0.32192 2.8224-5.3545-1.44-4.3203-0.8991 2.025-1.0697 5.0743-4.3199 4.0803zm-0.47998-23.762c-0.94363-0.28011 0.386 1.6161 0 0zm-1.68-0.24002c-1.2833 0.97434 0.61693 0.58948 0 0z" />
                    </g>
                    <g name="Alava">
                        <path
                            d="m331.41 35.188c-0.76078 0.57535 0.95528 0.58658 0 0zm0.5 0.46875c-0.18123 4.2187-6.4613 0.08498-4.3125 3.8438 0.5616 0.28267 0.67077 3.5193-0.25 3.8438 3.2306 1.5301 3.214-2.6976 5.2812 0 2.5763 1.5481-2.6874 0.31888-0.96875 2.4062 3.7394 1.1823-4.566 3.8253-3.5938 0.71875-2.5971-1.9067-6.2282 2.6413-1.9375 4.5625-1.1686-1.0923 4.029-3.5689 2.6562-1.1875-1.1472 0.955-1.3302 4.7291 0.71875 3.5938 1.648-0.21158 2.6195 2.337 4.8125 2.625 1.3175 0.85846 2.2622 3.3085 3.3438 4.0938-1.1624 3.9403 1.6047-1.0828 2.6562-0.71875 2.6345 2.1344-0.10579 4.8329 3.0938 5.0312 0.73554 0.16107 1.4591 0.76598 2.6562 0 0.73016-1.9382 3.1216 1.654 4.3125-1.4375 0.30569-2.2869-0.55384-3.9594-1.9062-2.1562-3.7534-0.69985 3.3006-5.0985 2.1562-2.1562 3.2295-0.58893 2.5883-1.0781 1.9062-3.5938 1.6853-0.58724 1.0627-1.9786 1.9375-4.0938 1.6997-3.93-4.0251-5.7973-7.4375-5.5312-0.70994 0.6199-3.9711-0.37316-2.4062-1.9062 4.3654-2.0872-1.5195-4.9025-1.9375-2.1562 1.5766 2.8182-2.6639 0.92398-4.0625 1.1875-3.032-0.07884-6.3976-2.1566-4.5625-4.5625-0.77572-1.0033-0.66735-2.5532-2.1562-2.4062zm5.2812 16.562c2.2908-0.10166 5.139 0.71012 7.1875 1.4375 3.054 0.01553-2.4383 2.4556 0.71875 3.625 3.6762-0.63791-0.047 2.6508-2.4062 0.21875-1.7832-0.18229-4.0616 0.1292-5.5-2.375-1.1968-0.08745-0.64188-1.357 0-2.9062zm-4.8125 7.2188c-0.47051 1.7621 1.0185-0.30595 0 0zm1.9375 0c-1.0817 0.7798 0.60172 1.6567 0 0z"
                            fill-rule="evenodd" stroke-width=".48" />
                    </g>
                    <g name="Cantabria">
                        <path
                            d="m314.84 23.188c-2.0384 1.0283-5.1524 1.9065-4.7812 3.375-0.28226-2.4249-1.8748 2.7963-1.9375-0.25-0.26982-0.32027 2.3428-3.1045-0.71875-2.1562-4.9063 1.6991-6.9314 2.0928-11.031 3.5938-3.1068 0.20564-5.6078-0.47742-8.625 0-1.8484 1.4087 0.98703 3.3576-1.2188 4.8125-1.3361-2.4146-3.363 0.87938-5.2812 0.46875 1.4086 3.9036-4.4103 2.0925-3.5938 4.3125-0.49588 2.3158 3.6668 3.5061 3.5938 5.2812 2.9788 0.3503 5.9526-1.3031 8.6562-0.96875 1.7049 1.7822 2.8978 3.6398 5.5 3.8438 0.0181 2.5991 1.0055 5.6949 2.6562 3.625 1.7849 1.4249-2.7756 2.2546 0.71875 2.875 2.1034 2.4534 2.6634 0.34574 3.5938-1.4375-0.46767 3.6063 2.5285 3.147 3.5938 1.4375 4.2588 1.7448 0.0745-6.8508 0.25-2.1562-1.4859-0.23269-1.1846-3.265 0-1.9375 3.4307-2.282-1.6548-1.578-1.6875-0.46875-3.2949 0.53708 0.01-5.6589 2.6562-5.5312-0.11659-2.6399 3.1987-0.48379 4.3125-3.125 1.3082-3.8122 3.7606-0.14828 6.4688-0.46875 4.0784 1.4912-0.74861-5.3238 2.6562-4.5625 1.9234-2.5525 2.4995-0.93309 5.0312-2.4062 1.5221 2.7535 3.0431-2.4974 0.25-3.125-2.6396-0.89609-3.7318-1.1287-6.5-1.1875-0.19591-0.4584-2.818-0.46329 0-0.71875 6e-3 -2.0874-3.1848-1.6927-3.5938-3.125-0.32224 0.6999-0.57278-0.13302-0.96875 0zm-17.5 28.094c-0.26011-0.82915-0.46129 0.34344 0 0zm12.25-26.406c0.2276 0.7255 0.40363-0.30051 0 0zm14.875 8.1562c-2.4056 0.61284-0.0256 4.722 0.21875 1.1875 0.50121-0.18308 0.26044-1.1199-0.21875-1.1875zm-19.688 15.125c0.34655-0.33644 0.32811 0.43091 0 0zm-5.5312 2.625c1.9207-0.39931-0.20869 3.3573 0 0z" />
                    </g>
                    <g name="Pontevedra">
                        <path
                            d="m158.62 69.991c1.6096-1.184 0.84257-0.56197 2.8799-1.6801 0.72299-1.5486 3.0582-0.53958 2.3999-2.6402-0.14357-2.6594-0.98591 1.6877-2.8799 1.6801-1.2003-0.64605-2.2696 1.364-3.5999 0.96006-2.407 0.75856-0.8067-4.6788 0.24-0.96006-0.21769-3.5001-0.54387-2.2108 2.16-2.6402 0.60142-2.2123 3.3951-2.7883 2.8799-3.1202-1.0875-1.4934-3.0867 1.9582-4.7999 0.72005-1.7894 1.7924-0.72957-3.8879-3.1199-2.4002-0.49508-1.1411 2.3529-2.3404 2.16-1.2001-0.87897 1.6099 1.3121 1.4163 0.95998 0.72005 0.59669-1.3591 0.78591-2.0178 0.24-2.1601 0.15404-2.3309-0.55326-1.2725 0.95997-2.4002 0.91758 0.59764 1.7978-5.6706 5.0399-5.2804 2.4602-0.42757 3.2978-2.1631 6.2398-0.48003 0.79068-2.1698 4.3848-0.78076 2.8799-3.6002 1.4417-0.91303 1.027 1.9608 3.1199 0.24001 0.7224 1.2534 1.2454-1.7997 3.1199-0.24001 2.0018-0.0027 2.7893 0.48818 5.5199 0.48003-3.6761 3.8653 4.6779 4.3087 1.44 7.4405 0.20459 3.3554-3.1575 3.6373-4.5599 4.3203-3.0661-0.97676-5.779-1.1659-7.6798 1.4401-3.7877-0.47732-0.67415 3.853-1.2 6.2404 1.8549 1.5456 0.77726 5.4568 4.0799 4.5603-0.77089 0.94592 0.59316 4.1212-2.4 3.8403-2.4944 2.4273-5.0213 2.1873-8.8798 2.1602-2.2549 0.56339-4.541 2.2422-6.7198 4.0803-0.81392 2.1155-5.2986 4.3067-4.3199 1.6801 0.10683-3.9813 0.43665-4.6237 0-8.1606 2.3185 0.24318 2.4381-0.52537 2.16-1.4401 1.0362-1.8377 0.43508-0.9251 1.68-2.1602zm-0.95998-2.8802h0.23999z" />
                    </g>
                    <g name="Vizcaya">
                        <path
                            d="m339.59 25.344c-1.6411 2.3237-5.8352-0.01804-6.25 1.9375-2.0374 0.95941-1.5281 2.3275-1.9375 3.3438-0.72869-1.1742-1.8665-1.6996-3.5938-0.96875-0.24955 4.0408-2.2965 1.5909-4.3125 2.4062-0.78136-0.40316-3.7249 1.9542-4.3125 2.875-0.52712 5.8744 3.6568 1.8854 5.5 0.96875 1.567 1.7637 3.4471 0.83957 5.2812 2.1562 1.8806-3.2883 3.8753-2.1317 4.0938 0.71875-1.7711 3.9759 6.292 4.0775 8.4062 4.0938 0.75373-0.66186-0.50726-3.2445 3.5938-2.6562 1.489-0.80522 0.70547-5.7662 0.96875-4.7812 0.9965-0.6458 2.8934-2.2156 2.1562-4.0938-0.63865-2.4535-4.9575-3.2243-7.4375-4.0625-0.79973 0.41736-2.0863-1.0756-2.1562-1.9375zm-15.125 7.6875c0.74661 2.4411-1.2448 3.8236-1.2188 0.46875 0.30945-0.5192 0.995 0.10356 1.2188-0.46875zm6.9375 2.1562c0.95528 0.58658-0.76078 0.57535 0 0zm-0.71875 6.9688c-3.7259 1.8791 3.6324 3.3273 1.4375 1.1875-1.4197-0.0037 0.34635-1.5609-1.4375-1.1875zm1.9375 2.1562c1.106 0.13146 1.4836-0.9121 0 0z" />
                    </g>
                    <g name="Baleares">
                        <path
                            d="m551.97 152.81c0.31983 2.28-4.7257 1.3461-5.5 1.6562-2.8087-0.24771-3.7857 2.6387-1.9375 3.375-0.73272 1.9261 1.2262 3.0271 2.875 1.6875 5.2346-1.2959 9.0316 5.8644 12.25 3.0938 0.76802-1.8183-2.1731-2.8859 0.71875-1.9062-3.032-1.7394-1.1578-5.1366-3.8438-4.8125-0.46954 0.0656-2.5205-2.2916-1.9062-1.6562-0.40453-1.6946-0.76274 1.9435-1.6875-0.25-0.57052 1.8498-0.11388-1.9069-0.96875-1.1875zm1.9375 2.1562c0.28452-0.68689-0.68689 0.28452 0 0zm4.5625 2.1562c-0.26815 0.8447 0.69939 0.46464 0 0zm-34.094 2.875c-3.2253 2.8788-3.6498 0.46178-6.4688 2.625-1.5-0.3881-4.5318 3.1506-5.7812 2.6562-2.8152 2.3432-3.5686 3.9451-6.9375 6.7188-1.9914 1.3034-8.0399 5.1731-4.5625 6.7188 0.0893 0.80967 3.7931-0.39929 2.375 1.4375 1.4397 2.4073 2.8859 0.87606 2.6562-1.1875 2.4653-0.6218 2.7275-3.0787 6-0.5 0.12992 2.7734 0.57345 7.5568 4.8125 6.5 4.2038-1.5434 3.3841 3.1981 6.7188 3.125 1.9231-3.0768 3.9054-2.9044 5.0312-4.8125 0.17308-3.1324 2.2286-6.9865 4.0625-8.4062-0.62808-2.5354 2.013-2.7304 1.9375-5.5312-0.0712-0.56834-2.0196-2.1728-4.5625-2.375-0.0244 3.7715-7.9613 1.5572-6.25-1.9375 3.4712-2.3159 0.16436-0.92374-1.6562-1.1875-0.70001-2.711 2.6589-1.6253 3.8125-3.8438-0.43969-0.13861-1.942 1.2302-1.1875 0zm0.46875 3.125c1.2055-0.055-0.17852-1.0666 0 0zm3.8438 18.219c-0.34195 0.97493 0.78004 0.37343 0 0zm-28.312-2.625c-0.7678-0.12906 0.12906 0.7678 0 0zm57.844-18.719c0.82915 0.26011-0.34344 0.46129 0 0zm-59.031 16.312c-1.5126 0.80289-1.1126 2.1184 0 0zm20.375 15.375c-0.28792 1.2885 1.0472-0.40852 0 0zm-0.21875 0.9375c-1.0302 0.96849-1.023 1.685 0.46875 1.2188-0.80012-0.69914 1.4983-0.85528-0.46875-1.2188zm-0.25 0.75c0.37388-0.54825-1.4089-0.14452 0 0zm-44.156 3.8125c-2.4638 0.71426-3.1836 2.0791-5.5312 1.9375-1.8488 1.8671-2.3446 3.593-1.6562 4.5625-3.128-0.7912-2.0985 0.811-2.1875 3.8438 2.3684 0.8536 2.6774-0.89761 4.8125 0.9375 1.3046 0.8899 1.1865-4.044 3.5938-3.3438 1.2628-1.801 2.2948-3.2988 3.8438-4.8125-0.86235-1.3769-1.0581-2.3557-2.625-2.875v-0.25zm-2.1562 8.4062c-0.34344 0.46129 0.82915 0.26011 0 0zm0.96875 4.3125c-0.23722 0.9439 0.83211 0.9803 0 0zm-1.6875 0.5c-0.92061 1.0677 1.4315 0.7608 0 0zm0.46875 1.6875c-1.6318-0.0337-2.587 6.1989 0 3.3438 5.5754-0.24942 4.9375 0.22383 0.96875-2.1562-0.46051 0.11688-0.44625-1.1383-0.96875-1.1875z" />
                    </g>
                    <g name="Guipuzcoa">
                        <path
                            d="m369.82 31.589c-1.7508 0.21009-2.9115 3.6966-3.8399 3.3602-0.90535-0.99643-0.34179 1.2134-1.68-0.24001 0.60062 3.087-0.16216 5.2901-2.16 5.7604-2.4051 0.91305 0.38085 4.8855-3.1199 4.3203-0.62258 3.5731-4.6417-0.95385-4.0799 3.3602-2.2127-1.3722-5.5544-3.2675-9.1198-2.8802-0.46659 1.4829-3.3121-2.1157 0-2.6402-0.59939-2.4716 1.5748-2.1884 1.2-5.0404 0.82462-1.2861-0.76946-2.9037 1.68-3.3602 0.94025-1.8352-0.2035-4.35 2.6399-2.6402 2.5649 0.31046 4.5519-0.25759 6.4798 0.48003 3.6987-1.758 4.732-1.1862 7.4398-2.4002 1.5937-2.4788 2.8801-1.8471 3.1199 0 0.84525 0.07326 1.2106 0.84876 1.44 1.9201z" />
                    </g>
                    <g name="Las_Palmas">
                        <path
                            d="m174.47 313.12c-2.9473 2.5624 3.4139 0.89706 0 0zm0.21875 5.0312c-1.6827 2.3158-0.85818 4.4968 0.96875 1.2188 0.99349 0.40396-0.60787-1.2342-0.96875-1.2188zm1.4688 2.1875c-1.7828 3.4395-3.2251 5.3867-6.7188 4.7812-1.8416 2.069-7.519 2.822-6 7.9375-3.7404 2.6776 0.75675 3.078 2.1562 3.0938 2.0753-4.643 10.949-3.2603 11.031-8.625-0.96713-3.1018 3.3237-5.154-0.46875-7.1875zm-14.656 19.656c-4.5054 0.35718-4.6554 2.7472-5.5312 7.2188-1.2673 3.1343-4.1754 5.989-4.5312 9.3438-2.0561 2.6869-1.4203 7.959-6.5 8.875-1.9703 0.45417-7.4064 1.8128-4.3125 1.9375 4.2764 3.1044 7.3071 0.0392 9.3438-3.5938 3.7647-1.4296 9.3126-0.85832 11.281-5.0625 1.4664-3.1182 1.4439-5.5067 1.6875-8.375 1.3948-3.186 1.413-9.2484-1.4375-10.344zm-54.469 23.281c-1.3251 3.5262-3.7461 0.23674-6.9688 1.4375-0.35137-1.642-4.3496-1.3251-3.125 0.96875-0.50016 3.8203-7.0503 3.9025-4.3125 9.125 2.3208 4.1814 4.5345 5.8338 8.875 6.25 1.9285-2.1628 7.1267-3.1032 6.4688-5.5312 1.2587-2.5939 0.16988-3.2342 0.75-5.2812-2.1525-1.1987-2.1038-5.849-1.4688-5.75 0.39453-0.21537 0.47838-1.2743-0.21875-1.2188z" />
                    </g>
                    <g name="Santa_Cruz_de_Tenerife">
                        <path
                            d="m18.219 334.72c-1.6049 1.4362-4.2036 3.2728-1.9062 6.25 1.4429 4.1045 3.4672 6.6518 4.0625 10.094 2.4267-1.3725 4.5174-7.206 3.375-8.9062 2.2559-2.0883 0.79161-5.6926-1.4375-6.7188-1.4 1.1059-3.369-0.39074-4.0938-0.71875zm62.156 12c-3.2217 2.2081-4.8973-1.2235-6.9375 1.6875-3.3514 1.3644-3.3779 5.3438-7.4375 5.2812-2.8415 0.75521-4.5822 0.56267-7.2188 1.4375-2.6885-1.4406-7.164 0.62948-3.5938 2.875 1.4317 2.5615 1.8929 6.8126 4.8125 8.6562 0.03831 2.811 2.3425 4.6578 4.7812 2.4062 3.0697 0.40153 5.583-3.7509 6.25-6 2.4652-3.7952 1.2234-8.1156 5.5-10.344 1.2718-2.9765 4.6513-1.806 5.5312-5.2812-0.53066-0.42595-0.52604-0.80619-1.6875-0.71875zm-39.594 14.406c-5.7897 2.1728-0.42593 10.295 3.5938 7.4375 3.7555-1.6204 2.5202-5.4911-0.46875-6-0.52523-1.5564-2.1174-0.23936-3.125-1.4375zm-24 14.406c-2.3961 1.0069-3.7956 4.9448-7.4375 3.125-2.4248 3.3392 4.8521 2.6754 5.75 5.2812-0.50955-3.269 6.5519-7.1611 1.6875-8.4062z" />
                    </g>
                    <g name="Ceuta">
                        <path
                            d="m255.62 331.08c9.7453 3.4174 15.46 6.4946 20.896 4.8225-5.9712 1.5198-22.676 14.518-20.896-4.8225z" />
                    </g>
                    <g name="Melilla">
                        <path
                            d="m336.45 358.21c-28.555-8.4805 5.5384-26.087-2.2352-8.9416-1.7548 4.2923 2.8687 5.3026 2.2352 8.9416z" />
                    </g>
                </svg>