<?xml version="1.0" encoding="UTF-8"?>
<svg class="map-svg" width="150.49mm" height="282.52mm" fill="#ececec" version="1.1" viewBox="0 0 150.49 282.52" xml:space="preserve" xmlns="http://www.w3.org/2000/svg">
<metadata id="game-metadata">
        {
    "title": {
        "es": "Comarcas de la Comunidad Valenciana",
        "ca": "Comarques de la Comunitat Valenciana"
    },
    "category": {
        "es": "Geografía",
        "ca": "Geografia"
    }
        }
</metadata>    
<path d="m88.378 27.942-3.5146-12.616 0.2772-0.26458c0.76607-0.73114 14.319-13.836 14.896-14.403l0.66897-0.65796 13.415 9.3407 11.459 10.034-7.5711 8.542c-4.1641 4.6981-7.5917 8.542-7.617 8.542-0.0251 0-1.2501-2.2027-2.7219-4.8948s-2.6963-4.8948-2.7211-4.8948c-0.0249 0-2.9576 3.123-6.5174 6.9401-3.5598 3.8171-6.4873 6.942-6.5055 6.9444-0.0183 0.0024-1.6147-5.6731-3.5478-12.612z" style="font-variation-settings:'wght' 600;paint-order:stroke fill markers" name="Els Ports"/>
<path d="m128.77 54.447c-1.6553-0.86645-3.0324-1.6145-3.0602-1.6623s-1.5844-5.7539-3.459-12.68c-3.3686-12.446-3.407-12.595-3.2837-12.733 0.0686-0.07681 1.6376-1.8512 3.4866-3.943 1.849-2.0919 3.4192-3.8678 3.4892-3.9465l0.12737-0.14307-5.7622-5.0424c-3.1692-2.7733-5.7542-5.0497-5.7443-5.0586 0.0451-0.04062 11.109-3.6688 11.187-3.6688 0.13853 0 21.775 17.898 24.725 20.453 0.12843 0.11123-0.0644 0.42546-9.2356 15.048-5.1517 8.214-9.388 14.938-9.4139 14.943-0.0259 0.0048-1.4015-0.70028-3.0568-1.5667z" style="font-variation-settings:'wght' 600;paint-order:stroke fill markers" name="Baix Maestrat"/>
<path d="m94.398 54.389c-1.8127-2.3628-3.3161-4.2978-3.3408-4.2999-0.0246-0.0021-0.8528 0.91883-1.8402 2.0466-0.98735 1.1278-1.8154 2.0502-1.8402 2.0497-0.0328-5.29e-4 -3.369-6.3655-3.5044-6.6858-0.0108-0.02577 1.8048-1.4849 4.0349-3.2425s4.0994-3.2494 4.1539-3.3151c0.0546-0.0657 2.9567-3.1814 6.4492-6.9237 4.6883-5.0236 6.3673-6.7827 6.4161-6.7218 0.0364 0.04535 1.2561 2.2594 2.7105 4.9202s2.6661 4.8377 2.6928 4.8377c0.0266 0 1.8861-2.0729 4.1322-4.6064 3.4105-3.8471 4.0928-4.5858 4.1385-4.4814 0.0301 0.06878 0.48498 1.7164 1.0108 3.6615l0.95599 3.5364-2.6278 6.6342c-1.4453 3.6488-2.6576 6.6227-2.694 6.6085s-1.2822-0.86575-2.7684-1.8924c-1.4862-1.0267-2.7245-1.8414-2.7518-1.8105-0.0273 0.03087-0.47776 1.7465-1.001 3.8126l-0.95144 3.7564-4.9555 3.1558c-2.7255 1.7357-4.9933 3.1783-5.0395 3.2059-0.0583 0.03475-1.0923-1.2642-3.3799-4.246z" style="font-variation-settings:'wght' 600;paint-order:stroke fill markers" name="Alt Maestrat"/>
<path d="m120.69 35.848c-0.0265 0.02688-1.2073 2.9749-2.6241 6.551-1.4168 3.5762-2.5919 6.5183-2.6112 6.5376s-1.2655-0.81587-2.7693-1.8557c-2.303-1.5924-2.7417-1.8722-2.7828-1.7746-0.0268 0.06378-1.7175 6.694-3.7569 14.734-1.9503 7.6888-3.5756 14.088-3.7305 14.689h-1e-3l-0.42737 1.6909c-0.22164 0.85942-0.40307 1.6035-0.40307 1.6536s2.314 1.4804 5.1428 3.1786c3.8694 2.323 5.1606 3.0682 5.2152 3.0096 0.1066-0.11438 6.2269-8.7942 6.6094-9.3715h0.0124l6.4053-9.0785c3.523-4.9932 6.4723-9.1678 6.5536-9.277l0.14779-0.19844-3.1114-1.619c-2.1411-1.1141-3.1266-1.6607-3.161-1.7529-0.0275-0.07368-1.0872-3.9661-2.3549-8.6496s-2.3263-8.4935-2.3528-8.4667z" style="font-variation-settings:'wght' 600;paint-order:stroke fill markers" name="Plana Alta"/>
<path d="m97.068 72.607c-2.7223-0.70246-4.9596-1.2873-4.9718-1.2995-0.0293-0.0295-5.6433-9.0261-5.7926-9.2828-0.11353-0.19514-0.10427-0.25863 0.55631-3.8172l0.67178-3.6187 1.7456-1.9921c1.415-1.6149 1.7609-1.9755 1.8268-1.9044 0.0622 0.06704 6.4272 8.3506 6.4867 8.442 7e-3 0.01101 2.2563-1.4078 4.9981-3.1529 2.7418-1.7451 4.9968-3.1612 5.0111-3.1469 0.0143 0.01429-1.1762 4.7594-2.6458 10.545-2.4502 9.6463-2.6828 10.518-2.8042 10.512-0.0728-0.0038-2.3597-0.58157-5.082-1.284z" style="font-variation-settings:'wght' 600;paint-order:stroke fill markers" name="Alcalatén"/>
<path d="m97.978 101.5c-1.1796-0.8311-7.3024-5.5296-8.356-6.4123l-0.22479-0.1883 0.96893-2.9068c0.5329-1.5987 0.9689-2.9426 0.9689-2.9865 0-0.04384-1.9943-1.634-4.4318-3.5336s-4.4315-3.4711-4.4311-3.4922c0-0.05734 9.6066-10.292 9.6513-10.283 0.14128 0.02774 10.031 2.5622 10.047 2.5748 0.0111 0.0087-0.20976 0.91336-0.49086 2.0104-0.43886 1.7126-0.49784 2.0069-0.41711 2.082 0.0517 0.04809 2.3711 1.4506 5.1541 3.1167 2.7831 1.6661 5.1116 3.064 5.1745 3.1065 0.12637 0.0853 0.27112-0.12527-3.4107 4.9615-5.5392 7.6528-9.1189 12.408-9.3727 12.451-0.0534 9e-3 -0.42659-0.21586-0.82934-0.49961z" style="font-variation-settings:'wght' 600;paint-order:stroke fill markers" name="Plana Baixa"/>
<path d="m73.278 76.337c-4.8567-2.9838-8.8218-5.4562-8.8113-5.4941 0.0282-0.10151 8.1598-18.602 8.1908-18.635 0.0286-0.03053 12.286-1.854 12.31-1.8313 8e-3 0.0076 0.50871 0.96488 1.113 2.1272l1.0986 2.1134-0.67235 3.6568-0.67234 3.6568 1.884 3.0239c1.0362 1.6631 2.3773 3.8126 2.9803 4.7765l1.0963 1.7526-0.25398 0.26487c-0.1397 0.14568-2.301 2.4526-4.803 5.1266-2.502 2.6739-4.567 4.8675-4.589 4.8745s-4.0137-2.4286-8.8704-5.4124z" style="font-variation-settings:'wght' 600;paint-order:stroke fill markers" name="Alto Mijares"/>
<path d="m77.048 99.066c-1.5825-1.9075-2.9369-3.4829-3.0096-3.5008-0.0728-0.018-0.58095-0.0406-1.1293-0.0503l-0.997-0.0177-1.2772 2.4805c-0.70247 1.3643-1.2984 2.5041-1.3244 2.5331-0.0339 0.0378-4.3945-1.5494-4.4772-1.6296-6e-3 -6e-3 -0.0644-1.5965-0.12983-3.5351-0.0655-1.9385-0.13501-3.5491-0.15457-3.5791-0.0519-0.07969-2.8361-1.8591-2.9088-1.8591-0.0339 0-0.5788 0.83138-1.2109 1.8475l-1.1493 1.8475-3.7002-4.172c-2.0351-2.2946-3.793-4.2795-3.9064-4.411l-0.20624-0.23902-0.0459-3.34-0.0459-3.3401 2.7542-3.0427c1.5148-1.6735 2.7936-3.0833 2.8419-3.133 0.0623-0.06419 1.0318-0.18334 3.3519-0.41195 1.7953-0.1769 3.3982-0.32974 3.5619-0.33964 0.28933-0.01749 0.54854 0.13607 9.2604 5.4865l8.9628 5.5045 4.3656 3.4049c2.4011 1.8727 4.3891 3.4438 4.4179 3.4914 0.0315 0.05205-0.32618 1.2186-0.8985 2.9307l-0.95072 2.8443-2.0253 0.0331c-1.2185 0.0199-2.0505 0.0594-2.0887 0.0992-0.0349 0.0364-1.1553 1.733-2.4898 3.7703s-2.4459 3.7248-2.4699 3.75c-0.0241 0.0252-1.3383-1.5149-2.9209-3.4224z" style="font-variation-settings:'wght' 600;paint-order:stroke fill markers" name="Alto Palancia"/>
<path d="m71.688 125.91c-1.8222-0.92745-4.2594-2.2178-7.8702-4.1668-1.5825-0.85421-3.155-1.702-3.4942-1.884-0.53253-0.28567-0.61185-0.35009-0.58023-0.47116 0.0201-0.0771 0.74882-1.7625 1.6192-3.7452 1.3412-3.0551 1.5668-3.6139 1.479-3.6639-0.057-0.0324-1.873-0.85655-4.0355-1.8315-2.1625-0.97491-3.9468-1.7875-3.9651-1.8057-0.0182-0.0183-0.20648-1.6646-0.4183-3.6586l-0.38511-3.6254 0.14412-0.14187c0.67165-0.66118 4.4962-3.9811 4.56-3.9584 0.0451 0.0161 2.4459 0.92287 5.335 2.0151s5.2875 1.9859 5.3297 1.9859c0.0423 0 0.66823-1.146 1.391-2.5466l1.3142-2.5466h1.8069l5.8718 7.0445 4.9367 9.04-0.18359 0.24248c-0.41712 0.55098-5.1362 6.5992-5.2104 6.678-0.0443 0.047-1.2526 0.54131-2.685 1.0984-1.4324 0.55708-2.6123 1.0395-2.6221 1.072-0.01 0.0326 0.14684 0.15881 0.34792 0.28059 0.3275 0.19834 0.3615 0.2397 0.32621 0.39687-0.0217 0.0965-0.38854 1.2419-0.81529 2.5453l-0.77589 2.3698z" style="font-variation-settings:'wght' 600;paint-order:stroke fill markers" name="Camp del Túria"/>
<path d="m89.008 112.35-3.9468-0.49971-2.4307-4.4651c-1.3369-2.4558-2.4301-4.4972-2.4294-4.5364 0-0.0392 1.1125-1.768 2.4707-3.8416s2.4726-3.7766 2.4765-3.7842c4e-3 -8e-3 0.9112-0.0176 2.0162-0.0221l2.0092-8e-3 3.0151 2.3437c3.1765 2.4691 5.1663 3.9736 5.909 4.4675 0.24556 0.16334 0.44648 0.32245 0.44648 0.35358 0 0.0311-1.1758 2.408-2.6128 5.282-2.5317 5.063-2.6185 5.2251-2.7947 5.2179-0.10001-4e-3 -1.9579-0.23236-4.1286-0.5072z" style="font-variation-settings:'wght' 600;paint-order:stroke fill markers" name="Camp de Morvedre"/>
<path d="m44.214 119.31c-0.21259-0.4589-0.37629-0.84248-0.3638-0.85238 0.0124-0.01 0.63291-0.11617 1.3787-0.23613 0.74581-0.11996 1.3761-0.23617 1.4008-0.25825 0.0246-0.0221-1.0695-1.3498-2.4314-2.9506s-2.4685-2.9431-2.4591-2.983c9e-3 -0.0399 1.2375-1.5813 2.7291-3.4253s2.7201-3.376 2.73-3.4045c0.01-0.0285-0.57052-0.17391-1.2898-0.32316l-1.3079-0.27137-3.188 3.1759c-2.9017 2.8906-3.1988 3.1679-3.3086 3.087-0.0663-0.0489-0.58957-0.44288-1.1627-0.8755s-1.0532-0.77492-1.0666-0.76068c-0.0909 0.0961-1.1659 1.8278-1.5566 2.5074-0.26112 0.45418-0.49985 0.81925-0.53054 0.81127-0.0307-8e-3 -1.6733-1.2688-3.6502-2.8018-1.977-1.533-3.6428-2.8214-3.7018-2.8631-0.0971-0.0686-0.023-0.51784 0.77573-4.7057 0.4857-2.5464 0.88371-4.6626 0.88453-4.7026 0-0.04-1.4558-1.6027-3.237-3.4727-1.9383-2.035-3.2288-3.4398-3.2144-3.4992 0.0132-0.05457 0.43617-2.1883 0.93988-4.7417l0.91588-4.6424 0.39688-0.03788c0.50847-0.04854 20.377-1.2936 20.643-1.2936h0.19965l1.8087 5.1759c2.1425 6.1308 2.0484 5.8704 2.1201 5.8704 0.0514 0 0.67053-0.37322 3.9748-2.3962l1.0316-0.63153 2.8049 3.1671c1.5427 1.7419 2.82 3.1673 2.8384 3.1675 0.0185 2e-4 0.56666-0.85757 1.2183-1.9062l1.1849-1.9065 2.5315 1.633 0.11628 3.3789c0.064 1.8584 0.107 3.3855 0.0956 3.3935s-1.3388-0.48562-2.9498-1.097l-2.9291-1.1115-2.4287 2.1572c-1.3358 1.1865-2.437 2.1782-2.4471 2.2039-0.0337 0.085 0.78319 7.6392 0.83122 7.6866 0.0259 0.0256 1.8182 0.84691 3.9828 1.8251 2.7799 1.2562 3.9296 1.8061 3.9148 1.8725-0.0114 0.0517-0.72462 1.7034-1.5848 3.6704l-1.5639 3.5764-2.3981 0.0797c-2.312 0.0769-10.374 0.42683-11.663 0.50626l-0.62839 0.0387z" style="font-variation-settings:'wght' 600;paint-order:stroke fill markers" name="Los Serranos"/>
<path d="m15.613 75.424c-2.4461-0.42616-4.464-0.79145-4.4844-0.81174-0.0622-0.06219-5.2496-11.856-5.2254-11.88 0.0124-0.01246 1.4699 0.20509 3.2388 0.48344l3.2162 0.50609 0.51908-0.33298c0.28549-0.18314 0.9497-0.61442 1.476-0.95841l0.95695-0.62543 0.98602-2.879c0.8408-2.455 0.99465-2.8528 1.0446-2.7013 0.0322 0.09772 0.37941 1.1004 0.77163 2.2282 1.3667 3.9299 2.1718 6.0801 2.3649 6.3155 0.12859 0.15677 0.50869 0.1835 5.1941 0.36532l2.5682 0.09966 0.31581 0.34701c2.1367 2.3478 4.6878 5.2428 4.6598 5.288-0.11443 0.18517-3.1397 1.5746-5.515 2.533-2.2411 0.90418-7.4386 2.8252-7.5885 2.8047-0.0283-0.0039-2.0527-0.3557-4.4988-0.78186z" style="font-variation-settings:'wght' 600;paint-order:stroke fill markers" name="Rincón de Ademuz"/>
<path d="m26.843 144.38c0.32607-0.96209 0.59264-1.7881 0.59235-1.8356 0-0.0573-3.4448-1.1206-10.236-3.1598l-10.236-3.0735-0.82683-0.80166c-4.5177-4.3802-6.1212-5.9429-6.1364-5.9803-0.01-0.0243 2.5871-5.2958 5.7709-11.715 4.5601-9.1934 5.8135-11.668 5.9049-11.659 0.0638 6e-3 1.583 0.22593 3.376 0.4883s3.2696 0.46566 3.2814 0.45176c0.0119-0.0139 0.72583-3.5823 1.5867-7.9297 0.8609-4.3474 1.5869-7.9518 1.6134-8.0098 0.0705-0.15446 6.2073 6.3109 6.1817 6.5126-0.01 0.0777-0.40426 2.1725-0.87643 4.6552-0.47218 2.4827-0.8585 4.5418-0.8585 4.5759 0 0.0549 11.845 9.2782 11.96 9.3123 0.0251 8e-3 0.6953-0.85569 1.4892-1.9182 0.79385-1.0625 1.5115-2.0165 1.5948-2.1198l0.1514-0.18793 2.428 2.8569c1.3354 1.5713 2.4163 2.8686 2.402 2.8829s-1.2926 0.23955-2.8408 0.50055l-2.8147 0.47454-0.0412 5.3963c-0.0228 2.968-0.0634 7.6078-0.0906 10.311l-0.0494 4.9142-6.9353 3.4036c-3.8144 1.872-6.9462 3.4036-6.9594 3.4036s0.24273-0.78716 0.5688-1.7492z" style="font-variation-settings:'wght' 600;paint-order:stroke fill markers" name="Requena-Utiel"/>
<path d="m35.953 114.27-1.8347-1.4296 0.3271-0.6122c0.17992-0.33671 0.59838-1.0452 0.92996-1.5744l0.60282-0.96222 1.1289 0.86015 1.1288 0.86015 3.2303-3.2087c1.7767-1.7648 3.2683-3.2073 3.3147-3.2056 0.22643 8e-3 1.8026 0.37708 1.7924 0.41918-7e-3 0.0266-1.1227 1.422-2.4805 3.1009s-2.5035 3.0985-2.546 3.1546c-0.068 0.0898-0.0983 0.0823-0.25154-0.0616-0.11337-0.1065-0.19028-0.13839-0.22031-0.0913-0.28163 0.44137-3.16 4.1893-3.2143 4.1854-0.0401-3e-3 -0.89855-0.64854-1.9076-1.4348z" style="font-variation-settings:'wght' 600;paint-order:stroke fill markers" name="Camp del Túria"/>
<path d="m53.408 147.6-6.0756-2.2944-6.7665-5.8945 0.0267-7.14c0.0148-3.927 0.0445-8.5232 0.0661-10.214l0.0394-3.0737 1.2568-0.21296c0.69122-0.11713 1.318-0.21482 1.3928-0.21708 0.11136-3e-3 0.21786 0.16951 0.58822 0.95499 0.24871 0.52751 0.47979 0.95911 0.51353 0.95911 0.0337 0 1.9568-0.0884 4.2735-0.19639 4.8701-0.22707 9.0405-0.39339 10.132-0.40409l0.76068-7e-3 1.819 0.98746c4.5562 2.4734 8.4655 4.5466 10.381 5.5056l1.1822 0.59178-0.35597 1.1106c-0.72327 2.2566-0.79227 2.4357-0.92906 2.411-0.10152-0.0183-4.1983-1.1233-4.6064-1.2424-0.0637-0.0186-0.11575-2e-3 -0.11575 0.0366 0 0.0387 0.31099 0.7616 0.69106 1.6064 0.3801 0.84484 0.68509 1.5421 0.67776 1.5494-7e-3 7e-3 -0.63828-0.013-1.4021-0.0451-5.6181-0.23632-8.1893-0.32938-8.2212-0.29755-0.0326 0.0326-1.0662 8.4484-1.0686 8.7009 0 0.0546 1.0421 0.88801 2.3168 1.8521 1.2748 0.96408 2.3631 1.7877 2.4186 1.8303 0.0868 0.0667-0.095 0.4512-1.3055 2.7616-0.96321 1.8384-1.4391 2.6828-1.5104 2.68-0.0572-2e-3 -2.838-1.0366-6.1796-2.2986z" style="font-variation-settings:'wght' 600;paint-order:stroke fill markers" name="Hoya de Buñol"/>
<path d="m68.077 169.82-0.79902-0.77201-4.0911-6.4162c-2.2501-3.5289-4.1338-6.4906-4.186-6.5815-0.0857-0.14931-0.0519-0.42859 0.34734-2.8773 0.28567-1.7519 0.48496-2.7939 0.56293-2.9435 0.0664-0.12733 0.76515-1.4634 1.5528-2.9691 0.78767-1.5057 1.4233-2.7757 1.4125-2.8223s-1.1061-0.90748-2.434-1.913c-2.1819-1.6523-2.4131-1.8454-2.4019-2.0063 0.0198-0.28691 0.95663-8.1141 0.97301-8.1306 0.0175-0.0178 7.7434 0.28799 8.8049 0.34846l0.72837 0.0415 0.46488 1.0362 0.4649 1.0363 1.7668 0.0176c0.97173 0.01 1.7668 0.0389 1.7668 0.065 0 0.026-0.24352 1.2306-0.54118 2.6768-0.29763 1.4462-0.52832 2.6398-0.51263 2.6524 0.0156 0.0126 2.0526 0.61351 4.5265 1.3354 2.4738 0.72184 4.5237 1.3345 4.5551 1.3615s0.30877 1.398 0.61627 3.0467c0.30747 1.6487 0.56452 3.0031 0.57118 3.0097 7e-3 7e-3 0.56137-0.029 1.2327-0.0792s1.2318-0.0799 1.2456-0.0661-0.54517 1.2971-1.2421 2.8518l-1.2672 2.8268 0.45908 0.46961c2.4716 2.5283 7.154 7.4774 7.112 7.517-0.0294 0.0277-1.1688 0.50031-2.532 1.0503-1.3631 0.54997-2.4998 1.0217-2.526 1.0483-0.0365 0.0371-0.25418 1.468-0.25418 1.671 0 0.0223-0.78134-0.35475-1.7363-0.83802-0.95499-0.48328-1.7678-0.87986-1.8062-0.88128-0.0767-3e-3 -0.3065 2.3179-0.23615 2.3852 0.0228 0.0218 0.82418 0.31887 1.7809 0.66019l1.7394 0.62058-0.0196 0.23278c-0.018 0.21434-0.0354 0.23152-0.21807 0.21694-0.10914-9e-3 -2.8305-0.30089-6.0475-0.6493l-5.849-0.63346-3.1848 3.1734z" style="font-variation-settings:'wght' 600;paint-order:stroke fill markers" name="Ribera Alta"/>
<path d="m76.758 141.34c-2.397-0.7061-4.3744-1.3-4.3942-1.3198s0.20754-1.2193 0.50517-2.6655c0.29765-1.4462 0.54117-2.6662 0.54117-2.711 0-0.0626-0.42725-0.0815-1.8434-0.0815h-1.8434l-1.0739-2.3854c-0.59063-1.312-1.059-2.4002-1.0409-2.4183 0.018-0.0181 1.0226 0.23751 2.2321 0.56808 1.2095 0.33056 2.2073 0.59282 2.2173 0.5828 0.0177-0.0178 0.2636-0.76557 2.108-6.4122l0.90019-2.756 5.6664 3.5138 0.28091 2.5866c0.15451 1.4226 0.28548 2.5889 0.29106 2.5918 6e-3 3e-3 1.2007 0.35759 2.6559 0.78825s2.6519 0.78659 2.6593 0.79096c0.0243 0.0144 1.2764 4.4968 1.2764 4.5696 0 0.0391-1.0532 0.70812-2.3404 1.4866l-2.3404 1.4155-1.0165 1.5718c-0.55909 0.86452-1.0314 1.5709-1.0496 1.5698-0.0183-1e-3 -1.9942-0.5798-4.3912-1.2859z" style="font-variation-settings:'wght' 600;paint-order:stroke fill markers" name="Horta Sud"/>
<path d="m87.328 123.76c-2.1168-2.5502-2.7248-3.2238-2.9101-3.2238-0.16515 0-0.4009 0.28109-2.7183 3.2411-0.46995 0.60028-0.87026 1.0914-0.88958 1.0914-0.0334 0-1.297-0.77696-4.6266-2.8448l-1.4951-0.9285 2.3826-0.92378c1.3104-0.50807 2.4187-0.95994 2.4629-1.0041 0.0442-0.0442 1.2794-1.6175 2.745-3.4962 1.4655-1.8787 2.702-3.4302 2.7478-3.4478 0.0841-0.0323 8.1008 0.95227 8.1494 1.0008 0.0331 0.0331-4.4392 12.14-4.4842 12.14-0.0183-2.6e-4 -0.63193-0.72212-1.3638-1.6039z" style="font-variation-settings:'wght' 600;paint-order:stroke fill markers" name="Horta Nord"/>
<path d="m90.108 144.18c-1.1278-0.41818-2.5028-0.91586-3.0555-1.106l-1.005-0.34563-0.42313-0.5276c-0.2327-0.29019-0.76686-0.99181-1.187-1.5592l-0.76387-1.0316 2.2826-1.3814c1.2554-0.75977 2.2955-1.4151 2.3113-1.4562 0.0254-0.0661-1.3187-4.9638-1.3773-5.0185-0.0127-0.0119-1.199-0.37058-2.636-0.79698-1.437-0.42639-2.6234-0.785-2.6364-0.7969-0.0275-0.0251-0.53369-4.61-0.5366-4.8604-3e-3 -0.15297 1.433-2.0593 2.9307-3.8939l0.39984-0.48976 0.38642 0.41112c0.54801 0.58303 3.7592 4.4441 3.8285 4.6033 0.0316 0.0728 0.84659 4.2995 1.811 9.3927s1.7708 9.3423 1.7921 9.4423c0.0212 0.10004 0.014 0.1803-0.0161 0.17834-0.0302-2e-3 -0.97761-0.34569-2.1054-0.76387z" style="font-variation-settings:'wght' 600;paint-order:stroke fill markers" name="Valencia"/>
<path d="m86.388 158.42-3.7832-3.9391 1.3241-2.9564c0.72827-1.626 1.3084-2.9721 1.2891-2.9914s-0.63134 4e-3 -1.3602 0.0509c-0.72891 0.0472-1.3371 0.074-1.3517 0.0595s-0.26667-1.3154-0.56033-2.8907l-0.53396-2.8643 0.96528-1.4851c0.53089-0.81681 0.9856-1.4977 1.0105-1.513 0.0249-0.0154 0.43612 0.49824 0.91385 1.1414 1.094 1.4728 1.5826 2.0623 1.7093 2.0623 0.23082 0 6.2324 2.2064 6.3542 2.336 0.0404 0.043 0.97552 2.0073 2.0779 4.3649l2.0044 4.2867-0.0841 3.8162c-0.0463 2.0989-0.0884 3.8198-0.0936 3.8241-5e-3 4e-3 -0.85187-0.38828-1.8815-0.87251l-1.8721-0.88041-1.1724 1.195-1.1724 1.1951z" style="font-variation-settings:'wght' 600;paint-order:stroke fill markers" name="Ribera Baixa"/>
<path d="m82.588 167.32-1.571-0.56797v-0.20568c3e-3 -0.29668 0.11931-1.3734 0.15375-1.4079 0.0161-0.016 0.74999 0.33148 1.631 0.77227l1.6018 0.80145-0.0437 0.37649c-0.0663 0.57122-0.11322 0.80682-0.15984 0.80289-0.0233-2e-3 -0.74919-0.25915-1.6132-0.57153z" style="font-variation-settings:'wght' 600;paint-order:stroke fill markers" name="Costera"/>
<path d="m103.04 184.08c-4.311-0.32274-7.8829-0.60493-7.9375-0.62709-0.0546-0.0222-0.21828-0.0346-0.36381-0.0277-0.29202 0.0139-4.3922-0.29108-4.4286-0.32944-0.0124-0.0132 0.15491-2.475 0.37211-5.4708 0.21717-2.9957 0.38531-5.4546 0.37359-5.4641-0.0461-0.0375-6.1904-2.0938-6.4513-2.159-0.25361-0.0634-0.2757-0.0855-0.2471-0.24676 0.0172-0.0974 0.14978-1.1445 0.29443-2.3268 0.14465-1.1824 0.27882-2.2428 0.29816-2.3565 0.0348-0.20456 0.0618-0.21756 2.5307-1.2175 1.3726-0.55592 2.5524-1.0257 2.6218-1.0439 0.0695-0.0182 0.64641-0.56423 1.2822-1.2133s1.1877-1.1802 1.2265-1.1802c0.0389 0 0.88304 0.37951 1.876 0.84336l1.8053 0.84335 7.316 11.266c4.0238 6.1962 7.3056 11.273 7.2929 11.282s-3.5503-0.24825-7.8614-0.57098z" style="font-variation-settings:'wght' 600;paint-order:stroke fill markers" name="Safor"/>
<path d="m46.685 193.24c-1.4006-0.41745-2.5534-0.76449-2.5618-0.7712-0.0238-0.0192 0.43614-9.9058 0.46204-9.9317 0.0127-0.0127 3.3192-0.73454 7.3477-1.6041 4.0286-0.86952 7.3345-1.5923 7.3465-1.6061 0.0119-0.0138 1.7715-2.2427 3.9099-4.953s3.8972-4.939 3.9085-4.9526c0.0114-0.0136 0.41619 0.35067 0.89979 0.80947l0.87926 0.83419 3.3073-3.3008 5.7547 0.62491c3.1651 0.3437 5.8529 0.64189 5.973 0.66265 0.16526 0.0286 0.21043 0.065 0.18595 0.14987-0.0177 0.0617-0.052 0.30836-0.076 0.54818l-0.0437 0.43605 0.30033 0.0841 0.3003 0.0841-1.5298 3.063-8.8719 5.4226c-8.5819 5.2453-24.141 14.708-24.681 15.011l-0.26459 0.14831z" style="font-variation-settings:'wght' 600;paint-order:stroke fill markers" name="Costera"/>
<path d="m43.348 179.84c-0.88262-1.7402-1.1696-2.3634-1.1188-2.4293 0.0376-0.0488 1.1942-1.4728 2.5702-3.1644 1.376-1.6917 2.5294-3.1116 2.563-3.1554 0.0393-0.0511-0.35788-2.512-1.1082-6.8674-0.64317-3.7332-1.1591-6.797-1.1465-6.8084 0.0124-0.0114 1.1986-0.38565 2.6356-0.83176s2.6397-0.83516 2.6726-0.86456c0.0343-0.0307-0.44125-1.2698-1.1148-2.905-0.64601-1.5683-1.1641-2.8599-1.1512-2.8701 0.17007-0.13496 4.1093-2.3543 4.1788-2.3543 0.0742 0 7.1256 2.6266 7.1648 2.6689 5e-3 6e-3 -0.20614 1.2995-0.46948 2.8754l-0.47876 2.8654 4.1594 6.5177c2.2877 3.5848 4.1658 6.539 4.1736 6.5649 8e-3 0.0259-1.7502 2.2814-3.9067 5.0122-3.1288 3.9621-3.9573 4.9725-4.101 5.0019-0.0991 0.0203-3.3583 0.72335-7.2428 1.5624-3.8844 0.839-7.0694 1.5248-7.0776 1.5239-8e-3 -8e-4 -0.54922-1.0549-1.2022-2.3422z" style="font-variation-settings:'wght' 600;paint-order:stroke fill markers" name="Canal de Navarrés"/>
<path d="m114.78 206.94-1.3272-0.0199-2.3439-1.3821c-2.0753-1.2237-2.3424-1.3998-2.3304-1.5366 7e-3 -0.0849 0.16743-1.3538 0.35547-2.8196 0.18804-1.4659 0.33075-2.6758 0.31715-2.6888-0.0402-0.0382-7.2032-1.1822-7.2263-1.1541-0.0116 0.0142-0.2336 0.78186-0.49334 1.706-0.25974 0.92416-0.48567 1.6937-0.50205 1.7101-0.0453 0.0452-4.9986-1.2663-4.9989-1.3236-1.3e-4 -0.0274 0.6563-1.3627 1.4588-2.9673 0.80243-1.6046 1.4471-2.9292 1.4326-2.9437-0.0731-0.0731-6.3122 1.0957-7.1352 1.3366-0.12708 0.0372-0.29954-0.6363-0.98391-3.8424-0.36081-1.6903-0.39875-1.9356-0.31948-2.0647 0.0495-0.0805 1.0424-1.2619 2.2066-2.6252 1.9528-2.2869 2.1331-2.4791 2.3285-2.4829 0.11652-2e-3 3.7923 0.26525 8.1684 0.59441l7.9565 0.59847 2.6796 0.89743c6.7077 2.2465 11.201 3.8641 12.362 4.4501l0.37923 0.19143 0.4853 1.0142c1.168 2.4408 2.4544 5.3032 2.4051 5.3512-0.0296 0.0288-1.542 1.0942-3.361 2.3676l-3.3073 2.3153-4.1022 5.3338-1.3885 2e-3c-0.76367 1e-3 -1.9858-7e-3 -2.7157-0.0179z" style="font-variation-settings:'wght' 600;paint-order:stroke fill markers" name="Marina Alta"/>
<path d="m63.217 199.34c-1.7986-1.4802-3.7362-3.0736-4.3058-3.5409l-1.0355-0.84968-2.9994 1.0978c-1.6496 0.6038-3.1079 1.1371-3.2405 1.1851l-0.2412 0.0873-0.86675-1.5086c-0.47672-0.82974-0.86677-1.538-0.86677-1.5739s2.7608-1.7407 6.135-3.7885c3.3742-2.0477 10.938-6.657 16.808-10.243l10.673-6.5196 0.79383-1.589c0.43665-0.87394 0.79992-1.5959 0.8073-1.6043 0.0106-0.0122 5.7941 1.8968 5.8374 1.9268 6e-3 4e-3 -0.16272 2.4158-0.37589 5.3584-0.28435 3.9248-0.41082 5.3722-0.47475 5.4325-0.0479 0.0452-2.7214 1.7164-5.941 3.7139l-5.8539 3.6317-4.6196 0.30614c-2.5408 0.16838-4.6361 0.32264-4.6562 0.34281-0.029 0.029 1.794 4.4457 1.8681 4.5256 0.0109 0.0116 0.65495-0.26599 1.4316-0.61683 0.77666-0.35085 1.4333-0.6431 1.4593-0.64945 0.0259-6e-3 0.43289 0.52307 0.90429 1.1765 0.75348 1.0444 0.84379 1.197 0.74661 1.2623-0.24527 0.16482-8.5185 5.0517-8.6143 5.0884-0.0702 0.0268-1.149-0.82119-3.3734-2.6518z" style="font-variation-settings:'wght' 600;paint-order:stroke fill markers" name="Vall d'Albaida"/>
<path d="m86.838 205.36c0-0.14591-0.73602-5.6783-0.75843-5.7007-0.0236-0.0235-5.2858 1.5481-5.3981 1.6122-0.0209 0.0119-1.128-0.96655-2.4601-2.1744l-2.422-2.1961-0.99981-1.3891c-0.54988-0.76398-1.0232-1.4127-1.0519-1.4416-0.0286-0.0289-0.68529 0.23305-1.4592 0.58209s-1.4228 0.61887-1.4421 0.59964c-0.0505-0.0504-1.6104-3.7576-1.5885-3.7749 0.0101-8e-3 2.0275-0.14506 4.4832-0.30461l4.4648-0.29009 11.982-7.4395 2.1739 0.16528c1.1956 0.0909 2.1854 0.17681 2.1995 0.19089 0.014 0.0141-0.95981 1.1776-2.1642 2.5856-1.4485 1.6934-2.1793 2.5968-2.1588 2.6686 0.0169 0.0597 0.24297 1.1057 0.50215 2.3244 0.68882 3.2388 0.86215 3.9036 1.0172 3.9016 0.0411-5.3e-4 0.20519-0.0464 0.3647-0.10197 0.51338-0.17877 6.2167-1.2618 6.3544-1.2067 0.0377 0.0151-2.5114 5.3014-2.5982 5.3882-0.0101 0.0102-0.48313-0.10318-1.0511-0.25184l-1.0326-0.27028-3.947 2.1047-1.439 4.1672-0.70265 0.14605c-0.74679 0.15523-0.86802 0.16992-0.86802 0.1052z" style="font-variation-settings:'wght' 600;paint-order:stroke fill markers" name="Comtat"/>
<path d="m88.258 218.72c-1.8271-1.979-2.2602-2.4148-2.3747-2.3897-0.96554 0.21137-2.292 0.46405-2.3147 0.44092-0.0322-0.0328-0.70752-3.9841-0.68424-4.003 8e-3 -7e-3 0.63971-0.48216 1.4037-1.0569 2.2666-1.7052 3.1419-2.4376 3.1419-2.6291 0-0.16567 2.6477-7.8111 2.7334-7.8929 0.0428-0.0408 0.88731-0.506 1.8767-1.0337l1.7989-0.95944 3.7243 0.98267c2.0483 0.54046 3.7693 0.9833 3.8243 0.98408 0.0746 1e-3 0.2241-0.44066 0.58886-1.7403l0.48884-1.7417 0.5687 0.0908c0.31276 0.05 1.804 0.29137 3.3137 0.53646l2.745 0.44561-0.0161 0.16345c-9e-3 0.0899-0.16767 1.3356-0.35279 2.7683-0.2793 2.1612-0.32158 2.6185-0.2484 2.6851 0.0485 0.0442 1.0933 0.66897 2.3217 1.3885 1.2284 0.7195 2.2456 1.3278 2.2604 1.3518s-1.1453 1.2902-2.578 2.8138l-2.6049 2.7702 0.25588 0.30352c0.14073 0.16693 0.43378 0.50832 0.65122 0.75863l0.39534 0.45511-1.5304 1.3578c-0.84175 0.74681-1.6102 1.4311-1.7077 1.5206l-0.17727 0.16282-3.9852-1.0299-0.61175 0.65585c-0.33644 0.36072-0.71434 0.76524-0.83978 0.89894-0.20212 0.21543-0.41241 0.30841-1.8486 0.81739-3.6372 1.289-7.5217 2.5445-7.8726 2.5445-0.0611 0-1.1148-1.0872-2.3457-2.4204z" style="font-variation-settings:'wght' 600;paint-order:stroke fill markers" name="Marina Baixa"/>
<path d="m66.561 221.27c-0.80036-0.58188-1.4646-1.0941-1.476-1.1383s-1.6371-1.207-3.6126-2.5841l-3.5918-2.5038-1.0102-1.2276c-0.5556-0.6752-1.0135-1.2642-1.0176-1.3088-4e-3 -0.0447 1.6297-1.785 3.6306-3.8673 2.0009-2.0824 3.647-3.8234 3.6579-3.869 0.0108-0.0456-1.0412-2.053-2.3382-4.4608-1.2969-2.4079-2.3477-4.3863-2.335-4.3966s1.8236 1.4639 4.0242 3.2759c3.6793 3.0296 4.0118 3.2877 4.1341 3.2085 0.0731-0.0474 2.1054-1.2548 4.5162-2.6833l4.3832-2.5972 0.61082 0.55824c2.7226 2.4884 4.3663 3.954 4.4336 3.9534 0.0439-2.6e-4 1.2407-0.35457 2.6595-0.78715 2.1802-0.66473 2.5825-0.76961 2.5978-0.67736 0.0101 0.06 0.17627 1.3371 0.36954 2.8379 0.19328 1.5008 0.37106 2.7484 0.39503 2.7723 0.0371 0.0371 1.3756-0.20488 1.6124-0.29146 0.0665-0.0243-0.98732 3.1943-1.0743 3.2812-0.0614 0.0614-2.6424-0.87155-6.9521-2.513l-2.2578-0.85994-3.5961 3.0242c-1.9778 1.6633-3.6073 3.0332-3.621 3.0442s0.07 2.2121 0.18601 4.8913c0.11599 2.6792 0.20161 4.8778 0.19026 4.8858-0.0164 0.0115-2.6981 0.96754-2.9892 1.0656-0.0408 0.0138-0.72901-0.45109-1.5294-1.033z" style="font-variation-settings:'wght' 600;paint-order:stroke fill markers" name="Alcoià"/>
<path d="m70.008 238.05-4.0988-3.124-2.4827-5.1876c-1.3655-2.8532-2.5186-5.2679-2.5624-5.3661-0.0787-0.17627-0.0545-0.2021 1.9347-2.064l2.0144-1.8855 1.5472 1.1215c0.85095 0.6168 1.5926 1.1214 1.6481 1.1214 0.12269 0 3.2965-1.1231 3.3779-1.1952 0.0326-0.029-0.034-2.1666-0.15351-4.9276-0.17476-4.0355-0.19611-4.8903-0.12383-4.957 0.19908-0.18361 6.7743-5.6993 6.8443-5.7414 0.0419-0.0252 1.173 0.37262 2.5136 0.88408 1.3405 0.51147 3.3005 1.2416 4.3555 1.6226 1.055 0.38098 1.9758 0.71617 2.046 0.74486 0.10954 0.0447 0.0386 0.12607-0.49609 0.56885-0.34314 0.28417-1.3383 1.0533-2.2114 1.7091-0.87312 0.65585-1.6016 1.2042-1.6187 1.2186-0.0592 0.0496 0.68659 4.3516 0.77092 4.4469 0.0722 0.0816 0.16933 0.0835 0.66759 0.013 0.32073-0.0454 0.88271-0.15004 1.2488-0.23255l0.66569-0.15001 4.3411 4.6993-0.22651 0.18908c-0.1246 0.104-1.5957 1.2812-3.2692 2.616l-3.0427 2.427-0.0444 0.33073c-0.0243 0.1819-0.23058 1.7927-0.45818 3.5796l-0.41378 3.2488-1.3591-0.45418c-0.74747-0.2498-1.4103-0.45418-1.4729-0.45418-0.0845 0-4.6211 2.9971-4.8963 3.2348-0.0251 0.0217-0.15206 0.78358-0.28208 1.6931-0.22958 1.6059-0.46685 3.055-0.53879 3.2908-0.0193 0.0637-0.0557 0.11294-0.0805 0.1095-0.0249-3e-3 -1.8896-1.412-4.144-3.1302z" style="font-variation-settings:'wght' 600;paint-order:stroke fill markers" name="Alacantí"/>
<path d="m42.415 242.85c0.26001-0.67758 0.69728-1.9623 0.69728-2.0487 0-0.0961-1.7613-4.6314-1.829-4.7098-0.0135-0.0156-0.34046 0.18511-0.7267 0.4459l-0.70226 0.47418-3.5431-1.1587c-1.9487-0.6373-3.5487-1.1654-3.5554-1.1735-7e-3 -8e-3 -0.0504-1.9121-0.097-4.2311l-0.0848-4.2163 0.35925-0.38084c0.19757-0.20947 1.4266-1.5202 2.7312-2.9126 1.6375-1.7479 2.4051-2.5226 2.4791-2.5021 0.0589 0.0163 2.4337 0.48214 5.2772 1.0351l5.1701 1.0054 4.4541-3.5339c2.4498-1.9437 4.4914-3.5565 4.5369-3.584 0.0527-0.0319 1.3349 0.82438 3.5215 2.3517 1.8912 1.321 3.439 2.4201 3.4394 2.4424 0 0.0223-0.93789 0.91529-2.0852 1.9844-1.3297 1.2391-2.076 1.9798-2.0587 2.043 0.0151 0.0546 1.162 2.4699 2.5489 5.3674s2.5217 5.2936 2.5216 5.3247c-3e-5 0.0311-4.2193 1.7197-9.3762 3.7524l-9.3761 3.6958-2.169 0.31138c-1.7196 0.24685-2.1616 0.29199-2.1332 0.21781z" style="font-variation-settings:'wght' 600;paint-order:stroke fill markers" name="Vinalopó Mitjà"/>
<path d="m64.213 255.37c-1.12-0.13366-3.9186-0.55859-3.9967-0.60684-0.0371-0.0229-1.1451-0.95856-2.4624-2.0792s-2.4252-2.0376-2.4621-2.0376-0.55248 0.29168-1.1457 0.64818c-0.59325 0.35651-1.2476 0.74442-1.4542 0.86204l-0.37558 0.21385-0.35988-0.68013c-0.19794-0.37408-0.91919-1.7517-1.6028-3.0614-1.3048-2.4998-2.4992-4.7018-2.9844-5.502-0.15837-0.26121-0.28754-0.49934-0.28702-0.52917 0-0.0443 18.276-7.2829 18.559-7.3509 0.12764-0.0307 8.5602 6.4006 8.5599 6.5284-1.4e-4 0.0587 0.16647 1.679 0.37023 3.6006 0.20375 1.9216 0.36004 3.5042 0.34726 3.517-0.0127 0.0127-1.437 0.1604-3.1649 0.32808-2.951 0.28638-3.1477 0.31344-3.2409 0.44585-0.15862 0.22535-2.2788 4.1779-2.696 5.0259-0.44061 0.89575-0.29374 0.83369-1.6035 0.67739z" style="font-variation-settings:'wght' 600;paint-order:stroke fill markers" name="Baix Vinalopó"/>
<path d="m43.252 221.1c-2.852-0.55934-5.1984-1.03-5.2142-1.0458-0.0413-0.0413-0.95078-14.316-0.92927-14.585l0.018-0.22406 4.0349-2.0402c2.2192-1.1221 4.0645-2.0506 4.1006-2.0633 0.0548-0.0193-0.69191-1.6736-3.1161-6.9038l-0.28157-0.60752 2.3398-0.78085 5.0946 1.5122 0.95845 1.6782c0.52713 0.92301 0.97332 1.6789 0.9915 1.6798 0.0183 7.9e-4 1.4767-0.52895 3.2412-1.1774 1.7644-0.64842 3.2304-1.16 3.2578-1.1368 0.0461 0.0391 4.9245 9.0718 4.9894 9.2383 0.0161 0.0412-1.6395 1.8104-3.6791 3.9315-2.0395 2.1211-3.7082 3.8734-3.7081 3.8938 8e-5 0.0205 0.46291 0.60049 1.0285 1.2889 0.98267 1.1961 1.0231 1.2567 0.90935 1.365-0.15706 0.14953-8.8136 7.0095-8.8343 7.0009-9e-3 -4e-3 -2.3494-0.46434-5.2013-1.0237z" style="font-variation-settings:'wght' 600;paint-order:stroke fill markers" name="Alto Vinalopó"/>
<path d="m53.866 281.6c-1.2343-0.50544-2.2654-0.94197-2.2914-0.97004-0.0404-0.0437-14.457-21.377-14.768-21.852-0.0879-0.13454-0.14711-0.61085-0.27639-2.2225l-0.16454-2.0512 4.8408-10.746-0.60537-3.21c-0.33295-1.7655-0.59621-3.2172-0.58502-3.226 0.32851-0.25697 1.0726-0.69545 1.1102-0.65421 0.0282 0.0309 0.41391 0.97692 0.85728 2.1023l0.8061 2.0462-0.43402 1.2052c-0.23871 0.66284-0.43402 1.2319-0.43402 1.2646s1.0046-0.0824 2.2324-0.2558c1.2278-0.17341 2.3088-0.31638 2.4021-0.31771 0.14962-2e-3 0.23654 0.11286 0.73557 0.97322 0.84418 1.4554 3.774 6.965 4.6254 8.6982 0.12065 0.24556 0.24564 0.44648 0.27778 0.44648 0.0321 0 0.72721-0.40183 1.5446-0.89296 0.81738-0.49114 1.5009-0.89297 1.5189-0.89297s1.0899 0.90041 2.382 2.0009c1.2921 1.1005 2.3991 2.0221 2.4599 2.048 0.19791 0.0842 3.6249 0.56858 4.8232 0.68174l0.47927 0.0453-0.0345 0.24137c-0.019 0.13275-0.33068 3.2716-0.6926 6.9751l-0.65807 6.7338-1.6981 2.5267c-0.93395 1.3897-1.9393 2.8628-2.2341 3.2736-0.83452 1.1629-1.0023 1.459-2.434 4.2953-0.89025 1.7637-1.3766 2.6595-1.4424 2.6568-0.0546-3e-3 -1.1091-0.41769-2.3434-0.92315z" style="font-variation-settings:'wght' 600;paint-order:stroke fill markers" name="Vega Baja del Segura"/>
<path d="m24.025 172.87c-2.4287-2.9377-4.4729-5.4052-4.5426-5.4832-0.12599-0.1412-0.10914-0.19498 3.283-10.483 1.8753-5.6878 3.4328-10.349 3.4612-10.359 0.0283-0.01 3.204-1.5656 7.0569-3.4576 6.0578-2.9746 7.0196-3.4279 7.1107-3.3511 0.0579 0.0489 1.5943 1.3845 3.4142 2.968l3.3089 2.8792 2.3617 0.88577c1.299 0.48718 2.3616 0.90066 2.3615 0.91885-8e-5 0.0182-0.92218 0.5637-2.0491 1.2122-1.1269 0.64855-2.049 1.212-2.049 1.2521 0 0.0649 0.31358 0.83847 1.8729 4.6202l0.42559 1.0322-2.621 0.81472c-1.4416 0.4481-2.6422 0.83225-2.668 0.85368-0.0259 0.0214 0.48456 3.1194 1.1342 6.8844 0.9533 5.5245 1.1656 6.8646 1.0999 6.9446-0.0447 0.0546-1.1901 1.4601-2.5453 3.1234-2.1513 2.6405-2.4905 3.0285-2.6734 3.0584-0.24797 0.0405-12.895 1.0299-13.151 1.0288-0.15156-7.9e-4 -0.77576-0.72694-4.5913-5.342z" style="font-variation-settings:'wght' 600;paint-order:stroke fill markers" name="Valle de Ayora"/>
</svg>
