<?xml version="1.0" encoding="UTF-8" standalone="no"?>
<!-- Created with Inkscape (http://www.inkscape.org/) -->

<svg
   width="160.26115mm"
   height="101.02882mm"
   viewBox="0 0 160.26115 101.02882"
   version="1.1"
   id="svg1"
   fill="#ececec"
   stroke="#000000"
   stroke-linecap="round"
   stroke-linejoin="round"
   stroke-width="0.2"
   inkscape:version="1.4.2 (f4327f4, 2025-05-13)"
   sodipodi:docname="7.svg"
   xmlns:inkscape="http://www.inkscape.org/namespaces/inkscape"
   xmlns:sodipodi="http://sodipodi.sourceforge.net/DTD/sodipodi-0.dtd"
   xmlns="http://www.w3.org/2000/svg"
   xmlns:svg="http://www.w3.org/2000/svg">
  <defs
     id="defs1" />
  <metadata
     id="game-metadata">
        {
    &quot;title&quot;: {
        &quot;es&quot;: &quot;Comunidades Autónomas de España&quot;,
        &quot;ca&quot;: &quot;Comunitats Autònomes d'Espanya&quot;
    },
    &quot;category&quot;: {
        &quot;es&quot;: &quot;Geografía&quot;,
        &quot;ca&quot;: &quot;Geografia&quot;
    },
    &quot;translations&quot;: {
      &quot;Canàries&quot;:{
         &quot;es&quot;: &quot;Canarias&quot;,
         &quot;ca&quot;: &quot;Canàries&quot;
      },
      &quot;Comunitat de Madrid&quot;:{
         &quot;es&quot;: &quot;Comunidad de Madrid&quot;,
         &quot;ca&quot;: &quot;Comunitat de Madrid&quot;
      },
      &quot;Andalucia&quot;:{
         &quot;es&quot;: &quot;Andalucía&quot;,
         &quot;ca&quot;: &quot;Andalusia&quot;
      },
      &quot;Aragó&quot;:{
         &quot;es&quot;: &quot;Aragón&quot;,
         &quot;ca&quot;: &quot;Aragó&quot;
      },
      &quot;Astúries&quot;:{
         &quot;es&quot;: &quot;Asturias&quot;,
         &quot;ca&quot;: &quot;Astúries&quot;
      },
      &quot;Illes Balears&quot;:{
         &quot;es&quot;: &quot;Baleares&quot;,
         &quot;ca&quot;: &quot;Illes Balears&quot;
      },
      &quot;Canàries&quot;:{
         &quot;es&quot;: &quot;Canarias&quot;,
         &quot;ca&quot;: &quot;Canàries&quot;
      },
      &quot;Cantàbria&quot;:{
         &quot;es&quot;: &quot;Cantabria&quot;,
         &quot;ca&quot;: &quot;Cantàbria&quot;
      },
      &quot;Castella - la Manxa&quot;:{
         &quot;es&quot;: &quot;Castilla - La Mancha&quot;,
         &quot;ca&quot;: &quot;Castella - la Manxa&quot;
      },
      &quot;Castella i Lleó&quot;:{
         &quot;es&quot;: &quot;Castilla y León&quot;,
         &quot;ca&quot;: &quot;Castella i Lleó&quot;
      },
      &quot;Catalunya&quot;:{
         &quot;es&quot;: &quot;Cataluña&quot;,
         &quot;ca&quot;: &quot;Catalunya&quot;
      },
      &quot;Galícia&quot;:{
         &quot;es&quot;: &quot;Galicia&quot;,
         &quot;ca&quot;: &quot;Galícia&quot;
      },
      &quot;Comunitat Valenciana&quot;:{
         &quot;es&quot;: &quot;Comunidad Valenciana&quot;,
         &quot;ca&quot;: &quot;Comunitat Valenciana&quot;
      },
      &quot;Euskadi&quot;:{
         &quot;es&quot;: &quot;Pais Vasco&quot;,
         &quot;ca&quot;: &quot;Euskadi&quot;
      },
      &quot;Regió de Múrcia&quot;:{
         &quot;es&quot;: &quot;Región de Murcia&quot;,
         &quot;ca&quot;: &quot;Regió de Múrcia&quot;
      }
    }
        }</metadata>
  <sodipodi:namedview
     id="namedview1"
     pagecolor="#ffffff"
     bordercolor="#666666"
     borderopacity="1.0"
     inkscape:showpageshadow="2"
     inkscape:pageopacity="0.0"
     inkscape:pagecheckerboard="0"
     inkscape:deskcolor="#d1d1d1"
     inkscape:document-units="mm"
     inkscape:zoom="4.5433502"
     inkscape:cx="400.9156"
     inkscape:cy="110.161"
     inkscape:window-width="2880"
     inkscape:window-height="1514"
     inkscape:window-x="2869"
     inkscape:window-y="-11"
     inkscape:window-maximized="1"
     inkscape:current-layer="svg1" />
  <path
     d="m 83.02511,89.992821 c -3.558727,1.33007 -4.014315,-7.29451 -0.578675,-3.47231 2.971294,1.22033 1.70006,2.19133 4.629331,0.57873 3.748607,1.15829 -4.555117,1.41195 -4.050656,2.89358 z"
     name="Ceuta"
     id="path2" />
  <path
     d="m 100.01983,90.274711 c 0.33569,1.49431 2.29254,3.51123 2.55936,3.71197 -2.49252,0.0396 1.3549,4.70274 -2.849252,2.67968 -1.896937,-0.48772 -1.575067,-4.25955 -0.45243,-5.64928 -0.10521,-0.77036 -0.0123,-0.84028 0.742322,-0.74237 z"
     id="path64"
     name="Melilla" />
  <path
     name="Canàries"
     id="path3"
     d="m 56.530796,76.799231 c -1.00423,0.87308 1.163213,0.30566 0,0 z m 0.07466,1.71428 c -0.573345,0.78906 -0.292521,1.5321 0.329967,0.41519 0.33851,0.13764 -0.207005,-0.42044 -0.329967,-0.41519 z m 0.500408,0.74534 c -0.607439,1.1719 -1.098959,1.83536 -2.289345,1.62905 -0.627486,0.70497 -2.56199,0.96154 -2.044424,2.70453 -1.274461,0.91234 0.257935,1.04879 0.734768,1.05417 0.707114,-1.582 3.730587,-1.11098 3.758527,-2.93889 -0.329522,-1.05684 1.132508,-1.75602 -0.159526,-2.44886 z m -53.8142356,4.90002 c -0.5468363,0.48936 -1.4323348,1.11523 -0.6495461,2.12965 0.4916386,1.39852 1.181477,2.26644 1.3843107,3.4393 0.8268445,-0.46765 1.5392074,-2.45537 1.1499559,-3.03468 0.7686514,-0.71154 0.2696752,-1.93969 -0.4898465,-2.28934 -0.4770199,0.37681 -1.1479128,-0.13299 -1.394874,-0.24475 z m 48.8205326,1.79721 c -1.535119,0.1217 -1.586312,0.93619 -1.884722,2.4598 -0.431806,1.06794 -1.422607,2.04055 -1.543838,3.18363 -0.700572,0.91551 -0.483889,2.71183 -2.214689,3.02393 -0.671337,0.15476 -2.523714,0.61763 -1.469534,0.66012 1.457092,1.05776 2.489852,0.0134 3.183814,-1.22444 1.282741,-0.48711 3.173058,-0.29253 3.843748,-1.72502 0.499644,-1.06246 0.491888,-1.87618 0.574889,-2.85349 0.475249,-1.08557 0.481579,-3.15123 -0.489668,-3.52453 z m -27.51141,2.28742 c -0.0382,-8.8e-4 -0.08136,3.2e-4 -0.130826,0.004 v 1.8e-4 c -1.097728,0.75236 -1.668672,-0.41698 -2.363825,0.57489 -1.141922,0.46488 -1.150872,1.82083 -2.534092,1.7995 -0.968183,0.25732 -1.561246,0.19176 -2.459612,0.48984 -0.916052,-0.49085 -2.441081,0.2144 -1.224611,0.97951 0.487819,0.87278 0.645009,2.32129 1.639797,2.94946 0.01305,0.95779 0.798125,1.58699 1.62906,0.81981 1.045936,0.13681 1.902381,-1.27809 2.129644,-2.04442 0.839963,-1.29314 0.416819,-2.76524 1.873983,-3.52453 0.433338,-1.01417 1.584738,-0.61522 1.884546,-1.79932 -0.158209,-0.127 -0.176781,-0.24214 -0.444064,-0.24897 z m -13.621626,4.9127 c -1.9727144,0.74033 -0.145025,3.50772 1.224611,2.53409 1.279604,-0.55212 0.858719,-1.87085 -0.1597,-2.04424 -0.178962,-0.53031 -0.721589,-0.0816 -1.064911,-0.48985 z m 22.595358,0.73178 c -0.0069,-1.4e-4 -0.01406,1.1e-4 -0.02148,5e-4 -0.451501,1.20146 -1.276506,0.0806 -2.374566,0.48968 -0.119722,-0.55949 -1.481991,-0.45144 -1.064735,0.33014 -0.170419,1.30168 -2.402204,1.3297 -1.469357,3.10915 0.790762,1.42473 1.545003,1.98784 3.023936,2.12964 0.657094,-0.73692 2.42829,-1.05743 2.204124,-1.88471 0.428876,-0.88382 0.05782,-1.10203 0.255487,-1.7995 -0.733418,-0.40843 -0.716772,-1.99294 -0.500409,-1.95921 0.130225,-0.0711 0.16114,-0.41184 -0.053,-0.4159 z m -30.7728752,4.17671 c -0.8164193,0.34308 -1.2931935,1.68478 -2.53409249,1.06473 -0.82619929,1.137759 1.65326389,0.911629 1.95920159,1.799499 -0.1736168,-1.113839 2.232333,-2.439999 0.5748909,-2.864229 z" />
  <path
     name="Illes Balears"
     id="path4"
     d="m 157.92786,38.835296 c 0.085,0.605748 -1.25552,0.357628 -1.46124,0.440017 -0.74622,-0.06581 -1.00579,0.70105 -0.51476,0.896676 -0.19466,0.511722 0.32578,0.804242 0.76383,0.448332 1.39074,-0.34429 2.39953,1.55806 3.2546,0.82196 0.20404,-0.48308 -0.57736,-0.76672 0.19095,-0.50644 -0.80554,-0.46212 -0.3076,-1.364694 -1.02122,-1.278583 -0.12475,0.01746 -0.66965,-0.608835 -0.50644,-0.440023 -0.10748,-0.450219 -0.20265,0.516349 -0.44834,-0.06642 -0.15157,0.491454 -0.0302,-0.506627 -0.25738,-0.315498 z m 0.51476,0.57286 c 0.0756,-0.182493 -0.18249,0.07559 0,0 z m 1.21217,0.57286 c -0.0712,0.224422 0.18581,0.123444 0,0 z m -9.05812,0.763835 c -0.8569,0.76484 -0.96968,0.12268 -1.71864,0.69741 -0.39852,-0.10311 -1.20401,0.83705 -1.53595,0.7057 -0.74795,0.62254 -0.94811,1.04813 -1.84316,1.78506 -0.52908,0.34628 -2.13605,1.37439 -1.21217,1.78505 0.0237,0.21512 1.00775,-0.10608 0.63099,0.38192 0.3825,0.63957 0.76673,0.23275 0.70571,-0.3155 0.65498,-0.1652 0.72464,-0.81795 1.59408,-0.13284 0.0345,0.73684 0.15236,2.0077 1.27858,1.72692 1.11688,-0.41004 0.8991,0.84968 1.78506,0.83026 0.51093,-0.81745 1.03759,-0.77165 1.33669,-1.27859 0.046,-0.83222 0.5921,-1.85618 1.07933,-2.23336 -0.16687,-0.67362 0.53482,-0.72542 0.51476,-1.46954 -0.0189,-0.151 -0.53657,-0.57727 -1.21217,-0.63099 -0.006,1.00201 -2.11516,0.41372 -1.6605,-0.51476 0.92223,-0.61529 0.0436,-0.24542 -0.44003,-0.3155 -0.18597,-0.72025 0.70642,-0.43181 1.01292,-1.02122 -0.11682,-0.0368 -0.51596,0.32684 -0.3155,0 z m 0.12454,0.83025 c 0.32027,-0.0146 -0.0475,-0.28337 0,0 z m 1.02122,4.84044 c -0.0909,0.25902 0.20724,0.0992 0,0 z m -7.52195,-0.69742 c -0.20399,-0.0343 0.0343,0.20399 0,0 z m 15.36803,-4.97327 c 0.22029,0.0691 -0.0912,0.12255 0,0 z m -15.6834,4.33378 c -0.40187,0.21331 -0.29559,0.56282 0,0 z m 5.41325,4.08484 c -0.0765,0.34233 0.27822,-0.10853 0,0 z m -0.0581,0.24908 c -0.2737,0.25731 -0.27179,0.44767 0.12454,0.32381 -0.21258,-0.18575 0.39807,-0.22723 -0.12454,-0.32381 z m -0.0664,0.19926 c 0.0993,-0.14566 -0.37432,-0.0384 0,0 z m -11.7314,1.01291 c -0.65458,0.18976 -0.84582,0.55238 -1.46953,0.51475 -0.49119,0.49605 -0.62292,0.9546 -0.44002,1.21217 -0.83105,-0.21021 -0.55753,0.21547 -0.58118,1.02123 0.62924,0.22678 0.71134,-0.23848 1.27859,0.24907 0.34661,0.23643 0.31523,-1.07441 0.9548,-0.88838 0.33551,-0.47849 0.60969,-0.87643 1.02123,-1.27859 -0.22911,-0.36582 -0.28112,-0.62587 -0.69742,-0.76383 v -0.0664 z m -0.57286,2.23336 c -0.0913,0.12256 0.22029,0.0691 0,0 z m 0.25738,1.14575 c -0.063,0.25078 0.22107,0.26045 0,0 z m -0.44834,0.13284 c -0.24459,0.28367 0.38032,0.20213 0,0 z m 0.12454,0.44834 c -0.43354,-0.009 -0.68732,1.64693 0,0.88838 1.48128,-0.0663 1.3118,0.0595 0.25738,-0.57286 -0.12235,0.031 -0.11856,-0.30242 -0.25738,-0.3155 z" />
  <path
     d="m 53.258848,16.410894 c 0.413787,-0.447823 0.224433,-0.175917 0.761981,-0.508037 0.191291,-0.409722 0.809146,-0.142764 0.634984,-0.698548 -0.01543,-0.774772 -0.411101,0.793809 -0.952476,0.381027 -0.317516,0.350677 -0.491543,0.209686 -1.079476,0.317521 -0.104206,-0.916331 0.473935,-0.511083 0.380992,-0.444529 -0.130133,-0.788279 -0.03077,-0.331716 0.571487,-0.508035 0.159126,-0.58535 0.898297,-0.737746 0.761981,-0.825558 -0.287729,-0.39514 -0.816684,0.5181 -1.269971,0.190513 -0.426667,0.450538 -0.308602,-1.102309 -0.825481,-0.635042 -0.05704,-0.453377 0.518133,-0.385312 0.571487,-0.444532 -0.133583,0.536232 0.144658,0.535673 0.317494,0.317521 -0.02064,-0.384477 0.154969,-0.321077 0.0635,-0.635042 -0.186592,-0.227587 -0.01482,-0.266007 0,-0.57154 0.421836,0.202042 0.503938,-0.603889 0.825481,-1.016068 -0.27926,0.581709 -0.856893,0.41916 -0.888979,-0.06351 -0.0399,0.301234 -0.166674,0.98656 -0.380992,0.698548 -0.02519,-0.818396 -0.485465,0.430748 -0.507989,0.254018 -0.465767,0.244418 -0.524309,0.997325 -0.825479,0.57154 0.379455,-0.402662 -0.693999,-0.495397 -0.0635,-0.889061 0.123494,-0.708312 0.622308,-1.285328 1.142974,-1.778124 0.445328,0.157688 0.461454,-0.5879221 0.253994,-0.3810261 -0.332168,0.4127811 -0.600368,0.3442851 -0.888978,0.3810261 -0.141293,-0.3798681 -0.42117,-0.06267 -0.44449,0.190513 C 51.20862,10.758565 50.402519,9.6430889 51.163397,9.6159219 50.78975,9.1975139 50.921148,8.9086579 50.9729,8.6633549 c -0.322673,-0.09806 -0.380005,-0.865985 -0.380989,-0.127007 -0.263475,-0.50763 -0.611804,0.113004 -0.698484,0.254018 -0.463188,-0.470156 0.460263,-0.883697 0.0635,-1.333593 -0.336018,-0.67797 0.231926,-0.205633 0.317495,-0.762052 0.26126,-0.35826 0.632518,0.262274 0.634984,-0.44453 0.03368,-0.06337 -0.438997,0.132063 -0.317492,-0.254018 0.387281,-0.42796 0.721804,-0.444811 1.079473,-0.190513 0.597384,-0.630341 0.482772,-0.30979 1.142974,-0.508035 -0.41438,-0.335262 -0.278353,-0.630613 0.126997,-0.635042 0.313164,-0.389037 0.671372,-0.119462 0.761984,-0.444532 0.129913,0.721096 1.313783,0.53384 1.904955,0.381027 0.773277,0.117396 0.698143,-0.473373 1.015976,-0.444532 0.431075,-0.134407 0.466016,-0.311835 0.571487,0 -0.07231,0.579732 0.509768,0.067 0.380992,-0.190513 0.255077,-0.548528 0.805733,0.785273 1.015976,0.635045 -0.320997,-0.39521 0.225378,-0.832652 0.190495,-0.952566 -0.420957,0.125686 -1.003602,-0.162706 -0.888979,-0.381027 0.567492,0.222686 1.383226,-0.400515 1.142974,-0.508034 -0.389009,0.551345 -0.620607,0.177159 -0.761982,0.254018 -0.393467,0.291646 -0.859986,0.212744 -0.507989,-0.317524 0.137869,-0.214664 0.282654,-0.625643 0.190497,-0.635042 0.64406,0.38335 0.88519,-0.691642 1.333468,-0.57154 0.514081,-0.358708 0.230135,-0.271408 0.698485,-0.190513 -0.251034,-0.127643 -0.330423,-0.71140003 0.634984,-0.63504203 0.432839,-0.381783 0.940122,-0.844879 0.952478,0 -0.347448,-0.06813 -0.06753,0.45001303 -0.380992,0.50803403 0.368793,0.304918 0.377233,-0.16592 0.444492,-0.31752103 0.179867,0.14923603 0.113636,0.14384 0.317493,-0.254018 0.433824,-0.03567 1.489572,-0.964678 0.888978,-0.190514 -0.02797,0.322715 0.506416,-0.213311 0.571487,0.381027 0.02402,0.27226203 0.122838,0.87208203 0.253995,0.190513 0.41529,-0.533208 0.774208,-0.181783 1.015976,0.0635 0.218792,0.03257 0.892551,0.517674 0.952479,0.889061 0.636778,0.478193 0.344543,0.82803 0.571487,0.698548 0.638823,0.05341 1.463577,0.03416 1.587463,0.190513 0.06223,0.819246 -0.676744,1.389042 -1.079477,1.33359 -0.325614,0.4707 0.4249,0.294308 0.317492,0.952566 0.407422,0.396756 0.345395,0.482004 0.57149,1.143079 0.581361,-0.01248 0.38721,0.787632 0.761981,1.016069 0.551916,-0.406586 0.742934,-0.68867 0.888979,0.06351 -0.437832,0.783136 -1.186034,0.227533 -1.206471,1.079574 -0.38132,-0.09106 0.187415,0.836773 0.126998,0 0.413943,0.285028 1.118147,1.051046 0.888978,1.4606 0.0057,0.3065651 -0.156575,0.5113741 -0.253994,1.0795741 -0.550516,0.55577 -0.76176,0.435142 -1.142974,0.698548 -0.65483,0.304117 0.218583,0.886449 -0.380992,1.079574 0.08341,0.592704 -0.732314,1.290739 0.317495,1.333592 0.322037,-0.264505 1.333005,-0.04063 1.460465,0.508035 -0.548073,0.622446 0.101973,0.768824 0.507987,1.206582 0.114853,0.534195 -0.651886,1.265515 -0.571487,1.333592 -0.959791,-0.239557 -1.37346,1.011382 -1.65096,1.33359 -0.642144,0.336263 0.800568,0.595063 0,1.14308 -0.233233,0.983232 -1.516753,-0.846088 -1.587463,0.381026 0.459745,0.875076 -1.447379,0.883845 -1.77796,1.14308 -0.08023,0.535159 -0.589489,-1.082602 -0.761982,-0.317524 -0.699116,0.474147 -1.010509,-0.06676 -0.698484,-0.317521 -0.698703,-0.311978 -1.691812,-0.47137 -2.285947,0.190513 -0.08264,-1.378156 0.0021,-0.354629 -0.825481,-0.317521 -0.437618,0.770253 -1.56613,0.897632 -1.587463,-0.127011 -0.687001,-0.198169 0.385418,-1.393067 0.888979,-1.587608 0.0011,-0.946735 -1.32053,-0.148588 -0.761982,-1.270088 -0.77389,-0.05511 -1.314397,0.940645 -2.412944,0.508035 -0.513641,0.232227 -1.459153,0.202028 -1.77796,0.952566 -0.424466,0.136813 -1.426845,1.50419 -1.523966,0.762053 0.0092,-0.682498 0.07687,-1.287347 0.0635,-1.968635 -0.02963,-0.589025 0.855043,-0.215959 0.507987,-0.698548 0.329451,-0.398173 0.02307,-0.330918 0.444492,-0.508034 z m -0.253995,-0.825558 h 0.0635 z"
     id="path84"
     name="Galícia" />
  <path
     d="m 128.06012,12.1561 c 0.43331,-0.357051 -0.33248,-0.809276 -0.0635,-0.952566 -0.0212,-0.534972 0.16111,-1.2206881 1.01598,-0.635042 0.6609,-0.119121 0.9925,0.601007 1.52397,0.317521 0.54581,-0.02376 1.147,0.363756 1.58746,0.825558 0.90045,-0.291754 1.5148,-0.214133 1.90496,0.571537 0.40789,0.47321 0.0334,1.065529 0.25399,1.143079 0.38582,0.341611 -0.43566,1.122682 0.50799,1.14308 0.57044,-0.07066 0.65037,-0.397637 1.33347,-0.508035 0.0542,-0.601694 1.59486,-0.113512 1.84145,0.190514 0.60993,-0.3951 0.55168,1.632854 1.46047,0.76205 0.4421,-0.604904 0.8736,-0.564632 1.46047,-0.825556 0.7748,0.134279 1.49388,0.614689 2.15895,0.952567 0.144,-0.525289 1.51368,0.205478 1.01597,-0.57154 0.0438,-0.530665 1.20197,-0.332274 1.46047,-0.889061 0.69224,-0.147198 1.37645,-0.582852 1.96845,0.190513 0.83339,-0.508029 0.372,0.210415 0.63499,0.571537 0.0735,0.432278 0.59939,0.06463 0.69848,0.317524 0.66362,-0.125305 0.39889,0.368053 0.254,0.444529 -0.0125,0.245638 -0.0877,0.652075 -0.38099,0.508035 -0.26986,0.300057 -0.75708,-0.69799 -0.88898,0.508037 -0.0603,1.348014 1.00865,0.752007 0.82548,1.587608 -0.1091,0.662993 0.4788,0.995558 0.25399,1.270087 -0.0548,0.332791 -0.4782,0.886029 -1.01597,1.206582 -0.28873,0.65882 -0.76196,0.727008 -1.33347,1.333593 -0.75448,0.188243 -1.96045,1.436365 -2.73044,1.587608 -0.98007,0.721768 -1.73693,1.054667 -2.47644,1.778122 -0.34861,0.543422 -0.47331,0.326424 -0.44449,0.635045 -0.13252,0.239519 0.0295,0.225986 -0.50799,0.952564 -1.25239,0.354491 -2.41139,0.713917 -2.98443,0.952566 -0.30538,-0.0016 -2.40629,0.762799 -3.17493,1.079574 -0.85401,0.207404 -0.67746,0.362585 -0.82548,0.254018 -0.24019,0.143338 -0.41729,0.780294 -0.88898,0.381027 -1.71045,0.437343 -2.25004,2.203114 -3.04793,2.921198 -0.54907,0.662432 1.15244,0.524883 0.0635,0.317524 0.42149,-0.270359 1.03713,0.957106 1.26997,0.635042 -0.60771,0.505698 -1.50851,2.238926 -2.28595,1.651114 0.32995,-0.135877 0.94423,-0.04685 1.20647,-0.698548 -0.26284,-0.09033 -1.33725,0.256728 -1.33346,0.381027 -0.17313,0.896101 -1.22163,0.994029 -1.26998,0.317521 -0.27102,-0.466699 -1.82134,-0.163333 -1.14297,-1.079574 -0.45553,-0.327628 -0.7793,-0.339056 -1.01597,-0.635042 0.61517,-0.0057 0.97396,-1.10412 0.57148,-1.524106 0.27356,-0.518988 0.34522,-1.028536 0.127,-1.397095 -0.10495,-0.180594 -0.45529,-0.164532 -0.44449,-0.698548 -0.5224,-0.71089 0.95795,-0.448059 0.76198,-1.460601 0.90659,-0.0032 0.19522,-1.098817 0.31749,-1.651113 -0.51598,-0.47035 -0.0911,-1.185543 0.381,-1.587609 0.62182,-0.954831 -0.64731,-0.61699 -0.76199,-1.4606 -0.0208,-0.907058 0.97702,-0.999152 1.33347,-1.714619 0.47448,-0.260815 1.09165,-0.913916 0.50799,-1.270088 -0.18391,-0.569977 0.95611,-0.483422 0.57149,-1.206582 0.60236,-1.036824 0.17193,-1.931754 0.76198,-3.048209 -0.065,-0.216062 -0.19302,-0.74319 -0.19049,-0.571539 -0.10622,-0.470418 -0.71102,-1.269359 -0.1905,-1.460601 -0.0257,-0.292949 0.62947,-1.206563 -0.31749,-1.206582 0.12976,-0.289849 -0.18846,-0.459223 -0.3175,-0.635045 z"
     id="path86"
     name="Catalunya" />
  <path
     d="m 66.085551,59.974881 c -0.43139,-0.43477 -1.484074,1.01939 -1.650963,-0.31752 -0.284287,-0.6188 -1.159348,-2.13383 -1.587463,-2.34966 0.556289,-0.468 -0.210719,-0.46181 0.380992,-1.20658 0.679749,-0.48449 -0.265842,-1.63446 0.825479,-2.03214 0.701561,-0.70758 1.522749,-1.01664 1.523966,-1.77812 0.999553,-0.60005 0.712965,-2.60577 -0.571487,-1.90513 -0.522393,-0.23508 0.01389,-1.08845 -0.825481,-1.01608 -0.333756,-0.51265 -0.298077,-1.29493 -0.698485,-1.77812 0.04946,-0.77236 0.146611,-1.5148 -0.571486,-1.587606 -0.169469,-0.558585 -1.246942,-1.128852 -1.142974,-1.905132 1.382027,0.516033 2.482752,0.07439 3.873413,0.317524 1.141312,-0.468916 0.300101,-1.814383 1.396965,-2.222653 -0.122306,-0.545997 0.840621,-1.688743 0,-2.095643 -0.25628,-0.880245 -1.039857,-0.310523 -0.761981,-1.524106 0.389572,-0.629605 1.292585,-0.643046 1.841458,-0.317521 0.388426,-0.233011 0.753316,0.07892 1.26997,-0.254019 0.923497,0.30525 0.646777,-1.227465 1.714461,-1.016069 0.53608,-0.392792 1.185193,-0.935471 1.841457,-1.143079 0.570397,0.460367 0.948548,0.673986 1.142974,1.079574 -0.419436,0.267893 0.296026,0.389678 0.507989,0.825558 0.434809,0.828297 1.042496,-0.11159 1.269971,-0.12701 0.79773,-0.75996 0.237339,0.992724 1.015976,0.444531 0.837962,0.168926 1.320451,1.688823 2.222447,0.762053 0.844688,-0.708112 0.910831,-0.259138 0.698485,0.508035 0.434191,0.720725 -0.252212,1.222772 0,2.095643 -1.337271,1.515596 0.738044,0.66091 0.507989,1.524105 -0.672703,0.618221 0.340315,1.438482 0.698484,0.508035 0.59966,0.14886 0.468302,0.925922 0.38099,1.524103 -0.882132,0.629065 0.381793,1.628097 0.952478,1.968637 0.629399,1.51308 1.868464,1.0605 2.920934,0.38102 0.344316,0.7944 -0.973206,1.19406 -0.444489,2.03214 0.559945,0.84185 0.982866,1.06156 -0.380992,0.63505 -0.899396,-0.0711 -0.699612,1.35706 -0.571487,1.5241 -0.541504,0.18246 -1.456224,-0.41924 -0.634987,0.95257 0.599001,-0.1636 1.038066,0.8139 0.190498,0.76205 -0.814425,0.35092 -0.50005,1.95784 -1.650963,1.77812 -0.845204,-0.10614 -0.748261,0.1343 -0.888979,0.57154 -0.191786,-0.2375 -0.810901,0.86039 -1.333471,0.82556 -0.571468,0.1429 -0.312896,0.68113 -1.142974,1.01607 -0.156162,0.32086 -1.346258,0.49871 -0.698481,1.20658 -0.370147,0.69391 0.64326,1.17487 0.0635,2.15915 -0.311613,0.23735 -1.116351,0.67292 -1.650963,0.82556 -0.08622,-0.798 0.713968,-0.8188 0.317495,-1.07958 -0.61232,-0.022 -1.022533,5.3e-4 -1.523966,0.38103 -0.577233,0.36506 -0.138522,0.79332 -0.507989,1.20658 -0.349184,0.80353 -1.690349,0.085 -2.09545,0.95257 -0.433924,-0.51385 -1.531408,-0.29518 -1.523965,-1.27009 -0.915519,-0.4447 -0.643192,0.51523 -1.142974,0.38103 -0.660844,-0.24194 -0.731388,0.0321 -0.888979,-0.82556 -0.808352,-0.2914 -1.220668,0.0426 -1.714463,-0.44453 0.634828,-0.90946 -0.50474,-0.53559 -0.952476,-0.95257 z"
     id="path87"
     name="Extremadura" />
  <path
     d="m 66.085551,59.974881 c 0.479441,0.33641 1.584077,0.17585 0.952476,1.07958 0.573757,0.13231 0.785924,0.24888 1.460469,0.19051 0.696544,0.28887 0.08653,1.08742 0.952476,0.82556 0.670388,0.68925 0.305017,-0.81442 1.142976,-0.19052 0.294796,0.27262 0.813046,1.04928 1.523963,0.95257 0.292518,0.43106 1.101788,-0.62404 1.650963,-0.25402 0.601295,-0.009 0.971029,-0.79277 0.761981,-1.20658 0.56414,-0.86345 1.110695,-0.71565 1.714461,-0.88906 0.514342,0.15781 0.278146,0.3995 -0.126998,0.63504 -0.140692,1.18183 1.097063,-0.17023 1.523966,-0.19051 0.544761,-0.55094 0.166677,-1.51413 -0.0635,-1.96864 -0.04356,-0.46516 0.0259,-1.41637 0.698484,-1.33359 0.673907,-0.56533 0.856088,-0.78509 1.142973,-1.27008 0.63599,0.30621 1.228143,-1.05727 1.460466,-0.76206 0.22565,-0.24522 -0.104884,-0.9043 0.761981,-0.44453 0.762368,-0.63611 0.889738,0.63762 1.841458,0.25402 -0.151421,1.09356 1.307303,1.05466 1.71446,1.5241 0.640689,0.70137 1.312376,0.71903 1.841458,1.58761 0.711861,0.0492 1.535268,1.17883 1.523965,0.0635 1.090137,-0.01 2.836977,0.77832 3.619416,0 0.587147,-0.82993 2.109183,0.75179 2.285953,-0.50804 0.32341,0.75516 1.62009,0.64287 1.58746,-0.25402 0.85071,-0.21348 1.8434,0.92532 2.60344,-0.0635 0.791,1.63637 0.30142,-0.15138 1.33347,0.12701 0.488952,0.22269 0.649612,-0.36881 1.079482,-0.44453 0.0993,-0.4604 1.082,0.39307 1.52396,0 0.47611,0.36702 -0.15831,1.31783 0.95248,1.20658 -0.27763,0.93086 0.61864,1.29664 0.31749,2.03214 -0.0669,0.64349 -1.52296,1.49686 -0.1905,1.58761 0.83987,0.30332 1.52776,0.52667 2.03196,1.3971 0.83219,0.46611 1.28862,0.48275 2.09545,0.50803 -0.27442,1.23722 -0.32629,2.57766 0.63499,3.55625 0.49469,1.51717 1.49108,0.60081 2.47644,1.77812 -0.98959,0.86493 -1.80431,1.89132 -1.84146,3.30223 -0.593,0.60463 -0.18213,1.1268 -0.63498,1.39709 -0.83702,0.38774 -0.45449,1.04115 -1.20648,1.3971 0.11631,0.3297 -0.49794,0.91813 -1.14297,0.88906 -0.44177,-1.46233 -1.67307,-0.86967 -2.41295,-1.20659 0.0596,-0.0685 -1.29982,0.60412 -1.46046,1.46061 -0.92548,0.55607 -1.0761,-0.14631 -1.77796,0.0635 -0.709862,-1.00949 -1.999792,-0.27556 -2.984432,-0.57154 -1.04376,-0.31916 -1.83161,1.16871 -2.79394,0.25402 -0.21837,0.11272 -1.43227,-0.47047 -1.777959,0.0635 -0.533067,-0.74407 -1.979012,0.13292 -2.857434,-0.38102 -0.818568,0.94771 -3.124213,-0.1083 -3.174926,0.57154 -0.339317,1.15592 -1.551419,1.24376 -1.904958,1.96863 -0.89009,0.54095 -2.27929,-0.52065 -3.174925,0.44453 -1.696072,0.15501 -2.362939,1.78512 -2.793937,3.23872 -0.833517,-0.86191 -1.127905,0.48418 -0.825479,0.31753 -0.133511,-8e-4 0.124767,0.78633 -0.634986,0.82555 -1.036376,0.94896 -0.959864,-0.36646 -1.904955,-0.25401 -0.789149,-0.0726 -1.247805,-1.25634 -1.841458,-1.3971 -1.072653,0.53497 -1.259322,-1.25307 -1.77796,-1.3971 -0.42294,-0.80256 -1.098452,-2.03141 -1.269971,-2.41316 0.331012,-0.2858 0.162859,0.49977 0.698484,0.69855 0.444386,-0.53466 0.487913,-0.46252 -0.253992,-0.57154 0.632923,-0.3807 -0.129302,-0.905 -0.698484,-1.14308 -0.628343,0.21769 -1.283058,-1.5597 -0.190498,-1.65112 -0.193683,-0.72102 -1.167918,-2.41866 -2.285947,-2.9847 -1.298233,-1.00543 -2.250829,-1.11159 -3.238426,-1.77813 -0.669983,-0.12422 -2.359432,-0.0727 -3.111426,0.19052 -0.372157,-0.90855 -0.319378,-2.2571 -0.380992,-2.98471 -0.20928,-0.74963 -0.782399,-1.24494 -0.190494,-1.65111 0.506277,-0.70861 0.408792,-1.71595 1.333468,-2.09564 0.898189,-0.51028 0.552019,-1.94001 1.142973,-1.96864 0.930627,0.29196 0.669095,-0.78207 1.333469,-0.31752 0.612346,0.61144 0.81417,-1.10668 0.952479,-1.33359 -0.370176,0.15717 0.17998,-0.48426 0.253994,-0.50804 z"
     id="path88"
     name="Andalucia" />
  <path
     d="m 98.025308,5.6786559 c 0.43868,-0.289444 1.00669,0.160016 0.88899,0.190513 0.22472,0.299002 0.394,-0.284402 -0.3175,-0.444532 1.02211,0.04341 0.84899,-0.78644 1.460472,-0.635042 0.62261,0.36981 1.07504,-0.644481 1.33347,0.190513 0.46907,0.123292 1.33634,0.28113 1.90496,0.698548 0.49414,0.552948 1.46879,0.60432 2.15895,0.508034 0.51967,0.363877 1.59627,-0.41077 1.96845,-0.317521 0.30083,0.0097 1.42486,-1.231838 1.20647,-0.254019 0.70955,0.223743 0.45021,0.726544 0,0.889061 -0.2672,0.925289 -0.71804,0.212859 -0.69848,0.698551 -0.0701,-0.411299 -0.52038,0.09115 -0.127,0.698547 -0.5046,0.595344 -1.09801,0.818577 -1.14297,1.778122 -0.36789,0.204206 -0.94388,0.5885311 -1.26997,0.317521 -0.44804,0.5107701 2.6e-4,1.0488761 -0.50799,1.7781221 0.21268,0.488322 -0.75695,0.836379 -0.127,1.079574 -0.14911,0.716051 -1.14869,-0.08111 -0.95248,0.190513 -0.59103,0.419943 -0.80078,0.770573 -0.19049,0.952566 0.48888,-0.997301 0.54322,1.148834 -0.0635,0.825556 -0.72997,-0.161875 -0.32962,-0.03064 -1.07948,0.12701 -0.0105,0.0037 -0.55207,0.08119 -0.69848,-0.444531 -0.0271,0.294366 -0.41661,-1.898992 -0.82548,-0.57154 -0.67152,0.57335 -0.15651,-0.284593 -0.50799,-0.508035 -0.560352,-0.415055 -0.459272,-0.92264 -1.142972,-0.952566 -0.45798,-0.344366 -0.45993,-0.628838 -1.26998,-0.444529 0.22287,-0.43138 -0.11116,-0.809333 0.381,-1.270087 -0.72827,-0.196069 -0.77469,1.152093 -1.39697,0 0.13589,-0.7700781 0.89976,-1.0480841 1.20647,-0.254019 0.65548,0.147828 1.62684,-0.43536 0.63499,-0.7620521 0.13934,-0.576051 -1.41506,-0.243261 -0.76199,-0.698548 0.11323,-0.759024 -0.4415,-0.692485 -0.0635,-1.33359 -0.1092,-0.215625 -0.76275,-0.06102 -0.88897,-0.317524 -0.70926,0.365004 -1.45092,1.077508 -1.39697,-0.317521 0.16388,-0.248742 0.94285,-0.881042 1.14297,-0.762053 0.52754,-0.237626 0.96982,0.411333 1.14297,-0.508034 v -0.0635 z m 2.920942,5.9694101 c -0.74381,-0.03261 -0.88359,0.873945 -0.0635,1.016069 0.11963,0.767402 1.10974,0.0032 1.39697,0.571539 0.42162,0.281115 1.24538,-0.449977 0.25399,-0.254016 -0.594,-0.523112 0.69579,-0.926832 -0.31749,-1.079574 -0.47183,0.142906 -0.67344,-0.321989 -1.26997,-0.254018 z"
     id="path89"
     name="Euskadi" />
  <path
     d="m 117.07488,10.060457 c -0.049,0.557918 1.03724,0.62501 1.14297,1.206582 0.20391,0.560767 0.90583,-0.01035 0.69848,-0.127008 0.82537,0.572559 1.50042,-0.947999 2.03196,0 0.78206,0.07551 0.84729,0.79851 1.39697,1.016069 0.57722,0.561778 1.45465,-0.347523 2.15895,-0.317521 0.50969,0.345492 0.84865,0.722283 1.07947,0.190513 0.39083,-0.120863 0.89666,0.425347 1.39697,0 0.64868,-0.0523 1.42917,0.166917 1.58746,0.825556 0.83187,0.115688 -0.1048,1.008162 0.127,1.333592 -0.65517,0.02655 0.43917,1.213416 0.127,1.460601 0.45902,0.06697 0.034,0.369457 0.0635,0.952566 -0.27603,0.826749 -0.2404,1.908512 -0.50799,2.730685 0.0709,0.450152 -0.82591,0.474598 -0.63499,0.952566 0.58366,0.356172 -0.0335,1.009273 -0.50799,1.270088 -0.35645,0.715467 -1.35427,0.807561 -1.33347,1.714619 0.11468,0.84361 1.38381,0.505769 0.76199,1.4606 -0.47206,0.402066 -0.89698,1.117259 -0.381,1.587609 -0.12227,0.552296 0.5891,1.647901 -0.31749,1.651113 0.0583,1.065581 -1.38699,0.810001 -0.69848,1.714617 0.0175,0.417475 0.50324,0.236696 0.44449,0.698547 0.24267,0.680027 -0.49288,1.282989 0.0635,1.905133 -0.22469,0.635629 -0.96863,0.656714 -0.82548,1.016068 -1.0156,0.331275 -1.00747,0.155565 -1.90496,0.06351 -0.66144,-0.727721 -1.33415,-0.745077 -1.39697,0.317521 -0.26638,0.708544 -1.33483,-0.07119 -1.07947,0.762053 0.43472,0.379066 0.79172,0.144825 0.76198,0.889061 0.0897,0.626933 0.0884,0.911505 -0.44449,1.079574 0.66581,0.766545 0.61834,0.761508 0.0635,1.270087 -0.12524,0.330478 -0.46768,0.01669 -0.38099,0.698548 -0.75056,0.628187 -1.53113,-0.05918 -1.46047,1.206582 -0.4693,0.573029 -0.21956,1.173287 -1.26997,1.270087 -0.23167,0.16334 -1.0053,1.102312 -0.88898,0.889061 0.008,0.585287 0.63568,0.884272 -0.1905,1.206584 -0.69279,-0.436906 0.096,-1.442024 -1.14297,-1.397097 -0.69792,-0.0154 -1.30236,0.463002 -1.20647,-0.381024 1.45736,-0.433491 -0.34514,-1.194239 -0.82548,-1.14308 -0.26161,-0.700217 -0.57897,-1.150403 -0.69849,-0.190513 -0.77227,0.530855 -0.82864,-0.626081 -1.46046,-0.635045 -0.57761,0.609203 -1.38641,-1.788266 -1.71446,-0.698547 0.17549,-0.604441 -0.2381,-0.8729 -0.63499,-1.33359 -0.31695,-0.281059 1.20155,-0.915255 0.82548,-1.778122 0.26395,-0.281771 1.58569,-0.0084 1.14298,-1.397098 -0.0872,-0.739836 0.15931,-1.465336 -0.63499,-1.968635 0.1883,-1.007528 -1.16874,-1.685224 -1.77796,-2.349661 -0.71837,-0.515546 -1.13827,-0.691581 -1.96845,-0.635043 -0.96053,-0.207113 -0.88031,-2.008904 -0.38099,-2.413166 0.18268,-1.421498 0.5489,0.320426 1.07947,-0.06351 0.77647,-0.115234 -0.11932,-1.389018 0,-1.778122 -0.26926,-0.853056 0.87909,-0.231508 1.01598,-1.079574 1.04102,-0.295807 0.32864,-0.956607 0.0635,-1.587609 0.55493,-0.626382 -0.54127,-1.65869 0,-2.095643 0.48419,0.105525 1.11011,0.657554 1.58746,0.44453 0.76061,0.790835 2.18736,0.677089 2.28595,-0.44453 1.01348,-0.869609 -0.47066,-0.793715 -0.381,-1.651113 -0.2716,-0.800134 0.22267,-1.648616 0.44449,-2.349662 -0.4966,-0.250869 0.85921,-1.227471 0.381,-1.587611 0.2659,-0.435898 1.03401,-0.49068 0.82548,-0.952563 0.12347,-0.260249 1.24626,-1.142178 1.07947,-0.57154 0.0267,-0.651303 1.11229,-0.565895 1.14298,-1.143079 0.56412,-0.07477 0.069,-1.01904 0.57148,-1.33359 -0.13811,-0.229592 0.48157,-0.5372911 0.69849,-0.381026 z"
     id="path91"
     name="Aragó" />
  <path
     d="m 69.323977,2.6939489 c 0.650399,0.161077 0.79293,0.04196 1.523963,0.127011 0.275606,-0.09694 1.047269,0.383601 1.523966,0.0635 0.770067,0.32854 1.363085,-0.160919 1.77796,-0.190514 0.31323,0.232373 0.791268,0.475679 1.587463,0.127011 0.473691,0.217747 0.674277,-0.284124 1.269971,-0.635045 0.294687,-0.253129 0.570005,0.2759 0.761981,0.57154 0.286562,0.361033 0.777825,0.211689 0.44449,0.381026 0.12515,0.130811 0.115715,0.256758 0.698484,0.0635 0.808035,0.122147 1.699551,0.04802 2.095452,0.317522 0.658873,-0.0386 1.022924,1.02261 1.65096,0.571539 0.742178,0.271772 2.02242,0.368168 2.285947,0.508035 0.624819,0.188736 1.592885,0.600942 2.412945,0.508034 -0.217874,0.497959 0.06678,0.659664 -0.126995,1.333593 -0.588036,-0.582104 -0.89499,0.190558 -1.523965,0.127008 0.30031,0.979714 -1.202532,1.037932 -1.142974,0.254018 -0.753621,-0.06606 -0.967674,0.709909 -1.587463,0.571537 -0.09248,0.666431 -0.386646,0.729237 -0.888981,0.762053 -0.325639,0.352699 -1.12539,0.06824 -1.523963,0.127011 -0.278239,0.550992 -0.996929,0.412445 -1.396969,0.635042 -0.53109,-0.265993 -1.608941,-0.690985 -1.650962,0.508034 -1.062636,0.04876 -1.284859,-0.301018 -1.714461,-1.143076 -0.47998,0.273386 -0.768519,-0.258331 -1.015976,0.381023 -0.466127,-0.36916 -0.788323,0.270721 -1.206473,0 -0.520081,-0.207437 -1.003192,-0.543469 -1.079474,0.254019 -1.130686,0.01281 0.139954,0.442818 -0.571487,0.698548 -0.630452,0.277438 -1.948442,-0.183815 -2.349447,0.381026 -0.645742,-0.31456 -0.504714,-1.148414 -1.269971,-1.397095 -0.265877,-0.552904 -0.140935,0.79952 -0.444489,-0.190513 0.428572,-0.164351 0.2413,-0.721197 1.015976,-0.635045 0.769353,-0.284689 0.09626,-1.483917 -0.190495,-0.698548 -0.78885,0.751673 -0.382053,-1.007577 -0.888978,-0.635042 -0.577364,-0.389636 -0.128315,-1.080156 -0.698485,-1.14308 -0.02782,-0.621457 -0.325186,-0.657622 -0.444489,-0.952566 -0.05854,-0.476347 0.727432,-0.03318 0.888979,-0.698547 0.298709,-0.692197 0.310065,-0.994761 1.015976,-1.016069 -0.07521,-0.103441 0.767442,0.166063 0.761984,0.0635 z m 0.0635,0 c -0.210603,0.06608 0.08724,0.117173 0,0 z m 0,0 h -0.0635 z"
     id="path132"
     name="Astúries" />
  <path
     d="m 110.91552,69.500541 c -1.00244,-1.14672 -1.99898,-0.28836 -2.47644,-1.77812 -0.95941,-0.98178 -0.91097,-2.31637 -0.63499,-3.55625 -0.86293,-0.0298 -1.35586,-0.0395 -2.28595,-0.63504 -0.80067,-0.83707 -0.78241,-1.33699 0,-2.15915 0.31082,-0.83444 1.27444,-1.3566 1.90496,-1.71462 1.08873,0.52451 1.86291,-0.9174 2.34944,-0.88906 0.43886,0.11526 0.4296,0.16489 0.63499,0.69855 1.27051,0.17068 2.07819,-1.17448 1.39697,-2.34966 0.25926,-1.50678 0.96799,-1.59509 1.90495,-2.15915 1.08614,-0.81001 2.74211,1.10323 2.03196,2.15915 -0.73008,1.13878 -0.39396,1.70966 0.57148,2.66718 -0.4108,1.19845 -0.79166,2.21845 0.35143,3.20177 0.30581,1.05059 1.91268,1.39147 1.61703,1.87858 -0.47037,-0.53209 -0.49715,0.42673 -0.88898,0.76205 0.11695,0.87544 1.55279,1.08336 1.07947,0.63505 -0.0766,-0.49689 -0.20777,-1.22572 -0.12699,-1.20659 0.26284,0.39742 -0.11676,0.55246 0.25399,1.27009 0.62656,0.51344 -0.98622,0.88475 -1.20647,0.82556 -0.41257,0.36285 -0.88322,0.20181 -0.95248,0.0635 -0.042,-0.55672 -0.18169,0.31233 -0.88898,-0.0635 -0.56579,0.32915 -0.19449,0.65318 -0.63498,0.50803 -0.20233,-0.45675 -0.77525,-0.37063 -1.26998,-0.19051 -0.4912,0.0626 -1.64971,0.89295 -1.52396,1.4606 -0.5502,0.0229 -0.82316,0.194 -1.20647,0.57154 z"
     id="path136"
     name="Regió de Múrcia" />
  <path
     d="m 109.13756,6.1866899 c 0.84319,-0.392561 1.06634,0.245243 1.01598,0.444532 0.33985,-0.151918 0.45463,-0.743774 1.07947,-0.190513 1.20312,0.07137 0.40656,1.660922 -0.0635,2.03214 0.89465,1.38009 0.83091,-0.283263 1.52397,-0.444532 -0.76912,1.024159 1.02398,0.535597 1.14297,1.206582 0.46834,-0.36667 1.29575,0.702135 1.90496,0.444532 0.395,0.122909 1.63487,-0.216991 1.14297,0.317521 -0.89417,0.3030831 -0.6314,1.1983841 -0.95248,1.8416271 -0.38344,0.04402 -0.58593,0.7101 -1.26997,0.762053 0.42736,0.907557 -1.21056,0.08934 -0.95248,0.825555 -0.11485,-0.126897 -0.17095,1.015462 -0.76198,0.635045 -0.20057,0.769004 -0.22177,1.120781 -0.76198,1.90513 0.60978,0.388782 -0.91292,1.540312 -0.1905,2.286156 -0.4078,0.889078 1.28496,0.848524 0.44449,1.651114 -0.27862,1.035831 -1.00942,1.229301 -2.03195,0.952566 -0.43683,-0.690292 -1.05967,-0.115587 -1.58746,-0.698548 -0.91248,-0.04271 -1.17536,-0.829885 -0.3175,-1.651113 0.28856,-0.02496 1.35264,0.316972 1.01598,-0.317522 0.31556,-0.514658 -1.06869,-0.423329 -1.20647,-0.825558 -0.18929,-0.371191 -0.77101,-0.864847 -1.14297,-1.143076 -0.88369,0.463361 -0.65783,-0.280988 -1.07948,-0.635045 -0.7163,0.536754 -1.12935,-0.743258 -1.58746,-0.317522 -0.23579,0.0073 -1.07502,-0.476322 -0.50799,-0.825558 0.12326,-0.7174 -0.24932,-0.793781 -0.50799,-0.571537 -0.91395,-0.224775 0.86317,-1.212576 0.69848,-0.508037 0.80512,-0.148939 0.4691,-0.463509 0.38099,-0.889061 0.23495,-0.348482 0.50733,-0.319973 0.381,-1.079574 0.54386,-0.449668 -0.0722,-1.4067211 0.63498,-1.3970951 0.45314,0.3047881 1.12793,-0.371991 1.20647,-0.635042 -0.12135,-1.12844 1.31877,-0.82756 0.88898,-2.03214 0.0469,-0.590559 0.36582,0.07765 0.3175,-0.381027 0.21099,0.553802 0.6435,-0.704493 1.14297,-0.762053 z"
     id="path138"
     name="Navarra" />
  <path
     d="m 106.85494,29.269868 c 0.93211,-0.623271 1.31133,0.39669 2.15895,0.698547 0.62655,0.819952 1.58995,1.318906 1.58746,2.349662 0.75345,0.47204 0.32446,1.543187 0.38099,2.286156 0.27827,1.446636 -1.87362,-0.191225 -1.07948,1.651114 -0.90071,0.487597 -1.08939,0.999712 -0.50798,1.333592 0.70781,0.828567 -0.0339,0.617913 0.76198,0.889061 0.64606,0.815774 1.57437,0.834401 1.84146,1.206582 -0.0425,0.450252 0.29921,1.44762 0.88898,1.587608 0.64299,0.28561 2.13485,-0.235841 1.19373,0.649576 -0.0166,0.768226 -0.21329,1.773471 -0.62225,2.525644 -0.29256,0.413488 -1.57833,0.916509 -1.84146,1.714616 -0.10701,0.219055 0.003,0.870535 -0.12699,1.333595 0.25208,0.19507 0.51831,0.41761 0.50799,0.50803 0.0783,0.38209 0.24882,0.0506 0.50798,0.12701 0.0108,0.2993 0.96453,0.39976 1.33347,0.50803 0.95933,-0.24467 0.51786,1.67971 -0.12699,2.34967 -0.20229,0.71276 0.71294,1.676 1.33347,1.84162 1.21306,-0.66603 1.63237,0.32637 1.46046,1.52411 0.10234,0.59649 -0.19443,2.0346 -1.221,1.09488 -0.79306,-1.5903 -1.92357,0.24226 -2.71591,-0.0153 -0.85889,0.97397 -0.58087,2.08389 -0.57148,3.36573 -0.59366,0.6611 -1.82261,1.06215 -1.84146,0.0635 -0.34985,0.0598 -0.7565,-0.19323 -1.07948,0.44453 -0.99073,0.7474 -2.02895,0.12036 -2.85743,1.14308 -0.81658,0.54136 -1.1124,2.88637 -2.34945,1.90513 -0.91777,-0.0225 -0.92534,-0.60634 -0.25399,-1.14308 0.47818,-0.57724 0.34127,-1.23939 -0.0635,-1.77812 0.28069,-0.66719 -0.46696,-0.7768 -0.76198,-1.14308 0.29721,-0.80573 -0.39453,-0.96492 -1.14297,-0.76205 -0.81131,-0.62094 -0.85577,0.45835 -1.33347,0.38103 -0.11362,0.21588 -1.229662,-0.28928 -1.079482,0.57154 -0.27496,-0.86387 -1.39841,-0.0936 -2.41294,-0.50804 -0.89843,-0.66855 -1.02645,1.29948 -2.09546,0.50804 -0.21688,-0.63845 -1.17077,0.63053 -2.095446,-0.12701 -0.488177,0.35323 -0.965562,0.77572 -1.904957,0.57154 -0.717754,0.0173 -1.660298,-0.56121 -2.285947,-0.12701 0.200392,0.8106 -0.998763,-0.26002 -1.460466,-0.31752 -0.577707,-0.90956 -1.466996,-1.03139 -2.031955,-1.71462 -0.652632,-0.32476 -1.55167,-0.47723 -1.523963,-1.33359 -0.645144,0.31679 -1.691629,-0.65315 -0.888981,-0.57154 0.310586,-0.6869 0.49785,-1.79955 1.26997,-1.65112 0.512101,-0.93696 -1.032451,-0.31792 -0.825478,-1.4606 -0.37459,-0.70231 1.587722,0.48346 0.761981,-0.50803 -0.301032,-1.07709 0.877483,-1.60051 1.777958,-0.88906 -0.30293,-0.37686 -1.438759,-1.6551 -0.44449,-1.77812 0.0095,-0.56053 0.68924,-1.74517 -0.380989,-0.95257 -1.027245,0.95899 -1.940031,0.0876 -2.603442,-0.76205 -0.733515,-0.599584 -1.41769,-1.309273 -0.634984,-1.968639 -0.0352,-0.539284 0.145283,-1.463524 -0.507989,-1.33359 -0.730422,1.045388 -1.065102,-0.410326 -0.571487,-0.825558 -1.107289,-0.161152 -0.937202,-0.50523 -0.571487,-1.714616 -0.431136,-1.397781 1.191488,-0.828945 1.587463,-0.57154 0.573077,-0.375534 1.201634,-1.145154 1.523966,-0.317521 0.603131,-0.274918 0.813739,-0.887135 1.523965,-1.270087 -0.456062,-0.375894 1.124659,-0.545558 0.825482,-0.190514 0.03769,0.641332 0.557061,0.687229 1.079473,0.508035 0.532038,0.298061 1.46005,-0.564251 1.587463,-1.079574 0.210783,0.376782 0.502428,1.589153 1.015979,0.635042 0.386411,-0.246729 0.685154,-0.619908 0.888979,0.127011 0.751874,-0.250508 0.810366,0.01736 1.396968,0.381023 0.146778,0.308634 0.776089,0.02048 1.142974,0.57154 0.412215,-0.01783 1.07818,0.257461 1.46047,0.381027 1.1305,0.579749 -0.66185,1.115607 -0.69849,1.651113 -0.007,0.155329 -0.533926,0.452014 -0.380991,0.254019 -0.480438,-0.03507 -1.246989,0.376616 -0.190495,0.635042 0.704756,-0.823682 1.489316,-0.812593 1.904956,-1.397095 0.78447,-0.148744 0.5868,-0.504449 1.20647,-0.190513 0.36713,0.228555 0.58171,-0.954821 1.14298,-0.127008 0.57932,0.144023 0.86829,-0.769581 1.26997,-0.127011 1.37079,-0.04794 -0.006,-1.015875 0.57148,-1.079574 -0.15364,-0.627263 -0.27536,-1.789147 -0.95247,-0.889061 -0.18595,-0.674632 1.02058,-1.973926 -0.127,-2.095643 0.35827,-0.920406 -0.76547,-1.298112 -0.69849,-1.143079 -0.0365,-0.408183 -0.66076,-0.774927 -0.25399,-1.079574 -0.39791,0.232606 -0.71984,-0.745651 -0.88898,-0.254019 -0.70025,-0.222599 0.50519,-1.161428 -0.69848,-1.270084 0.47197,-0.401622 0.48828,-1.170691 0.57148,-1.333593 0.36651,-0.633502 0.23975,-1.150278 0.127,-1.587608 -0.28943,-0.345001 -1.40713,-1.01319 -0.44449,-1.270088 0.34173,0.04955 0.84982,-0.856337 0.63499,-0.825558 0.9908,0.172326 1.04406,-0.09563 1.77796,-0.444529 0.84257,0.498856 1.74371,0.156345 2.412942,-0.254018 0.13329,0.678084 0.78868,0.965001 1.39697,0.571539 0.23774,0.746223 1.39107,0.304433 0.76198,0.952566 0.3254,0.555652 0.83154,0.170143 1.20647,1.016069 0.35579,0.451869 0.93964,0.05262 1.46047,0.190513 0.60578,-0.101414 1.33715,-0.731493 1.84146,0 0.2167,-0.112855 -0.13938,-0.563909 0.0635,-0.825555 z"
     id="path96"
     name="Castella - la Manxa" />
  <path
     d="m 94.853708,29.079354 c 0.0693,0.671513 1.04395,0.829255 0.88898,1.33359 0.6032,0.652137 -0.56183,1.408563 -0.127,1.714619 -0.17916,0.384723 -0.86121,1.059561 -0.0635,1.143077 0.20383,0.425762 -0.33745,1.144434 0.31749,1.079574 0.1588,-0.573794 0.55362,0.784892 0.76198,0.254019 -0.42,0.478287 0.39697,0.917993 0.31749,1.206582 0.83593,-0.184791 0.50656,1.224179 1.07948,1.270087 0.34589,0.475099 -0.69838,1.53539 -0.25399,1.905132 0.75178,-1.306306 0.84481,0.768229 0.76198,0.889061 -0.26066,0.124293 0.81889,0.867288 -0.3175,1.016069 -0.53018,-0.593405 -0.64178,0.147156 -1.14297,0.06351 -0.50182,-0.06941 -0.95135,-0.353467 -1.20647,0.190513 -0.59137,-0.11426 -0.65232,-0.221718 -1.20647,0.190514 -0.66927,0.199853 -0.7586,0.683199 -1.58747,0.889061 -0.510515,1.056592 -1.6155,-0.149204 -0.69848,0 0.386939,-0.384022 0.60282,-0.09684 0.69848,-0.317522 0.0707,-0.0429 0.30904,-0.672261 0.88898,-0.825558 0.50855,-0.476567 0.0612,-1.011872 -0.69848,-1.143077 -0.612271,0.147236 -0.802777,-0.439536 -1.523967,-0.444531 -0.194972,-0.172077 -0.869643,-0.148461 -0.888979,-0.635043 -0.574664,-0.259937 -1.135385,0.279265 -1.269971,-0.508037 -0.365014,0.04834 -0.619104,0.619353 -1.079476,0.698548 -0.523923,0.08832 -0.296886,-1.638718 -0.761982,-0.635042 -0.16711,0.534392 -1.238501,1.078857 -1.396968,0.698547 0.0307,-0.420502 0.508805,-1.151226 0.380992,-1.270087 0.845042,0.820677 0.389409,-1.10273 1.460466,-0.825556 0.357224,0.137496 -0.02495,-0.412728 0.253995,-0.571539 -0.193408,-0.707832 0.351583,-1.361411 0.444489,-1.714619 0.345895,0.717357 1.178875,0.05144 0.761984,-0.508035 0.587986,-0.631888 0.807156,-1.384966 1.65096,-1.143076 0.177345,-0.946471 0.278985,-2.107682 1.587463,-2.222654 0.543684,-0.734724 1.061734,-1.522894 1.968454,-1.778122 z m 1.26997,5.715392 c 0.16537,0.380381 0.14958,-0.325393 0,0 z"
     id="path134"
     name="Comunitat de Madrid" />
  <path
     d="m 84.873792,7.3641349 c 0.640737,0.07738 0.96413,-0.312268 1.010126,-0.883936 0.546077,0.05337 0.926024,-0.548484 1.452074,-0.126276 -0.176612,-0.778385 0.0744,-1.424381 0.631306,-1.19963 0.401927,-0.11687 0.861163,0.07254 1.325812,0 1.069045,-0.05071 1.579386,-0.49655 2.462163,-0.63138 0.530969,-0.23223 0.807921,-0.29874 1.388943,-0.315651 0.193528,0.312271 -0.645433,0.49813 -0.37882,0.505118 0.08269,0.515603 0.209304,0.238619 0.50508,-0.06312 0.308515,0.434136 -0.198041,-0.196903 0.315653,-0.252522 0.655242,-0.267177 1.31965,-0.706121 1.767727,0 1.171745,0.113109 -0.416059,0.5572 0.25252,0.441987 0.01111,0.12024 0.267931,0.07667 0.757605,0.189395 0.291602,-0.04473 0.886003,0.135283 1.136384,0.315651 0.189014,0.03384 0.910205,0.76185 0.06313,1.073367 -0.214944,-0.344209 -0.704428,0.06615 -1.010122,0 -0.774739,0.252523 -0.926327,0.70154 -0.694471,1.578452 -0.738175,0.166467 -1.42472,-0.62815 -1.893988,-0.315656 -0.24313,0.746407 -0.941697,0.770757 -1.388909,0.947071 0.221331,0.430563 -1.65661,0.799841 -1.010124,1.7047461 0.507825,0.37202 0.505681,-0.6353631 1.073254,-0.252521 -0.01877,0.523458 -0.712808,0.12176 -0.631342,0.505119 0.04548,0.299869 0.29837,0.344588 0.505083,0.06313 0.734793,0.738926 -0.211939,0.885179 -0.441914,1.199628 -0.725699,0.553669 -0.735509,-0.948309 -0.820733,-0.441951 -0.325797,0.569453 -0.4306,0.388252 -1.010123,0.189395 -0.796874,-0.462204 0.559191,-0.48133 -0.06313,-0.883937 -0.955938,0.987238 -0.22509,-1.4131851 -1.262684,-1.0733311 -0.60079,-0.190153 -0.772746,-1.296014 -1.578296,-0.820808 -0.583923,0.359242 -1.133494,0.214567 -1.76773,0.189394 0.188254,-0.605266 -1.209548,-0.900775 -0.694471,-1.51532 -0.238242,0.03384 -0.09356,-0.173238 0,-0.126248 z"
     id="path252"
     name="Cantàbria" />
  <path
     id="path99"
     d="m 127.94707,35.395685 c -0.28115,0.787563 -0.30275,0.634272 -0.63658,1.20964 -0.47181,1.550767 -1.84674,2.255833 -2.22811,3.62893 -0.54616,0.198322 -1.01169,1.066422 -1.01854,1.273308 -0.0535,0.746656 -0.80602,1.109334 -1.08221,1.782633 -0.5753,0.991528 -0.86347,2.09614 -1.20952,2.610278 -0.49169,0.430308 -0.16975,1.510204 -0.38194,1.209651 -0.0567,0.04809 0.28835,1.858546 0.92495,2.741466 -0.17581,0.31941 0.0383,1.33656 0.73015,2.09712 -0.12731,0.42327 1.67748,1.78325 2.22812,1.52794 0.23683,0.25578 0.92553,0.46001 0.70024,0.76397 0.87486,0.52764 -0.0807,0.39293 -0.38194,0.955 -0.6797,0.54015 -0.65026,0.61426 -1.40054,0.76397 -0.31071,0.68685 -0.36452,1.07032 -1.08221,1.08232 -0.80598,0.23228 -2.28549,0.88897 -2.10076,1.90999 -0.77904,0.15685 -0.3539,0.007 -0.82754,0.38196 0.38744,1.39406 -0.32322,1.27399 -0.95493,1.84633 -0.085,0.9887 -0.0776,2.03889 -0.50927,2.0373 -0.42711,0.4207 -0.28001,1.70169 -1.20951,0.95497 -0.94542,-1.11662 -2.20444,-2.44576 -1.22226,-3.8582 0.34595,-1.16874 -1.975,-1.59309 -0.56022,-2.50834 0.49106,-1.12375 -0.30502,-2.12835 0.89123,-2.54664 -0.53209,-0.72883 0.36756,-1.70221 -0.31828,-2.41927 -0.42926,-0.43282 -1.84674,0.71663 -2.10079,-0.76399 -1.33124,-0.75037 0.60519,-1.92548 0.25463,-3.05593 -0.27094,-0.53471 -1.1114,-0.27509 -1.59151,-0.57299 -0.54343,-0.345177 -0.38635,-0.26182 -0.70026,-0.190964 -0.23758,-0.141704 0.002,-0.366028 -0.38195,-0.381983 -0.11936,-0.254622 -0.37956,-0.46601 -0.19096,-0.954999 0.11555,-0.565871 -0.27131,-0.593104 0.44563,-1.018641 0.49468,-1.434553 1.74412,-0.700448 1.84613,-2.355614 0.33306,-0.650775 -0.10382,-1.916755 0.82758,-1.782637 0.40688,-0.170547 2.16024,-0.254968 1.78248,0.70032 -0.31564,1.064534 1.47991,0.216661 0.50925,-0.254667 -0.22128,-0.692366 0.65912,-0.754192 0.76392,-1.273309 0.88809,-0.03907 1.08892,-0.465064 1.20953,-1.018646 0.43074,-0.376032 0.0625,-1.555355 0.95488,-1.145975 0.94339,-0.06184 0.62206,-0.999201 0.95491,-0.891317 0.0557,-0.376449 1.18925,-0.534175 0.19097,-1.145979 -0.49164,-0.469744 1.02302,-0.527949 0.19098,-1.018643 0.18906,-0.73466 0.0928,-1.064964 -0.63659,-1.082314 -0.30843,-1.064951 0.89068,-0.07987 1.14588,-1.018647 -0.0565,-0.726228 0.63546,-1.097271 1.01854,-0.381992 0.84657,0.101015 1.07483,0.684954 1.78249,0.127314 0.74371,-0.125154 1.12304,-0.0038 1.40049,0.509325 -0.4328,0.983117 1.6843,0.41442 1.40053,1.400643 0.20688,-0.03485 0.36601,0.163652 0.57291,0.127314 z m -13.62315,5.920884 c -0.77173,0.408061 -2.18689,0.01402 -2.16441,-1.082314 -0.72173,-0.644666 1.36733,0.310707 0.82757,-0.763984 0.41632,-0.717792 0.4032,1.102947 1.08222,0.763984 0.79139,-0.04838 1.58184,0.901675 0.25462,1.082314 z"
     name="Comunitat Valenciana" />
  <path
     d="m 103.74331,14.946156 c 0.62814,0.655946 1.02423,-0.03862 1.41573,0.677144 0.37154,0.297385 1.01097,-0.300902 1.10795,0.492468 -0.10405,0.640716 1.00983,-0.258879 1.0464,0.430894 0.62422,0.132261 0.53842,0.906443 1.0464,0.861855 0.29676,0.565753 1.22639,0.17879 1.04639,0.92337 -0.35062,0.538751 -1.04954,-0.339261 -1.35415,0.554029 -0.9755,0.833607 1.00764,1.157408 -0.43089,1.785187 -0.49859,0.248767 -0.90157,-0.216892 -1.47725,-0.307753 0.17036,-0.495116 -0.65438,-0.890762 -0.1231,-1.354297 -0.9359,-0.03664 -0.9729,0.08097 -1.53884,-0.492441 -0.71131,-0.01099 -1.17455,0.295296 -1.47725,0.492441 0.007,0.658336 -0.74656,1.355726 -1.60039,0.861819 -0.63119,0.08243 0.72388,-1.373275 -0.3693,-1.108058 -0.20591,0.54029 -0.30702,1.278605 -1.107992,1.046507 0.131902,-1.111281 -0.993418,-0.300792 -1.292598,-1.169608 -0.548257,-0.626278 0.1253,-1.08406 -0.1231,-1.908326 0.18172,-0.37762 0.10918,-0.554655 0.0615,-1.046492 0.28101,0.955925 0.3312,0.04693 0.2462,-0.492467 -0.37434,-0.27859 0.033,-0.787724 -0.492383,-0.800265 0.913201,-0.320686 -0.171096,-1.243121 0.923271,-0.984938 0.33194,0.165894 1.052262,0.04012 1.231052,0.246239 0.34036,0.08734 -0.0945,0.998769 0.49241,0.30779 0.58759,-0.988334 0.73828,0.555956 0.80019,0.800261 0.21543,0.483813 1.54401,-0.245873 0.73865,0.246239 0.67709,-0.232757 0.29053,-0.23763 1.10795,-0.06155 z"
     id="path1"
     name="la RIoja" />
  <path
     id="path61"
     d="m 100.98028,11.689845 c 0.65569,0.140939 1.30028,0.247571 1.61626,0.478938 -0.75807,0.83631 0.51437,0.717093 0.29931,0.838142 -0.0507,0.435454 -0.89527,0.110567 -1.07751,-0.05987 -0.70682,0.259936 -1.03519,-0.302286 -1.37682,-0.658543 -0.16883,-0.13174 0.10555,-0.721967 0.53876,-0.598671 z M 84.81762,7.3932719 c -0.34612,0.421867 0.356835,1.080978 0.761981,1.460601 0.128805,0.487221 1.252641,0.198842 1.714461,0 0.901811,-0.573384 1.011719,0.961983 1.777957,0.825558 0.821082,-0.01917 0.158814,2.0390111 1.079476,1.0795741 0.593815,0.325063 -0.84229,0.680541 0.190495,0.825555 0.550431,0.655136 0.715126,0.08943 0.952479,-0.381026 -0.13248,0.958815 0.673912,0.836838 0.952479,0.381026 1.1166,0.467292 0.0245,-1.8111311 0.0635,-0.571539 -0.482656,-0.04848 -0.198649,-0.765415 -0.126997,-0.571537 0.850557,0.07631 0.218257,-0.8672931 -0.190495,-0.127011 -0.494432,0.576897 -0.760346,-1.0329731 0.317492,-1.3335901 0.525875,-0.159625 0.236429,-0.652723 0.95248,-0.444531 0.44367,-0.237325 0.80187,-1.392878 1.33346,-0.762053 1.0073,0.573058 1.97474,1.1e-5 2.60345,-0.444529 0.32236,0.583932 1.26843,-0.089 0.57148,0.88906 0.53652,0.02359 0.29692,0.931291 0.127,1.079574 0.82209,-0.04942 1.09227,0.485102 1.39697,0.8255561 -0.67737,1.019523 -1.44807,-0.3236531 -1.90496,-0.0635 -0.8021,0.829479 0.18291,1.408472 0.57149,0.952564 0.7945,-0.823663 -0.0329,0.351228 0.12699,0.635045 -0.0949,0.609029 0.47337,0.221844 0.76199,0.381026 0.11857,0.456958 0.81741,0.461424 1.206472,0.825556 0.30264,0.655844 0.0664,0.764211 -0.634992,0.444532 -0.46787,0.0085 -1.08789,-0.116031 -0.76198,0.571539 -0.57864,0.500882 -0.34967,0.521892 -0.0635,0.698548 -0.20993,0.580174 0.39739,0.864269 0.127,1.651114 -0.20586,-0.832359 -0.51493,-0.373365 0,0.127008 -0.79944,0.08031 0.12356,1.325297 -0.50799,1.714616 0.2946,0.60764 0.84854,1.339345 1.58746,1.270087 -0.0111,1.206705 1.231592,0.364014 1.079482,-0.254016 0.59781,-0.78978 0.68069,0.42509 0.31749,0.889061 0.56082,0.181215 1.61414,0.27541 1.71446,-0.444532 0.0597,-0.683506 0.36841,-0.469654 0.76198,-0.825555 0.45749,-0.214938 1.39685,-0.192942 1.46047,0.508034 0.43951,-0.434297 1.29829,-0.137132 0.82548,0.381027 0.32399,0.649092 0.38716,1.183098 1.20648,1.143079 0.41895,0.737788 1.4317,-0.973085 1.14297,0.317521 0.67945,0.627714 -0.15644,1.275382 0.50799,1.90513 0.53486,0.44968 -0.76579,0.836358 -0.95248,1.4606 -1.01767,-0.380166 -0.255,0.656511 -0.38099,1.206585 0.54826,0.633611 -0.0265,1.163341 -0.57149,0.952564 -0.40094,-1.347634 -0.52755,0.228314 -0.95248,0.508037 -0.24244,0.923096 0.25498,1.857065 0.88898,2.349661 0.16049,1.255694 -0.42996,-0.236096 -0.95248,0.444529 -0.70078,0.17046 -1.28226,0.11416 -1.96845,0.317521 -0.58925,-0.178975 -0.69617,-1.264838 -1.33347,-0.889061 -0.32369,-0.644903 -0.0281,-0.675724 -0.50799,-1.016068 -0.72018,-0.617427 -1.16262,0.162078 -1.77796,-0.508035 -0.20447,-1.036402 -1.402452,0.591534 -2.158952,0 -0.88621,-0.54756 -0.93452,0.513892 -1.58746,0.254016 -0.78296,-0.01378 -0.51198,-0.111625 -0.76198,0.508034 -0.52241,0.615178 -1.61963,0.361696 -2.09545,1.397098 -0.53065,0.303607 -1.046318,1.158656 -1.777959,1.270088 -0.722009,0.616958 -0.173485,2.343668 -1.460469,1.841627 -0.38065,0.573508 -0.941316,1.393118 -0.825478,1.841624 -1.172504,-0.02901 -0.626827,-0.238366 -1.206474,0.698548 0.05076,0.779155 -0.148275,1.21422 -0.126997,1.4606 -1.148559,-0.448299 -0.643959,1.160346 -1.460466,0.952566 -0.340484,-0.957424 -0.332843,1.325743 -0.380992,0.889061 -0.661448,0.931746 -1.287902,-0.166703 -1.269971,-0.444529 -0.473638,0.06546 -0.966515,0.02977 -0.888979,0.508034 -0.756002,0.252098 -0.927317,1.294313 -1.587463,1.079574 -0.249092,-1.176303 -1.26126,1.081154 -1.650963,0.127008 -1.139565,0.319509 -1.560787,-1.030459 -1.079473,-1.714616 -0.765604,0.109511 -1.652487,1.225732 -2.22245,0.254016 -0.282067,-0.627602 -0.967163,-0.649161 -1.460465,-0.698548 0.299106,-1.270238 -0.838401,-0.01778 -1.142974,0.06351 -0.78549,0.05957 -0.966073,-1.548241 -1.142973,-0.952566 0.295891,-0.327961 -0.254429,-0.352496 -0.317498,-0.762061 -0.411872,-0.12937 -0.877348,-0.858744 -1.396966,-0.190513 -0.763577,0.528638 -1.306988,0.77747 -2.222449,1.270088 0.194751,0.740722 -1.082771,0.767207 -1.269971,0.698547 -0.316879,-0.02307 -1.243119,0.497015 -1.206471,-0.508034 1.029065,-0.361156 0.426754,-0.83339 0.190495,-1.651114 0.63695,-0.645483 0.348257,-0.984935 0.126997,-1.460601 0.742495,-0.857297 -0.08974,-1.880869 0.253995,-2.667182 0.437861,-0.181488 -0.328605,-1.0072 -0.571487,-1.587609 -0.703562,-0.807733 1.200822,-0.126917 1.206471,-1.143079 0.004,-0.695103 0.70784,-0.951947 0.952479,-1.524103 0.6575,0.116025 0.760425,-0.08659 1.396968,-0.254019 -0.06207,-0.355928 1.055589,-0.721743 0.698481,-1.079574 0.540515,-0.07622 0.528294,-0.09598 0.825482,-0.571539 0.01421,-0.727607 0.832072,-0.850056 0.825481,-1.651114 -0.59318,-0.886791 -1.736108,-1.264812 -2.476442,-0.825556 -0.528383,-0.631872 -0.292893,-1.081518 -0.0635,-1.778121 0.235149,-0.712002 -0.459996,-0.74206 -0.0635,-1.270088 -0.464172,-0.349355 -1.681633,0.491392 -1.968455,-0.571539 -0.152934,0.986674 -2.166554,0.291789 -1.333468,-0.508035 -0.779164,-0.314725 -0.205179,-0.707784 -0.0635,-1.016071 0.36422,-0.399729 1.027036,-1.378426 1.523965,-0.889061 -0.101314,-0.549926 0.893861,-0.953144 0.38099,-1.587608 -0.781487,-0.241919 -0.518377,-0.618863 -0.44449,-1.270088 -0.433943,-0.294907 -1.787667,-0.202014 -1.460465,-0.317521 -1.081551,9.79e-4 -0.02797,-0.823269 -0.253995,-1.397095 0.577141,-0.08664 -0.294732,-0.975095 0.634987,-1.079574 0.175681,-0.02148 0.98484,-0.511623 1.079473,-0.952566 0.05331,-0.330469 -0.229219,-1.0452991 0.571487,-0.6985481 0.127085,0.2051331 0.95695,-0.507148 1.587466,-0.12701 0.473173,0.03155 1.49048,-0.179082 0.761981,-0.635043 0.418418,0.08942 0.692084,-0.732583 1.015976,-0.762053 0.303636,0.317871 0.880695,0.641878 1.269971,0.127011 0.357741,0.535593 1.164085,-0.394193 0.952479,-0.190513 0.574482,0.05377 0.808826,0.130366 1.079474,0.76205 0.26017,0.394593 1.477052,0.682076 1.587463,-0.381027 0.745161,-0.29799 1.512932,0.741995 2.031955,-0.0635 0.788894,0.148194 0.757848,-0.728593 1.460465,-0.190513 0.636918,-0.155064 0.893218,-0.321492 1.460466,-0.381027 -0.05623,-1.014516 0.850789,-0.446663 1.269971,-1.143079 0.625014,-0.396037 0.574907,0.23101 0.761984,0.508034 z m 4.000407,26.7988411 c -2.892147,-0.392827 1.062453,0.755558 0,0 z"
     name="Castella i Lleó" />
</svg>
