<?xml version="1.0" encoding="UTF-8" standalone="no"?>
<svg
   class="map-svg"
   fill="#ececec"
   height="234.19807"
   stroke="#000000"
   stroke-linecap="round"
   stroke-linejoin="round"
   stroke-width="0.2"
   version="1.2"
   viewBox="0 0 374.52847 234.19807"
   width="374.52847"
   id="svg470"
   sodipodi:docname="9.svg"
   inkscape:version="1.4.2 (f4327f4, 2025-05-13)"
   xmlns:inkscape="http://www.inkscape.org/namespaces/inkscape"
   xmlns:sodipodi="http://sodipodi.sourceforge.net/DTD/sodipodi-0.dtd"
   xmlns="http://www.w3.org/2000/svg"
   xmlns:svg="http://www.w3.org/2000/svg">
  <defs
     id="defs470" />
  <sodipodi:namedview
     id="namedview470"
     pagecolor="#ffffff"
     bordercolor="#666666"
     borderopacity="1.0"
     inkscape:showpageshadow="2"
     inkscape:pageopacity="0.0"
     inkscape:pagecheckerboard="0"
     inkscape:deskcolor="#d1d1d1"
     inkscape:zoom="15.397957"
     inkscape:cx="328.93974"
     inkscape:cy="36.790595"
     inkscape:window-width="2880"
     inkscape:window-height="1514"
     inkscape:window-x="2869"
     inkscape:window-y="-11"
     inkscape:window-maximized="1"
     inkscape:current-layer="svg470" />
  <metadata
     id="game-metadata">
        {
    &quot;title&quot;: {
        &quot;es&quot;: &quot;Países de Europa&quot;,
        &quot;ca&quot;: &quot;Països d'Europa&quot;
    },
    &quot;category&quot;: {
        &quot;es&quot;: &quot;Geografía&quot;,
        &quot;ca&quot;: &quot;Geografia&quot;
    },
  &quot;translations&quot;: {
    &quot;Afghanistan&quot;: { &quot;es&quot;: &quot;Afganistán&quot;, &quot;ca&quot;: &quot;Afganistan&quot; },
    &quot;Albania&quot;: { &quot;es&quot;: &quot;Albania&quot;, &quot;ca&quot;: &quot;Albània&quot; },
    &quot;Algeria&quot;: { &quot;es&quot;: &quot;Argelia&quot;, &quot;ca&quot;: &quot;Algèria&quot; },
    &quot;Angola&quot;: { &quot;es&quot;: &quot;Angola&quot;, &quot;ca&quot;: &quot;Angola&quot; },
    &quot;Antigua_and_Barbuda&quot;: { &quot;es&quot;: &quot;Antigua y Barbuda&quot;, &quot;ca&quot;: &quot;Antigua i Barbuda&quot; },
    &quot;Argentina&quot;: { &quot;es&quot;: &quot;Argentina&quot;, &quot;ca&quot;: &quot;Argentina&quot; },
    &quot;Armenia&quot;: { &quot;es&quot;: &quot;Armenia&quot;, &quot;ca&quot;: &quot;Armènia&quot; },
    &quot;Australia&quot;: { &quot;es&quot;: &quot;Australia&quot;, &quot;ca&quot;: &quot;Austràlia&quot; },
    &quot;Austria&quot;: { &quot;es&quot;: &quot;Austria&quot;, &quot;ca&quot;: &quot;Àustria&quot; },
    &quot;Azerbaijan&quot;: { &quot;es&quot;: &quot;Azerbaiyán&quot;, &quot;ca&quot;: &quot;Azerbaidjan&quot; },
    &quot;Bahamas&quot;: { &quot;es&quot;: &quot;Bahamas&quot;, &quot;ca&quot;: &quot;Bahames&quot; },
    &quot;Bahrain&quot;: { &quot;es&quot;: &quot;Baréin&quot;, &quot;ca&quot;: &quot;Bahrain&quot; },
    &quot;Bangladesh&quot;: { &quot;es&quot;: &quot;Bangladesh&quot;, &quot;ca&quot;: &quot;Bangla Desh&quot; },
    &quot;Barbados&quot;: { &quot;es&quot;: &quot;Barbados&quot;, &quot;ca&quot;: &quot;Barbados&quot; },
    &quot;Belarus&quot;: { &quot;es&quot;: &quot;Bielorrusia&quot;, &quot;ca&quot;: &quot;Bielorússia&quot; },
    &quot;Belgium&quot;: { &quot;es&quot;: &quot;Bélgica&quot;, &quot;ca&quot;: &quot;Bèlgica&quot; },
    &quot;Belize&quot;: { &quot;es&quot;: &quot;Belice&quot;, &quot;ca&quot;: &quot;Belize&quot; },
    &quot;Benin&quot;: { &quot;es&quot;: &quot;Benín&quot;, &quot;ca&quot;: &quot;Benín&quot; },
    &quot;Bhutan&quot;: { &quot;es&quot;: &quot;Bután&quot;, &quot;ca&quot;: &quot;Bhutan&quot; },
    &quot;Bolivia&quot;: { &quot;es&quot;: &quot;Bolivia&quot;, &quot;ca&quot;: &quot;Bolívia&quot; },
    &quot;Bosnia_and_Herzegovina&quot;: { &quot;es&quot;: &quot;Bosnia y Herzegovina&quot;, &quot;ca&quot;: &quot;Bòsnia i Hercegovina&quot; },
    &quot;Botswana&quot;: { &quot;es&quot;: &quot;Botsuana&quot;, &quot;ca&quot;: &quot;Botswana&quot; },
    &quot;Brazil&quot;: { &quot;es&quot;: &quot;Brasil&quot;, &quot;ca&quot;: &quot;Brasil&quot; },
    &quot;Brunei_Darussalam&quot;: { &quot;es&quot;: &quot;Brunéi&quot;, &quot;ca&quot;: &quot;Brunei&quot; },
    &quot;Bulgaria&quot;: { &quot;es&quot;: &quot;Bulgaria&quot;, &quot;ca&quot;: &quot;Bulgària&quot; },
    &quot;Burkina_Faso&quot;: { &quot;es&quot;: &quot;Burkina Faso&quot;, &quot;ca&quot;: &quot;Burkina Faso&quot; },
    &quot;Burundi&quot;: { &quot;es&quot;: &quot;Burundi&quot;, &quot;ca&quot;: &quot;Burundi&quot; },
    &quot;Cape_Verde&quot;: { &quot;es&quot;: &quot;Cabo Verde&quot;, &quot;ca&quot;: &quot;Cap Verd&quot; },
    &quot;Cambodia&quot;: { &quot;es&quot;: &quot;Camboya&quot;, &quot;ca&quot;: &quot;Cambodja&quot; },
    &quot;Cameroon&quot;: { &quot;es&quot;: &quot;Camerún&quot;, &quot;ca&quot;: &quot;Camerun&quot; },
    &quot;Canada&quot;: { &quot;es&quot;: &quot;Canadá&quot;, &quot;ca&quot;: &quot;Canadà&quot; },
    &quot;Central_African_Republic&quot;: { &quot;es&quot;: &quot;República Centroafricana&quot;, &quot;ca&quot;: &quot;República Centreafricana&quot; },
    &quot;Chad&quot;: { &quot;es&quot;: &quot;Chad&quot;, &quot;ca&quot;: &quot;Txad&quot; },
    &quot;Chile&quot;: { &quot;es&quot;: &quot;Chile&quot;, &quot;ca&quot;: &quot;Xile&quot; },
    &quot;China&quot;: { &quot;es&quot;: &quot;China&quot;, &quot;ca&quot;: &quot;Xina&quot; },
    &quot;Colombia&quot;: { &quot;es&quot;: &quot;Colombia&quot;, &quot;ca&quot;: &quot;Colòmbia&quot; },
    &quot;Comoros&quot;: { &quot;es&quot;: &quot;Comoras&quot;, &quot;ca&quot;: &quot;Comores&quot; },
    &quot;Republic_of_Congo&quot;: { &quot;es&quot;: &quot;República del Congo&quot;, &quot;ca&quot;: &quot;República del Congo&quot; },
    &quot;Democratic_Republic_of_the_Congo&quot;: { &quot;es&quot;: &quot;República Democrática del Congo&quot;, &quot;ca&quot;: &quot;República Democràtica del Congo&quot; },
    &quot;Costa_Rica&quot;: { &quot;es&quot;: &quot;Costa Rica&quot;, &quot;ca&quot;: &quot;Costa Rica&quot; },
    &quot;Côte_d_Ivoire&quot;: { &quot;es&quot;: &quot;Costa de Marfil&quot;, &quot;ca&quot;: &quot;Costa d'Ivori&quot; },
    &quot;Croatia&quot;: { &quot;es&quot;: &quot;Croacia&quot;, &quot;ca&quot;: &quot;Croàcia&quot; },
    &quot;Cuba&quot;: { &quot;es&quot;: &quot;Cuba&quot;, &quot;ca&quot;: &quot;Cuba&quot; },
    &quot;Cyprus&quot;: { &quot;es&quot;: &quot;Chipre&quot;, &quot;ca&quot;: &quot;Xipre&quot; },
    &quot;Czech_Republic&quot;: { &quot;es&quot;: &quot;República Checa&quot;, &quot;ca&quot;: &quot;República Txeca&quot; },
    &quot;Denmark&quot;: { &quot;es&quot;: &quot;Dinamarca&quot;, &quot;ca&quot;: &quot;Dinamarca&quot; },
    &quot;Djibouti&quot;: { &quot;es&quot;: &quot;Yibuti&quot;, &quot;ca&quot;: &quot;Djibouti&quot; },
    &quot;Dominica&quot;: { &quot;es&quot;: &quot;Dominica&quot;, &quot;ca&quot;: &quot;Dominica&quot; },
    &quot;Dominican_Republic&quot;: { &quot;es&quot;: &quot;República Dominicana&quot;, &quot;ca&quot;: &quot;República Dominicana&quot; },
    &quot;Ecuador&quot;: { &quot;es&quot;: &quot;Ecuador&quot;, &quot;ca&quot;: &quot;Equador&quot; },
    &quot;Egypt&quot;: { &quot;es&quot;: &quot;Egipto&quot;, &quot;ca&quot;: &quot;Egipte&quot; },
    &quot;El_Salvador&quot;: { &quot;es&quot;: &quot;El Salvador&quot;, &quot;ca&quot;: &quot;El Salvador&quot; },
    &quot;Equatorial_Guinea&quot;: { &quot;es&quot;: &quot;Guinea Ecuatorial&quot;, &quot;ca&quot;: &quot;Guinea Equatorial&quot; },
    &quot;Eritrea&quot;: { &quot;es&quot;: &quot;Eritrea&quot;, &quot;ca&quot;: &quot;Eritrea&quot; },
    &quot;Estonia&quot;: { &quot;es&quot;: &quot;Estonia&quot;, &quot;ca&quot;: &quot;Estònia&quot; },
    &quot;Swaziland&quot;: { &quot;es&quot;: &quot;Esuatini&quot;, &quot;ca&quot;: &quot;Eswatini&quot; },
    &quot;Ethiopia&quot;: { &quot;es&quot;: &quot;Etiopía&quot;, &quot;ca&quot;: &quot;Etiòpia&quot; },
    &quot;Fiji&quot;: { &quot;es&quot;: &quot;Fiyi&quot;, &quot;ca&quot;: &quot;Fiji&quot; },
    &quot;Finland&quot;: { &quot;es&quot;: &quot;Finlandia&quot;, &quot;ca&quot;: &quot;Finlàndia&quot; },
    &quot;France&quot;: { &quot;es&quot;: &quot;Francia&quot;, &quot;ca&quot;: &quot;França&quot; },
    &quot;Gabon&quot;: { &quot;es&quot;: &quot;Gabón&quot;, &quot;ca&quot;: &quot;Gabon&quot; },
    &quot;The_Gambia&quot;: { &quot;es&quot;: &quot;Gambia&quot;, &quot;ca&quot;: &quot;Gàmbia&quot; },
    &quot;Georgia&quot;: { &quot;es&quot;: &quot;Georgia&quot;, &quot;ca&quot;: &quot;Geòrgia&quot; },
    &quot;Germany&quot;: { &quot;es&quot;: &quot;Alemania&quot;, &quot;ca&quot;: &quot;Alemanya&quot; },
    &quot;Ghana&quot;: { &quot;es&quot;: &quot;Ghana&quot;, &quot;ca&quot;: &quot;Ghana&quot; },
    &quot;Greece&quot;: { &quot;es&quot;: &quot;Grecia&quot;, &quot;ca&quot;: &quot;Grècia&quot; },
    &quot;Grenada&quot;: { &quot;es&quot;: &quot;Granada&quot;, &quot;ca&quot;: &quot;Granada&quot; },
    &quot;Guatemala&quot;: { &quot;es&quot;: &quot;Guatemala&quot;, &quot;ca&quot;: &quot;Guatemala&quot; },
    &quot;Guinea&quot;: { &quot;es&quot;: &quot;Guinea&quot;, &quot;ca&quot;: &quot;Guinea&quot; },
    &quot;Guinea-Bissau&quot;: { &quot;es&quot;: &quot;Guinea-Bisáu&quot;, &quot;ca&quot;: &quot;Guinea Bissau&quot; },
    &quot;Guyana&quot;: { &quot;es&quot;: &quot;Guyana&quot;, &quot;ca&quot;: &quot;Guyana&quot; },
    &quot;Haiti&quot;: { &quot;es&quot;: &quot;Haití&quot;, &quot;ca&quot;: &quot;Haití&quot; },
    &quot;Honduras&quot;: { &quot;es&quot;: &quot;Honduras&quot;, &quot;ca&quot;: &quot;Hondures&quot; },
    &quot;Hungary&quot;: { &quot;es&quot;: &quot;Hungría&quot;, &quot;ca&quot;: &quot;Hongria&quot; },
    &quot;Iceland&quot;: { &quot;es&quot;: &quot;Islandia&quot;, &quot;ca&quot;: &quot;Islàndia&quot; },
    &quot;India&quot;: { &quot;es&quot;: &quot;India&quot;, &quot;ca&quot;: &quot;Índia&quot; },
    &quot;Indonesia&quot;: { &quot;es&quot;: &quot;Indonesia&quot;, &quot;ca&quot;: &quot;Indonèsia&quot; },
    &quot;Iran&quot;: { &quot;es&quot;: &quot;Irán&quot;, &quot;ca&quot;: &quot;Iran&quot; },
    &quot;Iraq&quot;: { &quot;es&quot;: &quot;Irak&quot;, &quot;ca&quot;: &quot;Iraq&quot; },
    &quot;Ireland&quot;: { &quot;es&quot;: &quot;Irlanda&quot;, &quot;ca&quot;: &quot;Irlanda&quot; },
    &quot;Israel&quot;: { &quot;es&quot;: &quot;Israel&quot;, &quot;ca&quot;: &quot;Israel&quot; },
    &quot;Italy&quot;: { &quot;es&quot;: &quot;Italia&quot;, &quot;ca&quot;: &quot;Itàlia&quot; },
    &quot;Jamaica&quot;: { &quot;es&quot;: &quot;Jamaica&quot;, &quot;ca&quot;: &quot;Jamaica&quot; },
    &quot;Japan&quot;: { &quot;es&quot;: &quot;Japón&quot;, &quot;ca&quot;: &quot;Japó&quot; },
    &quot;Jordan&quot;: { &quot;es&quot;: &quot;Jordania&quot;, &quot;ca&quot;: &quot;Jordània&quot; },
    &quot;Kazakhstan&quot;: { &quot;es&quot;: &quot;Kazajistán&quot;, &quot;ca&quot;: &quot;Kazakhstan&quot; },
    &quot;Kenya&quot;: { &quot;es&quot;: &quot;Kenia&quot;, &quot;ca&quot;: &quot;Kenya&quot; },
    &quot;Kyrgyzstan&quot;: { &quot;es&quot;: &quot;Kirguistán&quot;, &quot;ca&quot;: &quot;Kirguizistan&quot; },
    &quot;Republic_of_Korea&quot;: { &quot;es&quot;: &quot;Corea del Sur&quot;, &quot;ca&quot;: &quot;Corea del Sud&quot; },
    &quot;Dem__Rep__Korea&quot;: { &quot;es&quot;: &quot;Corea del Norte&quot;, &quot;ca&quot;: &quot;Corea del Nord&quot; },
    &quot;Kuwait&quot;: { &quot;es&quot;: &quot;Kuwait&quot;, &quot;ca&quot;: &quot;Kuwait&quot; },
    &quot;Lao_PDR&quot;: { &quot;es&quot;: &quot;Laos&quot;, &quot;ca&quot;: &quot;Laos&quot; },
    &quot;Lebanon&quot;: { &quot;es&quot;: &quot;Líbano&quot;, &quot;ca&quot;: &quot;Líban&quot; },
    &quot;Lesotho&quot;: { &quot;es&quot;: &quot;Lesoto&quot;, &quot;ca&quot;: &quot;Lesotho&quot; },
    &quot;Liberia&quot;: { &quot;es&quot;: &quot;Liberia&quot;, &quot;ca&quot;: &quot;Libèria&quot; },
    &quot;Libya&quot;: { &quot;es&quot;: &quot;Libia&quot;, &quot;ca&quot;: &quot;Líbia&quot; },
    &quot;Lithuania&quot;: { &quot;es&quot;: &quot;Lituania&quot;, &quot;ca&quot;: &quot;Lituània&quot; },
    &quot;Luxembourg&quot;: { &quot;es&quot;: &quot;Luxemburgo&quot;, &quot;ca&quot;: &quot;Luxemburg&quot; },
    &quot;Madagascar&quot;: { &quot;es&quot;: &quot;Madagascar&quot;, &quot;ca&quot;: &quot;Madagascar&quot; },
    &quot;Malawi&quot;: { &quot;es&quot;: &quot;Malaui&quot;, &quot;ca&quot;: &quot;Malawi&quot; },
    &quot;Malaysia&quot;: { &quot;es&quot;: &quot;Malasia&quot;, &quot;ca&quot;: &quot;Malàisia&quot; },
    &quot;Maldives&quot;: { &quot;es&quot;: &quot;Maldivas&quot;, &quot;ca&quot;: &quot;Maldives&quot; },
    &quot;Mali&quot;: { &quot;es&quot;: &quot;Malí&quot;, &quot;ca&quot;: &quot;Mali&quot; },
    &quot;Malta&quot;: { &quot;es&quot;: &quot;Malta&quot;, &quot;ca&quot;: &quot;Malta&quot; },
    &quot;Marshall_Islands&quot;: { &quot;es&quot;: &quot;Islas Marshall&quot;, &quot;ca&quot;: &quot;Illes Marshall&quot; },
    &quot;Mauritania&quot;: { &quot;es&quot;: &quot;Mauritania&quot;, &quot;ca&quot;: &quot;Mauritània&quot; },
    &quot;Mauritius&quot;: { &quot;es&quot;: &quot;Mauricio&quot;, &quot;ca&quot;: &quot;Maurici&quot; },
    &quot;Mexico&quot;: { &quot;es&quot;: &quot;México&quot;, &quot;ca&quot;: &quot;Mèxic&quot; },
    &quot;Federated_States_of_Micronesia&quot;: { &quot;es&quot;: &quot;Micronesia&quot;, &quot;ca&quot;: &quot;Micronèsia&quot; },
    &quot;Moldova&quot;: { &quot;es&quot;: &quot;Moldavia&quot;, &quot;ca&quot;: &quot;Moldàvia&quot; },
    &quot;Mongolia&quot;: { &quot;es&quot;: &quot;Mongolia&quot;, &quot;ca&quot;: &quot;Mongòlia&quot; },
    &quot;Montenegro&quot;: { &quot;es&quot;: &quot;Montenegro&quot;, &quot;ca&quot;: &quot;Montenegro&quot; },
    &quot;Morocco&quot;: { &quot;es&quot;: &quot;Marruecos&quot;, &quot;ca&quot;: &quot;Marroc&quot; },
    &quot;Mozambique&quot;: { &quot;es&quot;: &quot;Mozambique&quot;, &quot;ca&quot;: &quot;Moçambic&quot; },
    &quot;Myanmar&quot;: { &quot;es&quot;: &quot;Birmania&quot;, &quot;ca&quot;: &quot;Myanmar&quot; },
    &quot;Namibia&quot;: { &quot;es&quot;: &quot;Namibia&quot;, &quot;ca&quot;: &quot;Namíbia&quot; },
    &quot;Nauru&quot;: { &quot;es&quot;: &quot;Nauru&quot;, &quot;ca&quot;: &quot;Nauru&quot; },
    &quot;Nepal&quot;: { &quot;es&quot;: &quot;Nepal&quot;, &quot;ca&quot;: &quot;Nepal&quot; },
    &quot;Netherlands&quot;: { &quot;es&quot;: &quot;Países Bajos&quot;, &quot;ca&quot;: &quot;Països Baixos&quot; },
    &quot;New_Zealand&quot;: { &quot;es&quot;: &quot;Nueva Zelanda&quot;, &quot;ca&quot;: &quot;Nova Zelanda&quot; },
    &quot;Nicaragua&quot;: { &quot;es&quot;: &quot;Nicaragua&quot;, &quot;ca&quot;: &quot;Nicaragua&quot; },
    &quot;Niger&quot;: { &quot;es&quot;: &quot;Níger&quot;, &quot;ca&quot;: &quot;Níger&quot; },
    &quot;Nigeria&quot;: { &quot;es&quot;: &quot;Nigeria&quot;, &quot;ca&quot;: &quot;Nigèria&quot; },
    &quot;Macedonia&quot;: { &quot;es&quot;: &quot;Macedonia del Norte&quot;, &quot;ca&quot;: &quot;Macedònia del Nord&quot; },
    &quot;Norway&quot;: { &quot;es&quot;: &quot;Noruega&quot;, &quot;ca&quot;: &quot;Noruega&quot; },
    &quot;Oman&quot;: { &quot;es&quot;: &quot;Omán&quot;, &quot;ca&quot;: &quot;Oman&quot; },
    &quot;Pakistan&quot;: { &quot;es&quot;: &quot;Pakistán&quot;, &quot;ca&quot;: &quot;Pakistan&quot; },
    &quot;Palau&quot;: { &quot;es&quot;: &quot;Palaos&quot;, &quot;ca&quot;: &quot;Palau&quot; },
    &quot;Panama&quot;: { &quot;es&quot;: &quot;Panamá&quot;, &quot;ca&quot;: &quot;Panamà&quot; },
    &quot;Papua_New_Guinea&quot;: { &quot;es&quot;: &quot;Papúa Nueva Guinea&quot;, &quot;ca&quot;: &quot;Papua Nova Guinea&quot; },
    &quot;Paraguay&quot;: { &quot;es&quot;: &quot;Paraguay&quot;, &quot;ca&quot;: &quot;Paraguai&quot; },
    &quot;Peru&quot;: { &quot;es&quot;: &quot;Perú&quot;, &quot;ca&quot;: &quot;Perú&quot; },
    &quot;Philippines&quot;: { &quot;es&quot;: &quot;Filipinas&quot;, &quot;ca&quot;: &quot;Filipines&quot; },
    &quot;Poland&quot;: { &quot;es&quot;: &quot;Polonia&quot;, &quot;ca&quot;: &quot;Polònia&quot; },
    &quot;Portugal&quot;: { &quot;es&quot;: &quot;Portugal&quot;, &quot;ca&quot;: &quot;Portugal&quot; },
    &quot;Qatar&quot;: { &quot;es&quot;: &quot;Catar&quot;, &quot;ca&quot;: &quot;Qatar&quot; },
    &quot;Romania&quot;: { &quot;es&quot;: &quot;Rumania&quot;, &quot;ca&quot;: &quot;Romania&quot; },
    &quot;Russian_Federation&quot;: { &quot;es&quot;: &quot;Rusia&quot;, &quot;ca&quot;: &quot;Rússia&quot; },
    &quot;Rwanda&quot;: { &quot;es&quot;: &quot;Ruanda&quot;, &quot;ca&quot;: &quot;Ruanda&quot; },
    &quot;Saint_Kitts_and_Nevis&quot;: { &quot;es&quot;: &quot;San Cristóbal y Nieves&quot;, &quot;ca&quot;: &quot;Saint Kitts i Nevis&quot; },
    &quot;Saint_Lucia&quot;: { &quot;es&quot;: &quot;Santa Lucía&quot;, &quot;ca&quot;: &quot;Saint Lucia&quot; },
    &quot;Saint_Vincent_and_the_Grenadines&quot;: { &quot;es&quot;: &quot;San Vicente y las Granadinas&quot;, &quot;ca&quot;: &quot;Saint Vincent i les Grenadines&quot; },
    &quot;Samoa&quot;: { &quot;es&quot;: &quot;Samoa&quot;, &quot;ca&quot;: &quot;Samoa&quot; },
    &quot;São_Tomé_and_Principe&quot;: { &quot;es&quot;: &quot;Santo Tomé y Príncipe&quot;, &quot;ca&quot;: &quot;São Tomé i Príncipe&quot; },
    &quot;Saudi_Arabia&quot;: { &quot;es&quot;: &quot;Arabia Saudita&quot;, &quot;ca&quot;: &quot;Aràbia Saudita&quot; },
    &quot;Senegal&quot;: { &quot;es&quot;: &quot;Senegal&quot;, &quot;ca&quot;: &quot;Senegal&quot; },
    &quot;Serbia&quot;: { &quot;es&quot;: &quot;Serbia&quot;, &quot;ca&quot;: &quot;Sèrbia&quot; },
    &quot;Seychelles&quot;: { &quot;es&quot;: &quot;Seychelles&quot;, &quot;ca&quot;: &quot;Seychelles&quot; },
    &quot;Sierra_Leone&quot;: { &quot;es&quot;: &quot;Sierra Leona&quot;, &quot;ca&quot;: &quot;Sierra Leone&quot; },
    &quot;Slovakia&quot;: { &quot;es&quot;: &quot;Eslovaquia&quot;, &quot;ca&quot;: &quot;Eslovàquia&quot; },
    &quot;Slovenia&quot;: { &quot;es&quot;: &quot;Eslovenia&quot;, &quot;ca&quot;: &quot;Eslovènia&quot; },
    &quot;Solomon_Islands&quot;: { &quot;es&quot;: &quot;Islas Salomón&quot;, &quot;ca&quot;: &quot;Illes Salomó&quot; },
    &quot;Somalia&quot;: { &quot;es&quot;: &quot;Somalia&quot;, &quot;ca&quot;: &quot;Somàlia&quot; },
    &quot;South_Africa&quot;: { &quot;es&quot;: &quot;Sudáfrica&quot;, &quot;ca&quot;: &quot;Sud-àfrica&quot; },
    &quot;South_Sudan&quot;: { &quot;es&quot;: &quot;Sudán del Sur&quot;, &quot;ca&quot;: &quot;Sudan del Sud&quot; },
    &quot;Spain&quot;: { &quot;es&quot;: &quot;España&quot;, &quot;ca&quot;: &quot;Espanya&quot; },
    &quot;Sri_Lanka&quot;: { &quot;es&quot;: &quot;Sri Lanka&quot;, &quot;ca&quot;: &quot;Sri Lanka&quot; },
    &quot;Sudan&quot;: { &quot;es&quot;: &quot;Sudán&quot;, &quot;ca&quot;: &quot;Sudan&quot; },
    &quot;Suriname&quot;: { &quot;es&quot;: &quot;Surinam&quot;, &quot;ca&quot;: &quot;Surinam&quot; },
    &quot;Sweden&quot;: { &quot;es&quot;: &quot;Suecia&quot;, &quot;ca&quot;: &quot;Suècia&quot; },
    &quot;Switzerland&quot;: { &quot;es&quot;: &quot;Suiza&quot;, &quot;ca&quot;: &quot;Suïssa&quot; },
    &quot;Syria&quot;: { &quot;es&quot;: &quot;Siria&quot;, &quot;ca&quot;: &quot;Síria&quot; },
    &quot;Taiwan&quot;: { &quot;es&quot;: &quot;Taiwán&quot;, &quot;ca&quot;: &quot;Taiwan&quot; },
    &quot;Tajikistan&quot;: { &quot;es&quot;: &quot;Tayikistán&quot;, &quot;ca&quot;: &quot;Tadjikistan&quot; },
    &quot;Tanzania&quot;: { &quot;es&quot;: &quot;Tanzania&quot;, &quot;ca&quot;: &quot;Tanzània&quot; },
    &quot;Thailand&quot;: { &quot;es&quot;: &quot;Tailandia&quot;, &quot;ca&quot;: &quot;Tailàndia&quot; },
    &quot;Togo&quot;: { &quot;es&quot;: &quot;Togo&quot;, &quot;ca&quot;: &quot;Togo&quot; },
    &quot;Tonga&quot;: { &quot;es&quot;: &quot;Tonga&quot;, &quot;ca&quot;: &quot;Tonga&quot; },
    &quot;Trinidad_and_Tobago&quot;: { &quot;es&quot;: &quot;Trinidad y Tobago&quot;, &quot;ca&quot;: &quot;Trinitat i Tobago&quot; },
    &quot;Tunisia&quot;: { &quot;es&quot;: &quot;Túnez&quot;, &quot;ca&quot;: &quot;Tunísia&quot; },
    &quot;Turkey&quot;: { &quot;es&quot;: &quot;Turquía&quot;, &quot;ca&quot;: &quot;Turquia&quot; },
    &quot;Turkmenistan&quot;: { &quot;es&quot;: &quot;Turkmenistán&quot;, &quot;ca&quot;: &quot;Turkmenistan&quot; },
    &quot;Tuvalu&quot;: { &quot;es&quot;: &quot;Tuvalu&quot;, &quot;ca&quot;: &quot;Tuvalu&quot; },
    &quot;Uganda&quot;: { &quot;es&quot;: &quot;Uganda&quot;, &quot;ca&quot;: &quot;Uganda&quot; },
    &quot;Ukraine&quot;: { &quot;es&quot;: &quot;Ucrania&quot;, &quot;ca&quot;: &quot;Ucraïna&quot; },
    &quot;United_Arab_Emirates&quot;: { &quot;es&quot;: &quot;Emiratos Árabes Unidos&quot;, &quot;ca&quot;: &quot;Emirats Àrabs Units&quot; },
    &quot;United_Kingdom&quot;: { &quot;es&quot;: &quot;Reino Unido&quot;, &quot;ca&quot;: &quot;Regne Unit&quot; },
    &quot;United_States&quot;: { &quot;es&quot;: &quot;Estados Unidos&quot;, &quot;ca&quot;: &quot;Estats Units&quot; },
    &quot;Uruguay&quot;: { &quot;es&quot;: &quot;Uruguay&quot;, &quot;ca&quot;: &quot;Uruguai&quot; },
    &quot;Uzbekistan&quot;: { &quot;es&quot;: &quot;Uzbekistán&quot;, &quot;ca&quot;: &quot;Uzbekistan&quot; },
    &quot;Vanuatu&quot;: { &quot;es&quot;: &quot;Vanuatu&quot;, &quot;ca&quot;: &quot;Vanuatu&quot; },
    &quot;Venezuela&quot;: { &quot;es&quot;: &quot;Venezuela&quot;, &quot;ca&quot;: &quot;Veneçuela&quot; },
    &quot;Vietnam&quot;: { &quot;es&quot;: &quot;Vietnam&quot;, &quot;ca&quot;: &quot;Vietnam&quot; },
    &quot;Yemen&quot;: { &quot;es&quot;: &quot;Yemen&quot;, &quot;ca&quot;: &quot;Iemen&quot; },
    &quot;Zambia&quot;: { &quot;es&quot;: &quot;Zambia&quot;, &quot;ca&quot;: &quot;Zàmbia&quot; },
    &quot;Zimbabwe&quot;: { &quot;es&quot;: &quot;Zimbabue&quot;, &quot;ca&quot;: &quot;Zimbàbue&quot; },
      &quot;Aruba&quot;: { &quot;es&quot;: &quot;Aruba&quot;, &quot;ca&quot;: &quot;Aruba&quot; },
  &quot;Anguilla&quot;: { &quot;es&quot;: &quot;Anguila&quot;, &quot;ca&quot;: &quot;Anguilla&quot; },
  &quot;American_Samoa&quot;: { &quot;es&quot;: &quot;Samoa Americana&quot;, &quot;ca&quot;: &quot;Samoa Americana&quot; },
  &quot;Saint-Barthélemy&quot;: { &quot;es&quot;: &quot;San Bartolomé&quot;, &quot;ca&quot;: &quot;Saint-Barthélemy&quot; },
  &quot;Bermuda&quot;: { &quot;es&quot;: &quot;Bermudas&quot;, &quot;ca&quot;: &quot;Bermudes&quot; },
  &quot;Curaçao&quot;: { &quot;es&quot;: &quot;Curazao&quot;, &quot;ca&quot;: &quot;Curaçao&quot; },
  &quot;Cayman_Islands&quot;: { &quot;es&quot;: &quot;Islas Caimán&quot;, &quot;ca&quot;: &quot;Illes Caiman&quot; },
  &quot;Falkland_Islands&quot;: { &quot;es&quot;: &quot;Islas Malvinas&quot;, &quot;ca&quot;: &quot;Illes Malvines&quot; },
  &quot;Faeroe_Islands&quot;: { &quot;es&quot;: &quot;Islas Feroe&quot;, &quot;ca&quot;: &quot;Illes Fèroe&quot; },
  &quot;Greenland&quot;: { &quot;es&quot;: &quot;Groenlandia&quot;, &quot;ca&quot;: &quot;Groenlàndia&quot; },
  &quot;Guam&quot;: { &quot;es&quot;: &quot;Guam&quot;, &quot;ca&quot;: &quot;Guam&quot; },
  &quot;Kosovo&quot;: { &quot;es&quot;: &quot;Kosovo&quot;, &quot;ca&quot;: &quot;Kosovo&quot; },
  &quot;Latvia&quot;: { &quot;es&quot;: &quot;Letonia&quot;, &quot;ca&quot;: &quot;Letònia&quot; },
  &quot;Northern_Mariana_Islands&quot;: { &quot;es&quot;: &quot;Islas Marianas del Norte&quot;, &quot;ca&quot;: &quot;Illes Marianes del Nord&quot; },
  &quot;Montserrat&quot;: { &quot;es&quot;: &quot;Montserrat&quot;, &quot;ca&quot;: &quot;Montserrat&quot; },
  &quot;New_Caledonia&quot;: { &quot;es&quot;: &quot;Nueva Caledonia&quot;, &quot;ca&quot;: &quot;Nova Caledònia&quot; },
  &quot;Palestine&quot;: { &quot;es&quot;: &quot;Palestina&quot;, &quot;ca&quot;: &quot;Palestina&quot; },
  &quot;Puerto_Rico&quot;: { &quot;es&quot;: &quot;Puerto Rico&quot;, &quot;ca&quot;: &quot;Puerto Rico&quot; },
  &quot;French_Polynesia&quot;: { &quot;es&quot;: &quot;Polinesia Francesa&quot;, &quot;ca&quot;: &quot;Polinèsia Francesa&quot; },
  &quot;Sint_Maarten&quot;: { &quot;es&quot;: &quot;Sint Maarten&quot;, &quot;ca&quot;: &quot;Sint Maarten&quot; },
  &quot;Saint-Martin&quot;: { &quot;es&quot;: &quot;San Martín&quot;, &quot;ca&quot;: &quot;Saint-Martin&quot; },
  &quot;Turks_and_Caicos_Islands&quot;: { &quot;es&quot;: &quot;Islas Turcas y Caicos&quot;, &quot;ca&quot;: &quot;Illes Turks i Caicos&quot; },
  &quot;British_Virgin_Islands&quot;: { &quot;es&quot;: &quot;Islas Vírgenes Británicas&quot;, &quot;ca&quot;: &quot;Illes Verges Britàniques&quot; },
  &quot;United_States_Virgin_Islands&quot;: { &quot;es&quot;: &quot;Islas Vírgenes de los Estados Unidos&quot;, &quot;ca&quot;: &quot;Illes Verges dels Estats Units&quot; },
  &quot;Timor-Leste&quot;: { &quot;es&quot;: &quot;Timor Oriental&quot;, &quot;ca&quot;: &quot;Timor Oriental&quot; },
  &quot;Western_Sahara&quot;: { &quot;es&quot;: &quot;Sáhara Occidental&quot;, &quot;ca&quot;: &quot;Sàhara Occidental&quot; },
  &quot;Canary_Islands__Spain_&quot;: { &quot;es&quot;: &quot;Islas Canarias&quot;, &quot;ca&quot;: &quot;Illes Canàries&quot; },
  &quot;French_Guiana&quot;: { &quot;es&quot;: &quot;Guayana Francesa&quot;, &quot;ca&quot;: &quot;Guaiana Francesa&quot; },
  &quot;Guadeloupe&quot;: { &quot;es&quot;: &quot;Guadalupe&quot;, &quot;ca&quot;: &quot;Guadalupe&quot; },
  &quot;Martinique&quot;: { &quot;es&quot;: &quot;Martinica&quot;, &quot;ca&quot;: &quot;Martinica&quot; },
  &quot;Mayotte&quot;: { &quot;es&quot;: &quot;Mayotte&quot;, &quot;ca&quot;: &quot;Mayotte&quot; },
  &quot;Reunion&quot;: { &quot;es&quot;: &quot;Reunión&quot;, &quot;ca&quot;: &quot;Reunió&quot; },
  &quot;Saba__Netherlands_&quot;: { &quot;es&quot;: &quot;Saba&quot;, &quot;ca&quot;: &quot;Saba&quot; },
  &quot;St__Eustatius__Netherlands_&quot;: { &quot;es&quot;: &quot;San Eustaquio&quot;, &quot;ca&quot;: &quot;Sint Eustatius&quot; },
  &quot;Tanzania&quot;: { &quot;es&quot;: &quot;Tanzania&quot;, &quot;ca&quot;: &quot;Tanzània&quot; }
  }

}
    </metadata>
  <path
     id="path615"
     d="m 278.70157,224.58438 -0.2012,0.19922 -0.1992,-0.0996 -0.3008,0.0996 -0.1,0.30078 -0.1992,0.29883 -0.4004,0.10156 -0.5,-0.30078 -0.1,0.30078 0.1992,0.29883 0.1992,0.70117 0.3008,0.29883 0.3008,0.59961 0.3984,0.30078 0.5,0.0996 0.5,0.20117 h 0.5 l 0.4004,-0.30078 0.3008,0.30078 h 0.1992 l 0.3008,-0.10156 0.1992,0.30078 0.3008,-0.40039 0.5,-0.0996 0.4004,0.0996 0.5996,-0.29883 0.1992,-0.10156 0.5,-0.19922 0.2012,-0.19922 h 0.2988 l 0.1,-0.20117 0.1016,-0.59961 0.1992,-0.19922 v -0.10156 l -0.6988,-0.19921 -0.1016,0.0996 -0.2988,-0.19922 -0.3008,0.19922 v -0.5996 l -0.2988,-0.40039 h -0.3008 l -0.1992,0.30078 -0.4004,-0.20117 -0.3008,-0.0996 -0.2988,0.20117 -0.4004,-0.10156 -0.5996,0.5 h -0.6016 l -0.1,-0.19922 -0.5,-0.19922 -0.1,-0.40039 z m 6.6992,0.79883 -0.3008,0.10156 v 0.29883 l 0.3008,0.30078 0.4004,-0.20117 h 0.2988 l 0.4004,0.10156 -0.2988,-0.40039 -0.1016,-0.20117 -0.5,0.10156 z"
     name="Xipre" />
  <path
     d="m 230.59997,221.2836 -0.7988,2.70117 6.5996,1.29883 0.1,1 7.5996,-0.5 0.5,-1.90039 -2.7988,0.80078 v -1.19922 l -4,-0.40039 -4.0996,0.40039 z"
     id="path613" />
  <path
     d="m 74.599989,106.88321 -3.5,-1.19922 -3,0.0996 1.20117,-3.29883 -0.90039,-3.201171 -3.69922,2.800781 -6.70117,4.79883 2.09961,6.20117 -4.29883,6.40039 6.79883,0.89844 8.80078,-3.59961 3.90039,-5.5 z"
     id="path598"
     name="Irlanda" />
  <path
     id="path595"
     d="m 90.50038,78.183989 -5.59961,0.5 -3.59961,-0.40039 -3.80078,4.80078 -1.90039,6.19922 2.20117,3 0.09961,5.90039 2.59961,-2.90039 1.5,1.70117 -1.79883,2.69922 1.09961,1.599611 5.69922,1.09961 0.0996,0.10156 3.10156,3.69922 -0.80078,3.59961 -7.09961,-0.59961 -1,4 2.5,3.30078 -5.09961,1.89844 1.29883,2.5 7.59961,1 -4.39844,1.40039 -7.30078,6.5 2.5,1.20117 3.59961,-2.40039 4.5,0.69922 3.30078,-2.90039 2.19922,1.30078 8.40039,-1.80078 6.5,0.10156 4.40039,-3.20117 -1.90039,-3.19922 2.40039,-1.80078 0.59961,-4 -5.90039,-1.09961 -1.40039,-2.40039 -2.89844,-7 -3.20117,-1 -4.19921,-7.099611 -0.30078,-0.69922 -4.90039,-0.30078 4.30078,-5.40039 1.30078,-4.90039 h -5.10156 l -4.69922,0.80078 z m -18.09961,20.80078 -4,0.29883 0.90039,3.201171 -1.20117,3.29883 3,-0.0996 3.5,1.19922 2.70117,-4.09961 z"
     name="Regne Unit" />
  <path
     d="m 73.201549,60.683989 0.19922,0.30078 0.19922,0.19922 0.20117,0.40039 0.59961,0.40039 0.0996,-0.20117 -0.19922,-0.29883 v -0.40039 l -0.0996,-0.20117 h -0.30078 l -0.40039,-0.19922 z"
     id="path594" />
  <path
     d="m 73.500379,58.984769 0.20117,0.39844 0.5,0.10156 0.39844,0.5 0.10156,-0.10156 0.0996,-0.39844 -0.20117,-0.20117 -0.79883,-0.19922 z"
     id="path593" />
  <path
     d="m 76.301159,56.683989 -0.30078,0.19922 0.20117,0.20117 z"
     id="path592" />
  <path
     d="m 73.801159,57.584379 -0.59961,-0.20117 v -0.0996 l -0.30078,-0.50001 -0.5,-0.09961 -0.19922,0.80078 0.25586,0.19141 -0.55664,-0.0918 -0.0996,0.0996 -0.5,0.0996 0.19922,0.30078 0.20117,0.0996 0.59961,0.19922 0.19922,-0.19922 h 0.40038 v -0.30078 h -0.30078 l -0.0801,-0.16016 0.0801,0.0605 h 0.5 l 0.20117,0.20117 0.0996,0.19922 0.19922,0.0996 0.20117,0.20117 0.5,0.39844 0.0996,-0.59961 -0.30078,-0.19922 z"
     id="path591" />
  <path
     d="m 73.500379,56.584379 -0.40039,0.0996 -0.0996,0.0996 0.0996,0.30078 0.30078,0.29883 0.40039,0.20117 0.79883,0.5 0.40039,-0.30078 v -0.19922 l -0.59961,-0.20115 -0.09961,-0.19922 0.0996,-0.19922 -0.59961,-0.40039 z"
     id="path590" />
  <path
     d="m 75.301159,56.383209 -0.0996,0.10156 0.0996,0.39844 -0.20117,0.30078 h 0.30078 l 0.30078,0.19922 0.29883,-0.39844 -0.5,-0.20117 z"
     id="path589" />
  <path
     d="m 74.801159,56.283599 -0.0996,0.30078 0.19922,0.40039 h 0.19922 l -0.09962,-0.30078 z"
     id="path588" />
  <path
     d="m 35.701549,32.783598 -7.30078,2.900391 -5.09961,-1.5 -7,3 -6,-3.800781 -6.5996098,0.800781 -3.60156,3.699219 8.80078,1.300781 -0.09961,1.699219 -7.90039,1.101562 9,2.699219 -4.80078,2.5 11.9003898,1.80078 5.59961,0.89844 3.90039,-1.09961 13.09961,-3.900391 6.10156,-4.298828 -4.40039,-3.800782 1.40039,-3.599609 z"
     id="path587"
     name="Islàndia" />
  <path
     d="m 154.70157,76.883209 1.7988,-3.39844 3.4004,-4 0.8008,-6.90039 -3.1016,-2.90039 -1,-7.69922 2.4004,-5.400389 4.3008,0.09961 1.2988,-2.199219 -1.7988,-2 5.6992,-7.90039 3.4004,-6.09961 2.3008,-3.90039 h 4 l 0.5996,-3.09961 8,0.898438 -0.1,-3.59961 2.5996,-0.199218 2.1992,-1.400391 5.0996,2.800781 5.3008,-0.201172 4.6992,1.300782 3.4004,-2.400391 1.0996,-4 5.9004,-1.800781 5.8008,2.101562 -0.8008,3.798828 3.2012,-0.5 6.3984,-2.099609 -5.3984,-3.400391 4.8984,-1.40039 -13.6992,-3.898438 -7,1 -7.4004,-0.201172 -5.1992,4.400391 -6.7012,-0.300781 -8.5,2.40039 -10.2988,6.800782 -6.4,4.099608 -8.9004,10.699219 -7.1992,7.800781 -8.0996,5.90039 -11.3008,4.90039 -4,3.69922 2,13.5 1.8008,6.30078 6.5,3 6.0996,-1.40039 8.5996,-6.80078 z"
     id="path579"
     name="Noruega" />
  <path
     d="m 206.09997,35.683989 -1.7988,-2.199219 -1.8008,-8.5 -7.1992,-3.701172 -6,-2.699218 -2.5996,0.199218 0.1,3.59961 -8,-0.898438 -0.5996,3.09961 h -4 l -2.3008,3.90039 -3.4004,6.09961 -5.6992,7.90039 1.7988,2 -1.2988,2.199219 -4.3008,-0.09961 -2.4004,5.40039 1,7.69922 3.1016,2.90039 -0.8008,6.90039 -3.4004,4 -1.7988,3.39844 4.1992,8.40039 4.5,6.90039 1.9004,5.69922 5.5,-0.29883 2.1992,-4.80078 5.7012,0.59961 2.0996,-5.69922 0.5996,-10 4.5996,-1.40039 3.3008,-6.59961 -4.8008,-3.30078 -3.6992,-4.09961 2.0992,-8.09961 7.8008,-5 6.1992,-4.5 -1.3008,-3.5 3.5,-3.900391 z"
     id="path578"
     name="Suècia" />
  <path
     d="m 230.70157,67.183989 8,-7.40039 3.3984,-3.40039 0.9004,-2.89844 -7.4004,-3.90039 0.9004,-3.800781 -4.9004,-4.199218 1.7012,-4.800782 -6.5,-6.298828 2.9004,-4.201172 -7.3008,-3.699218 -0.4004,-3.800782 0.8008,-3.798828 -5.8008,-2.101562 -5.9004,1.800781 -1.0996,4 -3.4004,2.400391 -4.6992,-1.300782 -5.3008,0.201172 -5.0996,-2.800781 -2.1992,1.400391 6,2.699218 7.1992,3.701172 1.8008,8.5 1.7988,2.199219 6.5,2.599609 0.9004,2.400391 -2.5996,1.199219 -8.8008,6.201172 -3.2988,3.499999 -1.5996,3.40039 3,5.19922 -0.1016,5.80078 4.7012,1.89844 3.1992,3.20117 7.0996,-1.30078 7.6016,-2.09961 z"
     id="path577"
     name="Finlàndia" />
  <path
     d="m 236.80117,141.7836 1.5996,0.70117 1.8008,1.79883 2,2.59961 3.3984,3.80078 0.6016,2.69922 -0.2012,2.70117 1.3008,2.90039 1.1992,-0.70117 0.5996,-2.09961 1.1016,-2.09961 -0.6016,-1.09961 1,-0.5 0.6016,0.89844 3,0.20117 1.2988,-0.5 -1,-0.59961 0.2012,-1 -2,-1.60156 -1.1016,-2.59961 -2,-1 0.1016,-2.09961 -2.6016,-1.69922 -2,-0.30078 -4,-1.90039 -3.1992,0.59961 z"
     id="path576"
     name="Moldàvia" />
  <path
     d="m 134.80117,134.08438 0.1992,-2.70117 -1,-1.39844 -1.2988,0.19922 -0.4004,3.5 1.0996,0.5 z"
     id="path575"
     name="Luxemburg" />
  <path
     d="m 171.70157,137.68399 3.7988,2.09961 2.5996,-2.59961 1.7012,-0.5 4,1.90039 2.2988,-0.30078 2.4004,1.20117 0.5996,-1.40039 2.2012,0.0996 1.5996,-0.59961 0.1,-0.59961 0.9,-0.30077 0.1992,-1.40039 1.1016,-0.29883 0.6992,-1.10156 h 1.5 l -2.5996,-3.09961 -3.7012,-0.29883 -0.6992,-2 -3.4004,-0.70117 -0.5996,1.59961 -2.8008,-1.29883 0.2012,-1.70117 -3.7012,-0.5 -2.5,-2 -2.1992,0.60156 -1.3008,-0.70117 -1.0996,1.20117 -3.5,1.19922 -1.6992,1.59961 -3.4004,1.30078 1,1.79883 0.6992,2.70117 2.6016,1.5 z"
     id="path574"
     name="República Txeca" />
  <path
     d="m 156.70157,150.18399 -2.6016,-0.19922 -2.2988,-1.20117 0.6992,-1.5 -0.1992,-1.09961 -5.5,-1.90039 -1,1.30078 h -4.2012 l -1.2988,1.09961 -2.3008,-0.59961 0.2012,1.59961 -3.6016,3.5 v 2.90039 l 2.4004,-1 1.8008,2.69922 2.1992,1.40039 2.5,-0.30078 2.7012,-2.19922 0.8984,1 2.4004,-0.19922 1,-2.5 3.8008,0.79883 2.0996,-1.09961 z"
     id="path573"
     name="Suïssa" />
  <path
     d="m 185.70157,150.38321 1.2988,-4 -1.0996,-1.39844 h 2.8008 l 0.1992,-2.60156 -0.6992,-2.09961 0.2988,-0.79883 -2.4004,-1.20117 -2.2988,0.30078 -4,-1.90039 -1.7012,0.5 -2.5996,2.59961 -3.7988,-2.09961 -1.6016,2.90039 -1.6992,0.79883 1,4.10156 -0.4004,1.09961 -1.6992,-1.30078 -2.4004,-0.19922 -3.5,1.09961 -4.4004,-0.30078 -0.5996,1.70117 -2.6992,-1.70117 -1.4004,0.30078 0.1992,1.09961 -0.6992,1.5 2.2988,1.20117 2.6016,0.19922 3.0996,0.90039 0.5,-1.20117 4.9004,-1.09961 1.2988,2.09961 7.3008,1.70117 4.1992,0.5 2.4004,-1.5 4.4004,-0.0996 z"
     id="path572"
     name="Àustria" />
  <path
     d="m 202.80117,171.38321 1.0996,-0.29883 0.5,-2.90039 -2.6992,-2.5 1.0996,-2.80078 -1.9004,0.10156 -2.4004,-1.40039 -3.5,0.0996 -4.5,-1.09961 -2.2988,0.0996 -1,1.40039 -2,-1.5 -0.8008,2.59961 2.6992,3 1.3008,1.90039 2.5,2.40039 2.0996,1.39844 2.0996,2.70117 4.8008,2.40039 0.4004,-3.5 1.5996,-1.5 z"
     id="path571"
     name="Bòsnia i Hercegovina" />
  <path
     d="m 210.80117,181.98477 0.6992,0.0996 0.1,-1.30078 2.9004,-1 1.2012,-0.29883 -0.3008,-0.5 0.5996,-0.70117 0.4,-1.5996 -0.6992,0.0996 -1.1016,-1.19922 -0.8984,-0.30078 -0.8008,-1 -1,-0.40039 -0.8008,-0.89844 -0.8984,0.39844 -0.5,2.10156 -1.2012,0.39844 -0.7988,1.40039 1.1992,1.70117 1.3008,0.69922 z"
     id="path570" />
  <path
     d="m 219.80117,178.98477 -2.4004,0.19922 -1.6992,0.30078 -1.2012,0.29883 -2.9004,1 -0.1,1.30078 -0.6992,-0.0996 -0.5,2.19922 1,2.69922 2.2988,1.5 3.4004,-0.5 1.8008,-1.39844 2.7988,0.0996 0.8008,-1.09961 1,-0.20117 -0.8008,-4.19922 z"
     id="path569"
     name="Macedònia" />
  <path
     d="m 206.30117,154.98477 -3.2012,-0.30078 -3.6992,1.59961 1.5,2.5 1.6992,1.80078 -1.6992,2.40039 1.9004,-0.10156 -1.0996,2.80078 2.6992,2.5 -0.5,2.90039 -1.0996,0.29883 1.4004,1.10156 0.8984,0.89844 1.7012,0.70117 2.0996,1.29883 -0.4004,0.5 1.2012,-0.39844 0.5,-2.10156 0.8984,-0.39844 0.8008,0.89844 1,0.40039 0.8008,1 0.8984,0.30078 1.1016,1.19922 0.6992,-0.0996 -0.4004,1.59961 -0.5996,0.70117 0.3008,0.5 1.6992,-0.30078 2.4004,-0.19922 0.6992,-0.80078 -0.5996,-0.80078 0.5996,-2 1.8008,-2 -2.8008,-2.69922 -0.6992,-2.40039 1.0996,-1.40039 -1,-1.09961 1,-1.09961 -1.3008,-0.69922 -1.5,1.39844 -3.0996,-1.89844 -0.6992,-2.60156 -3.2012,-1.39844 -0.7988,-2.10156 z"
     id="path568"
     name="Sèrbia" />
  <path
     d="m 214.09997,140.58438 -1,0.59961 -5.5,-1.90039 -1.5996,0.40039 -1,1.5 -2.2988,0.80078 -0.6016,-0.40039 -2.2988,0.90039 -1.9004,0.19922 -0.3008,1.30078 -4.0996,0.69922 -1.9004,-0.59961 -2.6992,-1.70117 -0.1992,2.60156 h -2.8008 l 1.0996,1.39844 -1.2988,4 0.7988,0.10156 1.2012,2.09961 1.5996,0.79883 4,2.70117 4.2988,1.19922 1.8008,-1 3.6992,-1.59961 3.2012,0.30078 3.9004,-1.20117 2.5996,-4.29883 1.9004,-4.20117 2.8984,-1.29883 -0.5,-1.70117 z"
     id="path567"
     name="Hongria" />
  <path
     d="m 216.00037,136.38321 -5,-2.39844 -3.5,0.89844 -2.4004,-0.59961 -2.7988,1.30078 -2.7012,-2.20117 -1.8984,0.90039 -0.3008,-0.40039 h -1.5 l -0.6992,1.10156 -1.1016,0.29883 -0.1992,1.40039 -0.9004,0.30078 -0.1,0.59961 -1.5996,0.59961 -2.2012,-0.0996 -0.5996,1.40039 -0.2988,0.79883 0.6992,2.09961 2.6992,1.70117 1.9004,0.59961 4.0996,-0.69922 0.3012,-1.30079 1.9004,-0.19922 2.2988,-0.90039 0.6016,0.40039 2.2988,-0.80078 1,-1.5 1.5996,-0.40039 5.5,1.90039 1,-0.59961 0.7012,-2.5 z"
     id="path566"
     name="Eslovàquia" />
  <path
     d="m 236.30117,92.984769 -4.5996,2.29883 -2.7012,1 1,2.70117 -3.5996,2.000001 -0.5,3.39844 -4.8008,2.30078 h -4.6992 l 0.5996,2.69922 1.7012,2.30078 0.3984,2.40039 -2.7988,1.29883 1.9004,2.80078 0.5,2.80078 2.2988,-0.30078 2.4004,-1.59961 3.8008,-0.20117 4.8984,0.5 5.7012,1.5 3.9004,0.10156 1.8984,0.89844 1.7012,-1.09961 1.5,1.5 4.2988,-0.29883 2.1016,0.59961 -0.3008,-3.09961 1.3008,-1.40039 4.0996,-0.30078 -2,-4 -1.5,-2 0.7988,-0.59961 3.9004,0.19922 1.5996,-1.29883 -1.6992,-1.59961 -3.4004,-1.10156 v -1.09961 l -2.0996,-1.09961 -3.8008,-4 0.7012,-1.599611 -1.0996,-2.90039 -4.8008,-1.40039 -2.4004,0.70117 -0.9004,-1.5 z"
     id="path565"
     name="BIelorrússia" />
  <path
     d="m 216.59997,83.183989 3.8008,-1 2.0996,0.69922 4.4004,2.20117 3.8008,0.0996 1.5996,-1.90039 -2.4004,-5.5996 2.5996,-3.40039 -0.9004,-1 -4.6992,0.0996 -5.0996,-0.89844 -5.5996,0.79883 -5.5,1.70117 1,3.39844 3.2988,2.10156 1.5,-0.80078 z"
     id="path564"
     name="Estònia" />
  <path
     d="m 203.09997,93.783599 5.1016,-1.79883 7.8984,0.39844 4.5,-0.59961 0.9004,1.20117 2.5,0.39844 5,2.90039 2.7012,-1 4.5996,-2.29883 -2.0996,-3.60156 -1,-2.89844 -2.5,-1.30078 -3.8008,-0.0996 -4.4004,-2.20117 -2.0996,-0.69922 -3.8008,1 -0.1,4.59961 -3.6992,0.20117 -4.4004,-4.5 -4.0996,2 -1.7012,3.79883 z"
     id="path563"
     name="Letònia" />
  <path
     d="m 204.80117,98.883209 5.0996,1.10156 2.1992,0.898441 -0.1992,1.70117 0.5996,1.5 2.5,0.69922 1.4004,1.90039 h 4.6992 l 4.8008,-2.30078 0.5,-3.39844 3.5996,-2.000001 -1,-2.70117 -5,-2.90039 -2.5,-0.39844 -0.9004,-1.20117 -4.5,0.59961 -7.8984,-0.39844 -5.1016,1.79883 z"
     id="path562"
     name="Lituània" />
  <path
     d="m 171.80117,107.58438 1.4004,3.09961 -1.2012,1.69922 1.9004,2.10156 1.5,3.29883 -0.1992,2.20117 2.3984,3.89844 2.5,2 3.7012,0.5 -0.2012,1.70117 2.8008,1.29883 0.5996,-1.59961 3.4004,0.70117 0.6992,2 3.7012,0.29883 2.5996,3.09961 0.3008,0.40039 1.8984,-0.90039 2.7012,2.20117 2.7988,-1.30078 2.4004,0.59961 3.5,-0.89844 5,2.39844 1.0996,0.40039 -1.5996,-2.79883 3.8008,-5.20117 2.2988,-0.69922 0.3008,-1.70117 -3.1992,-5.39844 -0.5,-2.80078 -1.9004,-2.80078 2.7988,-1.29883 -0.3984,-2.40039 -1.7012,-2.30078 -0.5996,-2.69922 -1.4004,-1.90039 -2.5,-0.69922 -8.7988,0.0996 -5.9004,-0.69922 h -4.5996 l -0.6016,-1.5 -4.7988,-1 -5.8008,2 -7.0996,2.79883 z"
     id="path560"
     name="Polònia" />
  <path
     id="path559"
     d="m 144.59997,100.2836 3.7012,0.80078 2.9004,-0.90039 -1.4004,-3.000001 3.0996,-4.30078 1.4004,0.60156 1,-2.30078 -2.5996,-0.90039 -0.7012,-1.59961 1.2012,-2 v -3.09961 l -3.6016,1.69922 -1.5996,1.70117 -4,0.29883 -1.2988,1.80078 -0.6016,1.69922 0.4004,6.09961 z m 17.7012,-7.000001 -6.8008,2 0.9004,2.5 5.1992,3.500001 2.4004,-4.900391 z"
     name="Dinamarca" />
  <path
     d="m 137.40077,109.2836 0.9004,2.09961 -0.9004,5.60156 -1.1992,2.29883 h -2.9004 l 1.0996,6.5 -0.4004,4.20117 1,1.39844 -0.1992,2.70117 2.4004,1.59961 7.1992,1.19922 -2.4004,4.20117 -0.4004,4.5 h 4.2012 l 1,-1.30078 5.5,1.90039 1.4004,-0.30078 2.6992,1.70117 0.5996,-1.70117 4.4004,0.30078 3.5,-1.09961 2.4004,0.19922 1.6992,1.30078 0.4004,-1.09961 -1,-4.10156 1.6992,-0.79883 1.6016,-2.90039 -3,-2.59961 -2.6016,-1.5 -0.6992,-2.70117 -1,-1.79883 3.4004,-1.30078 1.6992,-1.59961 3.5,-1.19922 1.0996,-1.20117 1.3008,0.70117 2.1992,-0.60156 -2.3984,-3.89844 0.1992,-2.20117 -1.5,-3.29883 -1.9004,-2.10156 1.2012,-1.69922 -1.4004,-3.09961 -2.4004,-1.90039 -5.5996,-2.40039 -2.5996,1.59961 -4.7012,1.20117 -0.1,-2.20117 -4.9004,-1.39844 -0.2988,-2.30078 -2.9004,0.90039 -3.7012,-0.80078 0.4004,3.40039 1.3008,2.30078 -3.0996,3 -1,-1.30078 -4,0.30078 z"
     id="path558"
     name="Alemanya" />
  <path
     d="m 120.40077,122.38321 3.5996,0.5 4.5,-1.29883 3.0996,2.69922 2.8008,1.5 -1.0996,-6.5 h 2.9004 l 1.1992,-2.29883 0.9004,-5.60156 -0.9004,-2.09961 -4,-0.19922 -6.5,2.59961 -4,9 z"
     id="path557"
     name="Països Baixos" />
  <path
     d="m 116.50038,123.58438 0.80078,2.19922 2.19921,0.0996 2.4004,2.5 3.5,2.90039 2.5,-0.5 4.4004,2.90039 0.4004,-3.5 1.2988,-0.19922 0.4004,-4.20117 -2.8008,-1.5 -3.0996,-2.69922 -4.5,1.29883 -3.5996,-0.5 z"
     id="path556"
     name="Bèlgica" />
  <path
     d="m 64.801159,212.38321 -0.40039,-2.19922 2,-2.40039 0.80078,-1.69922 -1.80078,-1.90039 1.59961,-4.19922 -2,-3.80078 2.30078,-0.5 0.29883,-3.09961 0.80078,-0.90039 0.30078,-5 2.39844,-1.69922 -1.29883,-3.20117 -3.09961,-0.19922 -0.90039,0.79883 h -3 l -1.20117,-3.09961 -2.19922,0.90039 -1.90039,1.59961 0.20117,2.20117 0.89844,2.29883 v 2.70117 l -1.19922,3.79883 -0.5,2.59961 -2.19922,2.30078 -0.5,4.19922 1.09961,2.40039 2.40039,0.59961 0.29883,3.90039 -0.90039,5 2.70117,-0.69922 2.79883,0.90039 z"
     id="path555"
     name="Portugal" />
  <path
     id="path554"
     d="m 119.59997,178.08438 -5.89842,0.79883 -1.17907,-0.65584 -0.0318,0.32041 -2.26485,0.35009 0.0166,-1.80045 -2.34161,-1.11265 -1.90039,1.39844 -9.5,-2.89844 -2,-2.40039 -8.29883,-0.30078 -4.30083,0.40039 -5.40039,-1.09961 h -6.90039 l -6.19922,-1.09961 -7.40039,4.59961 2,2.69922 -0.5,4.5 1.90039,-1.59961 2.19922,-0.90039 1.20117,3.09961 h 3 l 0.90039,-0.79883 3.09961,0.19922 1.29883,3.20117 -2.39844,1.69922 -0.30078,5 -0.80078,0.90039 -0.29883,3.09961 -2.30078,0.5 2,3.80078 -1.59961,4.19922 1.80078,1.90039 -0.80078,1.69922 -2,2.40039 0.40039,2.19922 4.90039,1 1.39844,3.60156 1.90039,2.19922 2.59961,0.5 2.10156,-2.40039 3.39844,-2.19922 5,0.0996 6.80078,-0.0996 3.69922,-4.90039 4,-1.30078 1.20117,-4.19922 3,-2.80078 -2,-3.69922 2,-5.19922 3.19922,-3.5 0.5,-2.10156 6.59961,-1.39844 4.90038,-4.20117 z m -74.37889,35.19531 -0.20117,0.0996 -0.19922,0.5 -0.0996,0.10156 h -0.5 l -0.30078,0.29883 h -0.30078 l -0.29883,0.20117 -0.20117,0.29883 v 0.40039 l -0.19922,0.40039 v 0.0996 l 0.5,0.19922 0.40039,-0.5 0.5,-0.0996 0.69922,-0.5 0.20117,-0.5 v -0.40039 l 0.19922,-0.39844 z m -24.40039,2.5 -0.30078,0.20117 -0.19922,0.39844 0.0996,0.20117 0.0996,0.29883 0.40039,0.90039 0.0996,0.40039 0.0996,0.0996 0.60156,-1 -0.10156,-0.40039 0.20117,-0.29883 -0.20117,-0.5 -0.19922,-0.30078 -0.30078,0.0996 z m 21.90039,0.59961 -0.40039,0.10156 -0.20117,0.19922 -0.19922,0.80078 -0.30078,0.59961 -0.29883,0.40039 -0.20117,0.5 -0.0996,0.29883 -0.0996,0.5 -0.30078,0.30078 -0.39844,0.29883 -0.60156,0.20117 h -0.29883 v 0.19922 h 0.40039 l 0.29883,0.0996 0.40039,-0.0996 0.30078,-0.40039 0.19922,-0.19922 0.69922,-0.30078 0.60156,-0.0996 0.29883,-0.29883 0.30078,-0.70117 0.0996,-0.0996 v -0.5 l 0.0996,-0.5 0.0996,-0.5 -0.0996,-0.5 z m -12.30078,1.10156 -0.30078,0.0996 h -0.59961 l -0.59961,0.29883 v 0.20117 l -0.5,0.40039 -0.5,0.19922 h -0.40039 l -0.59961,0.19922 -0.30078,-0.19922 -0.5,0.30078 0.40039,0.59961 v 0.29883 l 0.20117,0.30078 0.0996,0.19922 0.29883,0.40039 0.10156,0.40039 0.0996,0.0996 0.59961,-0.19922 h 0.19922 l 0.10156,-0.20117 0.5,-0.59961 0.0996,-0.40039 0.40039,-0.69922 v -0.40039 l 0.29883,-0.19922 0.40039,-0.5 0.59961,-0.30078 v -0.19922 z m -6.5,2.39844 -0.0996,0.30078 -0.0996,0.40039 0.19922,0.29883 0.30078,0.20117 h 0.19922 0.19922 l 0.5,-0.5 -0.0996,-0.30078 -0.5,-0.40039 h -0.29883 z m 8.80078,0.30078 0.59961,0.0996 h 0.40039 l 0.29883,0.0996 0.30078,-0.0996 v 0.5 l 0.19922,0.40039 -0.19922,0.69922 0.0996,0.30078 -0.40039,0.40039 -0.5,0.19922 -0.19922,0.20117 -0.59961,-0.20117 -0.5,-0.5 -0.20117,-0.40039 v -0.59961 l 0.59961,-0.40039 0.10156,-0.5 z m 0,0 v 0.19922 l -0.10156,0.5 -0.59961,0.40039 v 0.59961 l 0.20117,0.40039 0.5,0.5 0.59961,0.20117 0.19922,-0.20117 0.5,-0.19922 0.40039,-0.40039 -0.0996,-0.30078 0.19922,-0.69922 -0.19922,-0.40039 v -0.5 l -0.30078,0.0996 -0.29883,-0.0996 H 33.3207 Z m -12.30078,2 -0.30078,0.19922 -0.39844,0.40039 -0.40039,-0.0996 -0.20117,0.30078 0.20117,0.19922 h 0.40039 l 0.29883,0.40039 0.40039,-0.5 0.30078,-0.5 -0.10156,-0.30078 z"
     name="Espanya" />
  <path
     id="path553"
     d="m 142.30117,170.2836 0.5,-2.69922 -2.8008,-0.80078 -1.5,-4.90039 1.7012,-1.89844 -1.5,-2.40039 0.1,-1.80078 -1.8008,-2.69922 -2.4004,1 v -2.90039 l 3.6016,-3.5 -0.2012,-1.59961 2.3008,0.59961 1.2988,-1.09961 0.4004,-4.5 2.4004,-4.20117 -7.1992,-1.19922 -2.4004,-1.59961 -1.4004,0.0996 -1.0996,-0.5 -4.4004,-2.90039 -2.5,0.5 -3.5,-2.90039 -2.4004,-2.5 -2.19921,-0.0996 -0.80078,-2.19922 -4.19922,1.29883 -1.5,5.10156 -11.40039,4.79883 -4.69922,-2.69922 1.5,7.09961 -8.30078,-1.59961 -6.5,1.29883 0.40039,4.60156 7.59961,2.39844 3.69922,3.20117 5.10156,6.59961 -1,12.59961 -2.70117,3.80078 2,2.40039 9.5,2.89844 1.90039,-1.39844 2.45147,1.2251 0.40645,-0.70962 1.75621,0.9717 0.007,0.82133 1.1799,0.58993 5.89837,-0.79883 0.6016,-3.80078 7.3984,-2.09961 10.2012,1.69922 z m 10.1992,4.40039 -3.1992,2.40039 -0.9004,2.40039 1.3008,4.19922 2.3984,1.30078 1.5,-4.90039 z"
     name="França" />
  <path
     id="path552"
     d="m 174.80117,158.38321 -1.4004,-2.69922 0.4004,-3.09961 -7.3008,-1.70117 -1.2988,-2.09961 -4.9004,1.09961 -0.5,1.20117 -3.0996,-0.90039 -0.3008,2.5 -2.0996,1.09961 -3.8008,-0.79883 -1,2.5 -2.4004,0.19922 -0.8984,-1 -2.7012,2.19922 -2.5,0.30078 -2.1992,-1.40039 -0.1,1.80078 1.5,2.40039 -1.7012,1.89844 1.5,4.90039 2.8008,0.80078 -0.5,2.69922 2.0996,-0.40039 2.9004,-3 2.2988,-0.79883 4.2012,2.09961 2.5996,0.69922 1.9004,6.30078 3.6992,3.59961 4.9004,4.20117 4.3008,2.79883 3.7988,0.40039 2.4004,2.59961 3.4004,1.20117 1.7988,2.69922 2.2012,0.80078 1.7988,3.19922 2.3008,3.69922 -1.0996,1.40039 -0.9,3.40039 0.1,2 2.2012,-0.5 2.5,-5.5 2.0996,-0.40039 0.4004,-3.29883 -3.9004,-2.40039 1.9004,-4.09961 4.5996,1 3.0996,3 0.8008,-2.30078 -0.6016,-1.09961 -4.6992,-3.40039 -4,-1.90039 -4.8008,-2.29883 1.4004,-1.30078 -1.4004,-1.40039 -4,0.0996 -6.0996,-5.09961 -2.9004,-5.29883 -5,-3.20117 -1.8984,-3.19922 0.5,-1.80078 -0.4004,-3.09961 3.9004,-2.30078 z m -22.7012,27.70117 -2.5,2 -2.8984,-0.30078 1.2988,3.59961 0.5,7.70117 2,1.69922 2.0996,-2.09961 2.4004,0.40039 0.4004,-8.5 z m 34,19 -4,0.59961 -5.3984,0.69922 -6.2012,-0.59961 -0.5,3.30078 7.5,3.19922 2.7012,0.70117 4.1992,2.39844 0.9004,-3.29883 -0.9004,-1.90039 z m -6,13.79883 -0.3984,0.10156 v 0.19922 l 0.5,0.0996 0.2988,-0.0996 z m 0.4004,0.70117 0.1,0.0996 v 0.5 l 0.5,0.30078 0.5,0.19922 0.2012,-0.30078 -0.1,-0.29883 -0.2012,-0.20117 -0.4004,-0.29883 z"
     name="Itàlia" />
  <path
     d="m 173.70157,158.88321 3.5996,0.20117 0.7988,-1 1.8008,1 2,0.0996 -0.1,-1.69922 1.6992,-0.70117 0.3008,-2.5 3.9004,-1.69922 -1.2012,-2.09961 -0.7988,-0.10156 -0.9004,1.10156 -4.4004,0.0996 -2.4004,1.5 -4.1992,-0.5 -0.4,3.09963 1.4004,2.69922 z"
     id="path551"
     name="Eslovènia" />
  <path
     d="m 199.40077,177.98477 0.5,-1 -4.8008,-2.40039 -2.0996,-2.70117 -2.0996,-1.39844 -2.5,-2.40039 -1.3008,-1.90039 -2.6992,-3 0.8008,-2.59961 2,1.5 1,-1.40039 2.2988,-0.0996 4.5,1.09961 3.5,-0.0996 2.4004,1.40039 1.6992,-2.40039 -1.6992,-1.80078 -1.5,-2.5 -1.8008,1 -4.2988,-1.19922 -4,-2.70117 -1.5996,-0.79883 -3.9004,1.69922 -0.3008,2.5 -1.6992,0.70117 0.1,1.69922 -2,-0.0996 -1.8008,-1 -0.7988,1 -3.5996,-0.20117 -0.1016,0.10156 v 2.19919 l 1.6016,2.09961 1.3984,-2.69922 3.3008,1 0.3008,2.09961 2.5,2.69922 -1,0.5 4.6992,4.60156 4.8008,1.89844 3.1988,2.30078 z"
     id="path550"
     name="Croàcia" />
  <path
     d="m 204.50037,181.88321 -0.5,-2.09961 1.9004,-3.09961 0.4004,1.19922 1.4004,-0.59961 0.7988,-1.40039 0.4004,-0.5 -2.0996,-1.29883 -1.7012,-0.70117 -0.8984,-0.89844 -1.4004,-1.10156 -0.9004,0.60156 -1.5996,1.5 -0.4004,3.5 -0.5,1 2.3008,1.29883 1.6992,2.09961 z"
     id="path549"
     name="Montenegro" />
  <path
     id="path547"
     d="m 239.80117,188.58438 1.1992,-0.70117 1.0996,-4 -2.6992,-1.69922 0.3008,3.19922 -4.6016,0.60156 -3.8984,-2.30078 -4,1.80078 -3.8008,-0.20117 -1,0.20117 -0.8008,1.09961 -2.7988,-0.0996 -1.8008,1.39844 -3.4004,0.5 0.1016,1.70117 -1.7012,0.90039 -0.1,2.09961 -2.1992,3.09961 0.5,1.80078 3,3.69922 2.2988,2.90039 1.3008,4.29883 2.4004,5.10156 4.5996,2.79883 3.5,-0.0996 -2.5,-5.69922 3.2988,-0.60156 -1.7988,-3.29883 5,1.69922 -0.4,-3.59963 -2.8008,-1.90039 -3.1992,-2.90039 1.9004,-1.39844 -2.9004,-3 -1.5996,-3.80078 0.9004,-1.40039 3.0996,3.30078 h 2.9004 l 2.5,-1.09961 -4,-3.60156 6.1992,-1.59961 2.6992,0.59961 z m -9.2012,32.69922 3.1016,2.20117 4.0996,-0.40039 4,0.40039 v 1.19922 l 2.7988,-0.80078 -0.5,1.90039 -7.5996,0.5 -0.1,-1 -6.5996,-1.29883 z"
     name="Grècia" />
  <path
     d="m 209.70157,196.18399 2.1992,-3.09961 0.1,-2.09961 1.7012,-0.90039 -0.1016,-1.70117 -2.2988,-1.5 -1,-2.69922 0.5,-2.19922 -0.6,-2.30078 -1.3008,-0.69922 -1.1992,-1.70117 -1.4004,0.59961 -0.4004,-1.19922 -1.9004,3.09961 0.5,2.09961 0.9004,1 -0.5,1.90039 -0.1,4.40039 0.6992,3 3.0996,2.19922 0.2012,1.40039 z"
     id="path548"
     name="Albània" />
  <path
     d="m 250.50037,170.2836 -3.0996,-0.69922 -4,-2.30078 -5.9004,1.5 -2.2988,1.59961 -7.6016,-0.39844 -4,-0.90039 -1.8984,0.40039 -1.8008,-2.60156 -1.0996,1.40039 0.6992,2.40039 2.8008,2.69922 -1.8008,2 -0.5996,2 0.5996,0.80078 -0.6992,0.80078 2.7988,2.09961 0.8008,4.19922 3.8008,0.20117 4,-1.80078 3.8984,2.30078 4.6016,-0.60156 -0.3008,-3.19922 5,-2 4.5996,0.80078 -2.0996,-3.60156 1.3008,-4.5 z"
     id="path545"
     name="Bulgària" />
  <path
     d="m 254.40077,160.18399 -2.4004,-1.09961 -2.2988,1.09961 -2.4004,-1.19922 -1.3008,-2.90039 0.2012,-2.70117 -0.6016,-2.69922 -3.3984,-3.80078 -2,-2.59961 -1.8008,-1.79883 -1.5996,-0.70117 h -2.0996 l -1,1.5 -3.6016,0.59961 -1.5996,1 -2.5,-1.59961 h -3.1992 l -3.2012,-0.69922 -2,1.40039 -2.8984,1.29883 -1.9004,4.20117 -2.5996,4.29883 -3.9004,1.20117 3,2.39844 0.7988,2.10156 3.2012,1.39844 0.6992,2.60156 3.0996,1.89844 1.5,-1.39844 1.3008,0.69922 -1,1.09961 1,1.09961 1.8008,2.60156 1.8984,-0.40039 4,0.90039 7.6016,0.39844 2.2988,-1.59961 5.9004,-1.5 4,2.30078 3.0996,0.69922 0.4004,-7.69922 1.5996,0.59961 2.3008,-1.30078 z"
     id="path544"
     name="Romania" />
  <path
     d="m 296.00037,148.7836 -0.4004,-2.69922 2.2012,-1.80078 4.7988,-0.40039 0.3008,-2.09961 -1.8008,-3.5 1.3008,-3.19922 -0.4004,-1.90039 -7.6992,-2 -2.9004,0.0996 -3.5996,-2.90039 -3.5996,1 -6.7012,-2.19922 -0.1,-1.19922 -2.3008,-2.70117 -3.8984,-0.29883 -0.8008,-1.90039 0.9004,-1.30078 -3.8008,-3.5 -4.9004,0.59961 -1.5,-0.29883 -1,1.40039 -1.7988,-0.20117 -4.0996,0.30078 -1.3008,1.40039 0.3008,3.09961 -2.1016,-0.59961 -4.2988,0.29883 -1.5,-1.5 -1.7012,1.09961 -1.8984,-0.89844 -3.9004,-0.10156 -5.7012,-1.5 -4.8984,-0.5 -3.8008,0.20117 -2.4004,1.59961 -2.2988,0.30078 3.1992,5.39844 -0.3008,1.70117 -2.2988,0.69922 -3.8008,5.20117 1.5996,2.79883 -1.0996,-0.40039 -1.1992,1.70117 -0.7012,2.5 3,1.69922 0.5,1.70117 2,-1.40039 3.2012,0.69922 h 3.1992 l 2.5,1.59961 1.5996,-1 3.6016,-0.59961 1,-1.5 h 2.0996 l 1.0996,-0.90039 3.1992,-0.59961 4,1.90039 2,0.30078 2.6016,1.69922 -0.1016,2.09961 2,1 1.1016,2.59961 2,1.60156 -0.2012,1 1,0.59961 -1.2988,0.5 -3,-0.20117 -0.6016,-0.89844 -1,0.5 0.6016,1.09961 -1.1016,2.09961 -0.5996,2.09961 -1.1992,0.70117 2.4004,1.19922 2.2988,-1.09961 2.4004,1.09961 3.3008,-4.59961 1.2988,-3.5 4.5,-0.80078 0.8008,2.40039 8.0996,1.59961 1.6992,1.40039 -4.5996,2.09961 -0.6992,1.20117 5.9004,1.89844 -0.7012,2.90039 3.0996,1.30078 6.3008,-3.59961 5.4004,-1.10156 0.5996,-2.29883 -5.0996,0.40039 -2.8008,-1.5 -1,-3.90039 4,-2.40039 4.5996,-0.30078 3,-2.09961 z"
     id="path543"
     name="Ucraïna" />
  <path
     d="m 346.90077,201.88321 -2.8008,-3.69922 -0.1992,-1 h -2.3008 l -1.8984,-1.69922 -1,0.0996 1.1992,2.5 3.1992,2.90039 z"
     id="path542" />
  <path
     d="m 348.70157,201.68399 -0.9004,-4.5 -2.5,-1 -2.5996,-1.69922 1.0996,-2.10156 -3.2012,-2.19922 0.7012,-1.59961 -2.2012,-1.09961 -1.3984,-1.60156 -7,1 1.2988,2.20117 0.1,3.09961 4.2012,1.59961 2.4004,1.80078 1,-0.0996 1.8984,1.69922 h 2.3004 l 0.1992,1 2.8008,3.69922 z"
     id="path541"
     name="Armènia" />
  <path
     d="m 344.40077,181.98477 -1.1992,0.79883 3.2988,3.5 -0.5996,0.70117 -2.9004,-0.30078 -4.1992,-1.90039 -1.0996,1.09961 1.3984,1.60156 2.2012,1.09961 -0.7012,1.59961 3.2012,2.19922 -1.0996,2.10156 2.5996,1.69922 2.5,1 0.9004,4.5 5.2988,-4.69922 1.9004,-0.5 1.9004,1.89844 -1.2012,3.10156 3.9004,3.39844 1.3008,-0.39844 -0.8008,-3.10156 1.7012,-1.5 0.3984,-2.19922 -0.1,-5 4.2012,-0.5 -1.9004,-1.69922 -2.5,-0.30078 -3.5996,-4.59961 -3.5,-3.30078 -2.5,2.59961 -0.6016,1.60156 -2.3984,-0.5 -4.3004,-3.80078 z"
     id="path540"
     name="Azerbaidjan" />
  <path
     d="m 319.59997,183.98477 5.5,-0.30078 5.6016,3.19922 7,-1 1.0996,-1.09961 4.1992,1.90039 2.9004,0.30078 0.5996,-0.70117 -3.2988,-3.5 1.1992,-0.79883 -3.5996,-1.5 -2.0996,-2.60156 -5.1016,-1.29883 -2.8984,1 -1.2012,-1.20117 -7.5996,-3.09961 -7.6992,-1 -4.6016,-1.09961 -0.3984,0.80078 2.1992,1.89844 3,0.70117 3.4004,2.40039 2.0996,4.29883 z"
     id="path539"
     name="Geòrgia" />
  <path
     id="path538"
     d="m 296.80117,220.48477 1.2988,-1.40039 1.2012,-1.40039 -0.2012,-3.5 1.9004,1.19922 5.5996,-1.79883 3,1.19922 h 4.4004 l 5.7012,-2.40039 2.8984,0.10156 5.9004,-1 2.0996,-1 6.3008,0.89844 2.0996,1.60156 2.4004,-1.10156 -3.8008,-5.09961 0.7012,-2 -2.9004,-7.29883 3.3008,-1.90039 -2.4004,-1.80078 -4.2012,-1.59961 -0.1,-3.09961 -1.2988,-2.20117 -5.6016,-3.19922 -5.5,0.30078 -5.5,3.39844 -4.5996,-0.59961 -5.7988,1 -7.9004,-2.5 -9.8008,-4.5 -8.5,0.20117 -5.7988,1.79883 -5.6016,4.09961 -10,-0.89844 -1.5996,4.89844 -8,0.20117 -5.0996,6.09961 3.5996,3.09961 -2,5 4.2012,3.5 3.7988,6.40039 5.8008,-0.0996 5.4004,3.40039 3.5996,-0.80078 1,-2.59961 5.6992,0.19922 4.7012,3.40039 8,-0.69922 3.1992,-3.70117 4.5996,1.5 3.2012,-0.59961 -1.7012,2.40039 z m -47.8008,-39.5 -4.5996,-0.80078 -5,2 2.6992,1.69922 -1.0996,4 -1.1992,0.70117 0.1,1.29883 2,2.90039 3.9004,-3.40039 2,-2 6.1992,-0.29883 0.7012,-1.59961 -4.8008,-2 z"
     name="Turquia" />
  <path
     d="m 297.75627,233.9418 0.1445,-0.55859 2.6992,-2.5 -1.1992,-2.5 -2.5,-0.29883 v 0.19922 l -2.1992,4.5 -0.2852,1.1582 z"
     id="path537" />
  <path
     d="m 316.58237,233.9418 7.3184,-4.45703 1,-7.70117 -1.1992,-4.69922 2.6992,-1.59961 2.0996,-4 -5.9004,1 -2.8984,-0.10156 -5.7012,2.40039 h -4.4004 l -3,-1.19922 -5.5996,1.79883 -1.9004,-1.19922 0.2012,3.5 -1.2012,1.40039 -1.2988,1.40039 -1,2.69922 1.0996,4.90039 2.5,0.29883 1.1992,2.5 -2.6992,2.5 -0.1445,0.55859 z"
     id="path536" />
  <path
     d="m 349.17617,233.9418 -1.1758,-1.55859 0.5,-5 2.3008,-2.19922 -0.9004,-3.69922 -3.8008,-2 -4.6992,-7.60156 -2.4004,1.10156 -2.0996,-1.60156 -6.3008,-0.89844 -2.0996,1 -2.0996,4 -2.6992,1.59961 1.1992,4.69922 -1,7.70117 -7.3184,4.45703 z"
     id="path535" />
  <path
     d="m 374.27187,213.83633 -0.3711,-0.0527 -4.3008,-3.19922 -5.2988,-1.30078 -2.5,-4.79883 -1.3008,0.39844 -3.9004,-3.39844 1.2012,-3.10156 -1.9004,-1.89844 -1.9004,0.5 -5.2988,4.69922 -1.8008,0.19922 -3.8008,-0.89844 -3.1992,-2.90039 -1.1992,-2.5 -3.3008,1.90039 2.9004,7.29883 -0.7012,2 3.8008,5.09961 4.6992,7.60156 3.8008,2 0.9004,3.69922 -2.3008,2.19922 -0.5,5 1.1758,1.55859 h 23.1016 c 1.1063,0 1.9941,-0.88977 1.9941,-1.99609 z"
     id="path534" />
  <path
     d="m 374.27187,125.77383 -3.6719,-1.39062 -12,-4.29883 -7.5996,0.19922 -8.0996,6.70117 0.5996,4.5 -6,-3.60156 -2.1992,6.90039 1.7988,1.20117 -1.6992,4.79883 5.3008,4.20117 3.5996,-0.20117 4.2988,4.20117 0.2012,3.19922 2.7988,1.09961 4.4004,-1.40039 5.0996,-2.69922 4.7012,1.5 5,-0.30078 1.9004,3.90039 0.6992,6.09961 -4.6992,-0.89844 -4.1016,1 1,4.59961 -5.0996,-0.59961 0.5996,2.09961 3.2012,1.59961 3.6992,5.69922 6.2715,2.12305 z"
     id="path532" />
  <path
     d="M 324.33047,0.17813 324.38147,0.1 h -13.1563 l 0.045,0.07813 z"
     id="path526" />
  <path
     id="path525"
     d="m 324.33047,0.17813 h -13.0606 l 0.045,0.07813 h 12.9629 z m 49.9414,18.794921 -3.2715,-1.089843 -6.5996,-1.699219 -13,-1.599609 -1.1992,1.798828 6,3.101562 -2.8008,3.59961 -6.4004,-3.300782 -5,2.300782 -7.6992,0.09961 -2.0996,1.900391 -5.4004,-0.59961 2.5,-3.300781 -3.2012,-0.199219 -12.3984,4.59961 -7.7012,2.699218 0.4004,3.5 -6,1.201172 -4.0996,-1.90039 -1.2012,-3.09961 5.1016,-0.701172 -3.6016,-3 -12.2988,-1.798828 4.2988,3.398438 -0.7988,3.300781 4.6992,3.300781 -1.0996,3.798828 -4.5996,-1.90039 -4.0996,-0.298828 -8.1016,5.40039 4.3008,4.199218 -3.1992,1.400391 -11.6016,-3.59961 -2.0996,2.199219 3.4004,2.400391 0.1992,2.798828 -3.7988,-1.5 -6.0996,-1.699219 -1.9004,-5.800781 -1,-2.59961 -8.0996,-4.099609 2.8984,-0.699219 20.2012,4.199219 6.5,-1.5 3.6992,-2.900391 -1.5,-3.699218 -4.0996,-2.59961 -17.6992,-6.201172 -11.7012,-1.298828 -7.6992,-3.201172 -3.7012,1.900391 -6.3984,2.099609 -3.2012,0.5 0.4004,3.800782 7.3008,3.699218 -2.9004,4.201172 6.5,6.298828 -1.7012,4.800782 4.9004,4.199218 -0.9004,3.800781 7.4004,3.90039 -0.9004,2.89844 -3.3984,3.40039 -8,7.40039 5.3984,2.80078 -4.5,3.29883 0.9004,1 -2.5996,3.40039 2.4004,5.59961 -1.5996,1.90039 2.5,1.30078 1,2.89844 2.0996,3.60156 5.2988,1.5 0.9004,1.5 2.4004,-0.70117 4.8008,1.40039 1.0996,2.90039 -0.7012,1.599611 3.8008,4 2.0996,1.09961 v 1.09961 l 3.4004,1.10156 1.6992,1.59961 -1.5996,1.29883 -3.9004,-0.19922 -0.7988,0.59961 1.5,2 2,4 1.7988,0.20117 1,-1.40039 1.5,0.29883 4.9004,-0.59961 3.8008,3.5 -0.9004,1.30078 0.8008,1.90039 3.8984,0.29883 2.3008,2.70117 0.1,1.19922 6.7012,2.19922 3.5996,-1 3.5996,2.90039 2.9004,-0.0996 7.6992,2 0.4004,1.90039 -1.3008,3.19922 1.8008,3.5 -0.3008,2.09961 -4.7988,0.40039 -2.2012,1.80078 0.4004,2.69922 4.3008,-1 0.4004,1.40039 -6.9004,2.59961 3.2988,2.5 -3.1992,5.20117 -3.5996,1 5.0996,3.69922 6.1992,2.40039 7.6016,5.40039 0.3984,-0.80078 4.6016,1.09961 7.6992,1 7.5996,3.09961 1.2012,1.20117 2.8984,-1 5.1016,1.29883 2.0996,2.60156 3.5996,1.5 1.5,0.19922 4.3008,3.80078 2.3984,0.5 0.6016,-1.60156 2.5,-2.59961 -7.3008,-7.5 -0.4004,-4.19922 -6,-6.09961 3.5996,-6.5 4.6016,-1 1.3984,-3.70117 -2.7988,-1.09961 -0.2012,-3.19922 -4.2988,-4.20117 -3.5996,0.20117 -5.3008,-4.20117 1.6992,-4.79883 -1.7988,-1.20117 2.1992,-6.90039 6,3.60156 -0.5996,-4.5 8.0996,-6.70117 7.5996,-0.19922 12,4.29883 3.6719,1.39062 z m -176.4707,84.511719 5.9004,0.69922 8.7988,-0.0996 -0.5996,-1.5 0.1992,-1.70117 -2.1992,-0.898441 -5.0996,-1.10156 -6.3008,2.000001 z M 324.27777,0.256255 h -12.9629 l 0.9863,1.728515 -3.5,1.09961 2,2.90039 7.9004,1.398438 2.2988,2.300781 13.5,0.699219 2.2012,-0.398438 -10,-4.40039 -3.1016,-4.300782 z m 49.9941,6.310546 -1.5703,1.716797 1.0996,1.701172 0.4707,0.419922 z"
     name="Federació de Rússia" />
  <path
     d="m 374.34997,10.475005 0.078,0.07031 V 6.396878 l -0.078,0.08398 z"
     id="path522" />
  <path
     d="m 374.34997,125.80313 0.078,0.0293 V 19.025786 l -0.078,-0.02539 z"
     id="path518" />
  <path
     d="M 374.34997,125.80313 V 19.000395 l -0.078,-0.02734 V 125.77383 Z"
     id="path517" />
  <path
     d="m 374.34997,176.0336 0.078,0.0254 v -50.22656 l -0.078,-0.0293 z"
     id="path516" />
  <path
     d="m 374.34997,176.0336 v -50.23047 l -0.078,-0.0293 v 50.23243 z"
     id="path515" />
  <path
     d="m 349.23277,234.01797 0.061,0.0801 h 22.9844 c 1.1901,0 2.1503,-0.9623 2.1503,-2.15234 v -18.08594 l -0.078,-0.0117 v 18.09766 c 0,1.14818 -0.9241,2.07226 -2.0722,2.07226 z"
     id="path512" />
  <path
     d="m 349.23277,234.01797 h 23.045 c 1.1481,0 2.0722,-0.92408 2.0722,-2.07226 v -18.09766 l -0.078,-0.0117 v 18.10938 c 0,1.10632 -0.8878,1.99609 -1.9941,1.99609 h -23.1016 z"
     id="path511" />
  <path
     d="m 316.45737,234.01797 -0.1308,0.0801 h 32.9668 l -0.061,-0.0801 z"
     id="path510" />
  <path
     d="m 316.45737,234.01797 h 32.7754 l -0.057,-0.0762 h -32.5938 z"
     id="path509" />
  <path
     d="m 297.73667,234.01797 -0.02,0.0801 h 18.6094 l 0.1308,-0.0801 z"
     id="path508" />
  <path
     d="m 297.73667,234.01797 h 18.7207 l 0.125,-0.0762 h -18.8261 z"
     id="path507" />
  <path
     d="m 294.39877,234.01797 -0.02,0.0801 h 3.3379 l 0.02,-0.0801 z"
     id="path506" />
  <path
     d="m 95.273819,234.01797 h 49.630851 l -0.01,-0.0762 H 95.252129 Z"
     id="path504" />
  <path
     d="m 144.91447,234.09805 -0.01,-0.0801 H 95.273619 l 0.0215,0.0801 z"
     id="path503" />
  <path
     d="m 162.75037,234.01797 h -17.8457 l 0.01,0.0801 h 17.873 z"
     id="path501" />
  <path
     d="m 162.71717,233.9418 h -17.8223 l 0.01,0.0762 h 17.8457 z"
     id="path499" />
  <path
     d="m 148.90077,213.2836 -1,3.30078 1,6.09961 -1.0996,5.30078 -3.2012,3.59961 0.2949,2.35742 h 17.8223 l -0.1172,-0.25781 -2.7988,-0.0996 -1.2012,-3.5 3.5,-3.20117 0.5,-5.59961 -1.8984,-1.59961 -0.1016,-2.90039 2.5,-3.19922 -0.3984,-1.20117 -4.4004,2.40039 v -3.29883 l -3.7012,-0.70117 z"
     id="path497" />
  <path
     d="m 92.701549,224.68399 1.89844,4.09961 0.30078,3.90039 0.35156,1.25781 h 49.642541 l -0.2949,-2.35742 3.2012,-3.59961 1.0996,-5.30078 -1,-6.09961 1,-3.30078 -3.5996,0.40039 -2.2012,-1.5 -5.6992,0.0996 -4.9004,2.5 -2.6992,-0.90039 -8.8008,0.5 -8.99999,1.10156 -5.09961,2 -3.30078,2.59961 -5.798831,1.09961 z"
     id="path496" />
  <path
     d="m 63.467179,233.9418 h 31.78515 l -0.35156,-1.25781 -0.30078,-3.90039 -1.89844,-4.09961 h -2.40039 l -5.5,-1.40039 -5.09961,0.40039 -3.10156,-2.69922 -3.89844,-0.10156 -1.80078,4 -3.69922,6.60156 z"
     id="path495" />
  <path
     d="m 63.351939,234.01797 h 31.92188 l -0.0215,-0.0762 h -31.78515 z"
     id="path493" />
  <path
     d="m 63.230849,234.09805 h 32.06445 l -0.0215,-0.0801 h -31.92188 z"
     id="path491" />
  <path
     d="m 110.25901,177.37063 -0.0344,1.45802 2.28463,-0.26405 0.0115,-1.11361 -1.768,-0.96437 z"
     id="path624"
     sodipodi:nodetypes="cccccc"
     name="Andorra" />
</svg>
