<?xml version="1.0" encoding="UTF-8" standalone="no"?>
<svg
   viewBox="0 0 21.640625 29.960937"
   version="1.1"
   id="svg4"
   sodipodi:docname="favicon.svg"
   width="21.640625"
   height="29.960938"
   inkscape:version="1.4.2 (f4327f4, 2025-05-13)"
   xmlns:inkscape="http://www.inkscape.org/namespaces/inkscape"
   xmlns:sodipodi="http://sodipodi.sourceforge.net/DTD/sodipodi-0.dtd"
   xmlns="http://www.w3.org/2000/svg"
   xmlns:svg="http://www.w3.org/2000/svg">
  <defs
     id="defs4" />
  <sodipodi:namedview
     id="namedview4"
     pagecolor="#ffffff"
     bordercolor="#666666"
     borderopacity="1.0"
     inkscape:showpageshadow="2"
     inkscape:pageopacity="0.0"
     inkscape:pagecheckerboard="0"
     inkscape:deskcolor="#d1d1d1"
     inkscape:zoom="56.347572"
     inkscape:cx="16.309487"
     inkscape:cy="21.819929"
     inkscape:window-width="2880"
     inkscape:window-height="1514"
     inkscape:window-x="2869"
     inkscape:window-y="-11"
     inkscape:window-maximized="1"
     inkscape:current-layer="svg4" />
  <!-- fondo transparente -->
  <!-- target -->
  <circle
     cx="10.868345"
     cy="19.414837"
     fill="#facc15"
     id="circle4"
     style="stroke-width:0.789657"
     r="2.3689725" />
  <!-- accent ò -->
  <path
     style="font-weight:bold;font-size:40px;line-height:1.25;font-family:'Segoe UI';-inkscape-font-specification:'Segoe UI Bold';fill:#ef4444"
     d="m 10.722657,29.960937 q -5,0 -7.871094,-2.792969 Q 0,24.355468 0,19.550781 0,14.589843 2.96875,11.796875 5.9375,8.9843753 10.996094,8.9843753 q 4.980469,0 7.8125,2.8124997 2.832031,2.792968 2.832031,7.402343 0,4.980469 -2.929687,7.871094 -2.910156,2.890625 -7.988281,2.890625 z m 0.15625,-16.25 q -2.1875,0 -3.398438,1.503906 -1.210937,1.503907 -1.210937,4.257813 0,5.761719 4.648437,5.761719 4.433594,0 4.433594,-5.917969 0,-5.605469 -4.472656,-5.605469 z M 15.234375,6.3085933 H 10.800782 L 4.667969,0 h 5.488281 z"
     id="text4"
     aria-label="ò" />
</svg>
